<svg xmlns="http://www.w3.org/2000/svg" xmlns:xlink="http://www.w3.org/1999/xlink" width="180" zoomAndPan="magnify" viewBox="0 0 135 78.749999" height="105" preserveAspectRatio="xMidYMid meet" version="1.0"><defs><g/><clipPath id="0a8a5610e4"><path d="M 46 31 L 84 31 L 84 70 L 46 70 Z M 46 31 " clip-rule="nonzero"/></clipPath><clipPath id="902249bbb2"><path d="M 77.148438 31.058594 L 83.757812 37.332031 L 50.605469 72.253906 L 44 65.980469 Z M 77.148438 31.058594 " clip-rule="nonzero"/></clipPath><clipPath id="4e182b75ee"><path d="M 77.148438 31.058594 L 83.757812 37.332031 L 50.605469 72.253906 L 44 65.980469 Z M 77.148438 31.058594 " clip-rule="nonzero"/></clipPath><clipPath id="52dfacb24e"><path d="M 59 36 L 92 36 L 92 70 L 59 70 Z M 59 36 " clip-rule="nonzero"/></clipPath><clipPath id="f680b2a87a"><path d="M 55.992188 42.179688 L 66.371094 32.320312 L 95.953125 63.457031 L 85.574219 73.316406 Z M 55.992188 42.179688 " clip-rule="nonzero"/></clipPath><clipPath id="b7b418b0e0"><path d="M 55.992188 42.179688 L 66.371094 32.320312 L 95.953125 63.457031 L 85.574219 73.316406 Z M 55.992188 42.179688 " clip-rule="nonzero"/></clipPath><clipPath id="257b006631"><path d="M 34 8 L 67 8 L 67 42 L 34 42 Z M 34 8 " clip-rule="nonzero"/></clipPath><clipPath id="490abe69d5"><path d="M 30.34375 14.371094 L 40.722656 4.511719 L 70.304688 35.648438 L 59.925781 45.507812 Z M 30.34375 14.371094 " clip-rule="nonzero"/></clipPath><clipPath id="1fb1fead78"><path d="M 30.34375 14.371094 L 40.722656 4.511719 L 70.304688 35.648438 L 59.925781 45.507812 Z M 30.34375 14.371094 " clip-rule="nonzero"/></clipPath><clipPath id="0284dc4f2a"><path d="M 67 8 L 105 8 L 105 48 L 67 48 Z M 67 8 " clip-rule="nonzero"/></clipPath><clipPath id="19ddf0c610"><path d="M 98.382812 8.488281 L 104.988281 14.757812 L 71.839844 49.679688 L 65.230469 43.410156 Z M 98.382812 8.488281 " clip-rule="nonzero"/></clipPath><clipPath id="1ea070fbcd"><path d="M 98.382812 8.488281 L 104.988281 14.757812 L 71.839844 49.679688 L 65.230469 43.410156 Z M 98.382812 8.488281 " clip-rule="nonzero"/></clipPath><clipPath id="ebe4711fbe"><path d="M 48.5625 25.347656 L 89.242188 25.347656 L 89.242188 66.023438 L 48.5625 66.023438 Z M 48.5625 25.347656 " clip-rule="nonzero"/></clipPath><clipPath id="79d6c6aa74"><path d="M 68.902344 25.347656 C 57.667969 25.347656 48.5625 34.453125 48.5625 45.683594 C 48.5625 56.917969 57.667969 66.023438 68.902344 66.023438 C 80.132812 66.023438 89.242188 56.917969 89.242188 45.683594 C 89.242188 34.453125 80.132812 25.347656 68.902344 25.347656 Z M 68.902344 25.347656 " clip-rule="nonzero"/></clipPath><clipPath id="05b63d4b3f"><path d="M 42.921875 19.703125 L 94.976562 19.703125 L 94.976562 71.757812 L 42.921875 71.757812 Z M 42.921875 19.703125 " clip-rule="nonzero"/></clipPath><clipPath id="cf228b9836"><path d="M 54.378906 25.347656 L 83.007812 25.347656 L 83.007812 44.867188 L 54.378906 44.867188 Z M 54.378906 25.347656 " clip-rule="nonzero"/></clipPath><clipPath id="ce0d2429c6"><path d="M 41.199219 45.683594 L 97 45.683594 L 97 61.300781 L 41.199219 61.300781 Z M 41.199219 45.683594 " clip-rule="nonzero"/></clipPath><clipPath id="9a17ef901c"><path d="M 54.417969 59.1875 L 57.019531 59.1875 L 57.019531 63 L 54.417969 63 Z M 54.417969 59.1875 " clip-rule="nonzero"/></clipPath><clipPath id="74cd021577"><path d="M 79.101562 59.1875 L 81.703125 59.1875 L 81.703125 63 L 79.101562 63 Z M 79.101562 59.1875 " clip-rule="nonzero"/></clipPath></defs><g clip-path="url(#0a8a5610e4)"><g clip-path="url(#902249bbb2)"><g clip-path="url(#4e182b75ee)"><path fill="#000000" d="M 65.75 47.152344 C 66.675781 46.179688 66.914062 44.828125 66.453125 43.773438 C 66.195312 43.175781 66.347656 42.441406 66.839844 41.921875 L 76.78125 31.449219 C 76.972656 31.246094 77.308594 31.25 77.53125 31.457031 C 77.75 31.667969 77.769531 32 77.578125 32.203125 L 69.964844 40.226562 C 69.835938 40.363281 69.765625 40.542969 69.769531 40.730469 C 69.777344 40.917969 69.855469 41.097656 69.992188 41.226562 C 70.128906 41.355469 70.308594 41.425781 70.496094 41.417969 C 70.683594 41.414062 70.859375 41.335938 70.992188 41.199219 C 72.738281 39.355469 78.605469 33.179688 78.605469 33.179688 C 78.796875 32.976562 79.132812 32.980469 79.351562 33.1875 C 79.574219 33.398438 79.59375 33.734375 79.402344 33.9375 L 71.789062 41.957031 C 71.660156 42.09375 71.589844 42.273438 71.59375 42.460938 C 71.597656 42.648438 71.679688 42.828125 71.8125 42.957031 C 71.949219 43.085938 72.132812 43.15625 72.320312 43.152344 C 72.507812 43.144531 72.683594 43.066406 72.8125 42.929688 C 74.5625 41.085938 80.425781 34.910156 80.425781 34.910156 C 80.621094 34.707031 80.957031 34.710938 81.175781 34.917969 C 81.398438 35.128906 81.417969 35.464844 81.226562 35.667969 L 73.613281 43.6875 C 73.480469 43.824219 73.414062 44.003906 73.417969 44.191406 C 73.421875 44.378906 73.5 44.558594 73.636719 44.6875 C 73.773438 44.816406 73.953125 44.886719 74.140625 44.882812 C 74.328125 44.875 74.507812 44.796875 74.636719 44.660156 C 76.386719 42.820312 82.25 36.640625 82.25 36.640625 C 82.445312 36.4375 82.777344 36.441406 83 36.648438 C 83.21875 36.859375 83.242188 37.195312 83.046875 37.398438 L 73.742188 47.203125 L 73.105469 47.875 C 72.613281 48.390625 71.882812 48.582031 71.277344 48.355469 C 70.199219 47.949219 68.863281 48.257812 67.941406 49.230469 L 54.449219 64.269531 C 54.449219 64.269531 51.945312 67.164062 50.328125 69.027344 C 49.980469 69.429688 49.480469 69.671875 48.949219 69.699219 C 48.417969 69.722656 47.898438 69.53125 47.511719 69.164062 C 47.3125 68.976562 47.105469 68.78125 46.90625 68.589844 C 46.519531 68.226562 46.300781 67.714844 46.296875 67.183594 C 46.296875 66.652344 46.511719 66.140625 46.898438 65.769531 C 48.675781 64.0625 51.4375 61.40625 51.4375 61.40625 Z M 65.75 47.152344 " fill-opacity="1" fill-rule="evenodd"/></g></g></g><g clip-path="url(#52dfacb24e)"><g clip-path="url(#f680b2a87a)"><g clip-path="url(#b7b418b0e0)"><path fill="#000000" d="M 71.886719 52.566406 C 69.625 53.691406 66.855469 53.613281 64.179688 50.796875 C 60.601562 47.027344 58.53125 39.769531 61.011719 37.410156 C 63.496094 35.050781 70.636719 37.492188 74.21875 41.261719 C 76.890625 44.074219 76.828125 46.835938 75.59375 49.039062 C 75.421875 49.898438 75.6875 50.871094 76.386719 51.605469 L 87.027344 62.191406 C 87.027344 62.191406 89.535156 64.546875 91.164062 66.078125 C 91.519531 66.410156 91.71875 66.871094 91.71875 67.359375 C 91.722656 67.84375 91.523438 68.308594 91.171875 68.640625 L 90.660156 69.128906 C 90.304688 69.460938 89.832031 69.636719 89.347656 69.613281 C 88.863281 69.585938 88.410156 69.359375 88.097656 68.988281 C 86.65625 67.285156 84.433594 64.65625 84.433594 64.65625 L 74.40625 53.488281 C 73.707031 52.753906 72.75 52.4375 71.886719 52.566406 Z M 71.886719 52.566406 " fill-opacity="1" fill-rule="evenodd"/></g></g></g><g clip-path="url(#257b006631)"><g clip-path="url(#490abe69d5)"><g clip-path="url(#1fb1fead78)"><path fill="#fffff7" d="M 46.238281 24.757812 C 43.976562 25.882812 41.207031 25.804688 38.53125 22.988281 C 34.953125 19.21875 32.882812 11.960938 35.363281 9.601562 C 37.847656 7.246094 44.988281 9.683594 48.570312 13.453125 C 51.242188 16.265625 51.179688 19.03125 49.945312 21.230469 C 49.773438 22.089844 50.039062 23.0625 50.738281 23.796875 L 61.378906 34.386719 C 61.378906 34.386719 63.886719 36.742188 65.515625 38.269531 C 65.871094 38.601562 66.070312 39.0625 66.070312 39.550781 C 66.074219 40.035156 65.875 40.5 65.523438 40.832031 L 65.011719 41.320312 C 64.65625 41.65625 64.183594 41.828125 63.699219 41.804688 C 63.214844 41.777344 62.761719 41.550781 62.449219 41.179688 C 61.007812 39.476562 58.785156 36.847656 58.785156 36.847656 L 48.757812 25.679688 C 48.058594 24.945312 47.101562 24.628906 46.238281 24.757812 Z M 46.238281 24.757812 " fill-opacity="1" fill-rule="evenodd"/></g></g></g><g clip-path="url(#0284dc4f2a)"><g clip-path="url(#19ddf0c610)"><g clip-path="url(#1ea070fbcd)"><path fill="#fffff7" d="M 86.980469 24.578125 C 87.90625 23.605469 88.148438 22.253906 87.6875 21.199219 C 87.425781 20.605469 87.578125 19.867188 88.070312 19.347656 L 98.011719 8.875 C 98.207031 8.671875 98.542969 8.675781 98.761719 8.882812 C 98.761719 8.882812 98.761719 8.886719 98.761719 8.886719 C 98.980469 9.09375 99.003906 9.429688 98.808594 9.632812 L 91.195312 17.652344 C 91.066406 17.789062 90.996094 17.972656 91.003906 18.160156 C 91.007812 18.347656 91.085938 18.523438 91.222656 18.652344 C 91.359375 18.78125 91.539062 18.851562 91.726562 18.847656 C 91.914062 18.839844 92.09375 18.761719 92.222656 18.625 C 93.972656 16.785156 99.835938 10.605469 99.835938 10.605469 C 100.027344 10.402344 100.363281 10.40625 100.585938 10.617188 C 100.804688 10.824219 100.828125 11.160156 100.632812 11.363281 L 93.019531 19.382812 C 92.890625 19.519531 92.820312 19.703125 92.824219 19.890625 C 92.832031 20.078125 92.910156 20.253906 93.046875 20.382812 C 93.183594 20.511719 93.363281 20.582031 93.550781 20.578125 C 93.738281 20.574219 93.914062 20.492188 94.046875 20.355469 C 95.792969 18.515625 101.660156 12.335938 101.660156 12.335938 C 101.851562 12.132812 102.1875 12.136719 102.40625 12.347656 C 102.628906 12.554688 102.648438 12.890625 102.457031 13.09375 L 94.84375 21.113281 C 94.714844 21.25 94.644531 21.433594 94.648438 21.621094 C 94.652344 21.808594 94.734375 21.984375 94.871094 22.113281 C 95.003906 22.242188 95.1875 22.3125 95.375 22.308594 C 95.5625 22.304688 95.738281 22.222656 95.867188 22.085938 C 97.617188 20.246094 103.484375 14.066406 103.484375 14.066406 C 103.675781 13.863281 104.011719 13.867188 104.230469 14.078125 C 104.453125 14.285156 104.472656 14.621094 104.28125 14.824219 L 94.972656 24.628906 L 94.335938 25.300781 C 93.84375 25.820312 93.117188 26.007812 92.507812 25.78125 C 91.429688 25.375 90.097656 25.6875 89.171875 26.660156 L 75.683594 41.695312 C 75.683594 41.695312 73.175781 44.589844 71.558594 46.453125 C 71.210938 46.855469 70.710938 47.097656 70.179688 47.125 C 69.648438 47.152344 69.128906 46.957031 68.742188 46.589844 C 68.542969 46.402344 68.339844 46.207031 68.140625 46.019531 C 67.753906 45.652344 67.53125 45.144531 67.53125 44.609375 C 67.527344 44.078125 67.746094 43.566406 68.128906 43.199219 C 69.910156 41.488281 72.667969 38.835938 72.667969 38.835938 Z M 86.980469 24.578125 " fill-opacity="1" fill-rule="evenodd"/></g></g></g><g clip-path="url(#ebe4711fbe)"><g clip-path="url(#79d6c6aa74)"><path fill="#000000" d="M 48.5625 25.347656 L 89.242188 25.347656 L 89.242188 66.023438 L 48.5625 66.023438 Z M 48.5625 25.347656 " fill-opacity="1" fill-rule="nonzero"/></g></g><g clip-path="url(#05b63d4b3f)"><path fill="#000000" d="M 68.902344 19.699219 C 54.566406 19.699219 42.925781 31.339844 42.925781 45.675781 C 42.925781 60.015625 54.566406 71.652344 68.902344 71.652344 C 83.238281 71.652344 94.878906 60.015625 94.878906 45.675781 C 94.878906 31.339844 83.238281 19.699219 68.902344 19.699219 Z M 68.902344 21.839844 C 82.058594 21.839844 92.742188 32.519531 92.742188 45.675781 C 92.742188 58.835938 82.058594 69.515625 68.902344 69.515625 C 55.742188 69.515625 45.0625 58.835938 45.0625 45.675781 C 45.0625 32.519531 55.742188 21.839844 68.902344 21.839844 Z M 68.902344 21.839844 " fill-opacity="1" fill-rule="evenodd"/></g><path fill="#d42c00" d="M 68.902344 22.304688 C 56 22.304688 45.527344 32.777344 45.527344 45.675781 C 45.527344 58.578125 56 69.050781 68.902344 69.050781 C 81.804688 69.050781 92.277344 58.578125 92.277344 45.675781 C 92.277344 32.777344 81.804688 22.304688 68.902344 22.304688 Z M 68.902344 28.320312 C 78.480469 28.320312 86.261719 36.097656 86.261719 45.675781 C 86.261719 55.257812 78.480469 63.035156 68.902344 63.035156 C 59.324219 63.035156 51.542969 55.257812 51.542969 45.675781 C 51.542969 36.097656 59.324219 28.320312 68.902344 28.320312 Z M 68.902344 28.320312 " fill-opacity="1" fill-rule="evenodd"/><path fill="#000000" d="M 83.253906 55.4375 L 87.4375 59.914062 C 83.164062 65.46875 76.449219 69.050781 68.902344 69.050781 C 61.40625 69.050781 54.730469 65.515625 50.453125 60.023438 L 54.628906 55.554688 C 57.765625 60.074219 62.992188 63.035156 68.902344 63.035156 C 74.863281 63.035156 80.128906 60.023438 83.253906 55.4375 Z M 83.253906 55.4375 " fill-opacity="1" fill-rule="evenodd"/><path fill="#fcb036" d="M 68.902344 21.707031 C 55.671875 21.707031 44.929688 32.449219 44.929688 45.679688 C 44.929688 58.90625 55.671875 69.648438 68.902344 69.648438 C 82.132812 69.648438 92.875 58.90625 92.875 45.679688 C 92.875 32.449219 82.132812 21.707031 68.902344 21.707031 Z M 68.902344 22.433594 C 81.730469 22.433594 92.148438 32.847656 92.148438 45.679688 C 92.148438 58.507812 81.730469 68.921875 68.902344 68.921875 C 56.074219 68.921875 45.660156 58.507812 45.660156 45.679688 C 45.660156 32.847656 56.074219 22.433594 68.902344 22.433594 Z M 68.902344 22.433594 " fill-opacity="1" fill-rule="evenodd"/><g clip-path="url(#cf228b9836)"><path fill="#fffff7" d="M 61.597656 29.632812 C 61.609375 29.574219 61.625 29.511719 61.640625 29.453125 C 61.71875 29.183594 61.816406 28.925781 61.933594 28.683594 C 62.421875 27.648438 63.21875 26.875 64.1875 26.34375 C 65.113281 25.835938 66.199219 25.558594 67.3125 25.488281 C 68.953125 25.386719 70.65625 25.75 72.015625 26.523438 C 73.007812 27.085938 73.816406 27.867188 74.296875 28.84375 C 74.34375 28.945312 74.394531 29.042969 74.445312 29.140625 C 76.6875 28.335938 78.582031 28.542969 80.023438 29.320312 C 82.238281 30.519531 83.382812 33.089844 83.0625 35.527344 C 82.710938 38.175781 80.644531 40.679688 76.324219 41.050781 L 76.324219 44.472656 C 76.324219 44.558594 76.277344 44.636719 76.203125 44.679688 C 76.132812 44.71875 76.042969 44.722656 75.96875 44.679688 C 71.253906 42.011719 66.355469 42 61.273438 44.683594 C 61.199219 44.722656 61.109375 44.71875 61.039062 44.675781 C 60.96875 44.632812 60.925781 44.554688 60.925781 44.472656 L 60.925781 41.691406 C 56.46875 41.507812 54.410156 38.441406 54.550781 35.457031 C 54.695312 32.441406 57.09375 29.476562 61.597656 29.632812 Z M 61.597656 29.632812 " fill-opacity="1" fill-rule="evenodd"/><path fill="#000000" d="M 61.570312 29.601562 C 61.585938 29.550781 61.597656 29.496094 61.613281 29.445312 C 61.6875 29.171875 61.789062 28.914062 61.902344 28.671875 C 62.394531 27.628906 63.199219 26.851562 64.171875 26.316406 C 65.105469 25.808594 66.191406 25.527344 67.3125 25.457031 C 68.957031 25.355469 70.667969 25.71875 72.03125 26.496094 C 73.03125 27.0625 73.84375 27.847656 74.324219 28.828125 C 74.371094 28.921875 74.414062 29.011719 74.460938 29.101562 C 76.703125 28.304688 78.597656 28.515625 80.039062 29.292969 C 82.265625 30.5 83.414062 33.082031 83.09375 35.53125 C 82.742188 38.183594 80.675781 40.699219 76.355469 41.082031 L 76.355469 44.472656 C 76.355469 44.570312 76.304688 44.65625 76.21875 44.707031 C 76.136719 44.753906 76.035156 44.753906 75.953125 44.707031 C 71.25 42.042969 66.363281 42.03125 61.289062 44.710938 C 61.203125 44.753906 61.105469 44.753906 61.023438 44.703125 C 60.941406 44.65625 60.890625 44.566406 60.890625 44.472656 L 60.890625 41.722656 C 56.4375 41.527344 54.378906 38.449219 54.519531 35.457031 C 54.664062 32.433594 57.0625 29.457031 61.570312 29.601562 Z M 66.371094 37.566406 C 64.730469 37.839844 63.082031 38.40625 61.429688 39.261719 L 61.429688 44.03125 C 66.398438 41.535156 71.191406 41.546875 75.816406 44.015625 L 75.816406 39.613281 C 72.074219 41.472656 68.507812 40.238281 66.410156 37.605469 C 66.394531 37.59375 66.382812 37.582031 66.371094 37.566406 Z M 78.074219 31.6875 C 77.265625 31.898438 76.558594 31.816406 75.9375 31.5 C 75.648438 31.355469 75.382812 31.160156 75.128906 30.917969 C 74.648438 30.453125 74.238281 29.8125 73.859375 29.058594 C 73.417969 28.171875 72.675781 27.46875 71.769531 26.960938 C 70.488281 26.238281 68.886719 25.902344 67.34375 25.996094 C 66.304688 26.058594 65.296875 26.320312 64.425781 26.785156 C 63.542969 27.261719 62.808594 27.953125 62.347656 28.886719 C 62.238281 29.105469 62.148438 29.335938 62.070312 29.582031 C 61.992188 29.816406 61.929688 30.058594 61.882812 30.316406 C 61.808594 30.714844 61.800781 31.292969 61.84375 31.859375 C 61.890625 32.460938 61.992188 33.050781 62.136719 33.382812 C 62.15625 33.429688 62.136719 33.484375 62.09375 33.503906 C 62.046875 33.527344 61.992188 33.507812 61.96875 33.464844 C 61.789062 33.125 61.632812 32.523438 61.535156 31.894531 C 61.441406 31.296875 61.410156 30.679688 61.457031 30.253906 C 61.460938 30.214844 61.464844 30.175781 61.472656 30.136719 C 57.386719 30.046875 55.1875 32.726562 55.058594 35.484375 C 54.929688 38.214844 56.832031 40.992188 60.890625 41.179688 L 60.890625 40.546875 C 60.582031 40.613281 60.292969 40.636719 60.023438 40.609375 C 59.796875 40.589844 59.585938 40.535156 59.394531 40.445312 C 59.148438 40.335938 58.933594 40.183594 58.742188 39.980469 C 58.578125 39.804688 58.433594 39.597656 58.308594 39.355469 C 58.273438 39.304688 58.289062 39.238281 58.335938 39.207031 C 58.386719 39.171875 58.453125 39.1875 58.488281 39.234375 C 58.613281 39.382812 58.746094 39.507812 58.882812 39.617188 C 59.097656 39.789062 59.324219 39.902344 59.570312 39.976562 C 59.726562 40.023438 59.890625 40.050781 60.066406 40.0625 C 60.304688 40.078125 60.566406 40.0625 60.84375 39.996094 L 60.890625 39.984375 L 60.890625 39.378906 L 60.734375 39.34375 C 60.179688 39.199219 59.707031 38.976562 59.308594 38.671875 C 59.027344 38.457031 58.785156 38.199219 58.585938 37.902344 C 58.355469 37.558594 58.179688 37.164062 58.058594 36.71875 C 57.953125 36.339844 57.890625 35.925781 57.867188 35.476562 C 57.859375 35.417969 57.902344 35.363281 57.960938 35.355469 C 58.019531 35.347656 58.074219 35.390625 58.082031 35.449219 C 58.144531 35.78125 58.230469 36.089844 58.332031 36.378906 C 58.5 36.851562 58.71875 37.257812 58.992188 37.605469 C 59.183594 37.847656 59.398438 38.054688 59.640625 38.234375 C 59.988281 38.492188 60.394531 38.6875 60.871094 38.816406 L 61.039062 38.855469 C 62.710938 37.976562 64.375 37.382812 66.03125 37.078125 C 65.96875 36.980469 65.910156 36.871094 65.847656 36.757812 C 65.714844 36.5 65.585938 36.203125 65.484375 35.871094 C 65.421875 35.660156 65.367188 35.4375 65.332031 35.199219 C 65.308594 35.050781 65.289062 34.898438 65.289062 34.742188 C 65.289062 34.496094 65.324219 34.25 65.375 33.988281 C 65.375 33.9375 65.417969 33.898438 65.46875 33.898438 C 65.523438 33.898438 65.5625 33.941406 65.5625 33.992188 C 65.59375 34.242188 65.652344 34.46875 65.703125 34.695312 C 65.734375 34.835938 65.761719 34.976562 65.796875 35.109375 C 65.847656 35.320312 65.90625 35.523438 65.972656 35.710938 C 66.078125 36.007812 66.203125 36.269531 66.328125 36.5 C 66.476562 36.777344 66.625 37.007812 66.753906 37.179688 C 66.765625 37.191406 66.777344 37.203125 66.785156 37.214844 C 68.75 39.726562 72.140625 40.894531 75.683594 39.074219 C 75.691406 39.070312 75.699219 39.066406 75.707031 39.0625 C 75.710938 39.058594 75.714844 39.058594 75.71875 39.054688 C 75.785156 39.023438 75.851562 38.984375 75.917969 38.949219 C 76.15625 38.8125 76.484375 38.582031 76.828125 38.226562 C 77.023438 38.023438 77.222656 37.78125 77.417969 37.488281 C 77.617188 37.183594 77.808594 36.832031 77.980469 36.421875 C 78.125 36.074219 78.261719 35.691406 78.371094 35.253906 C 78.382812 35.199219 78.433594 35.164062 78.488281 35.171875 C 78.542969 35.183594 78.582031 35.234375 78.570312 35.289062 C 78.53125 35.757812 78.457031 36.175781 78.351562 36.550781 C 78.222656 37.015625 78.042969 37.414062 77.851562 37.753906 C 77.65625 38.09375 77.4375 38.375 77.222656 38.605469 C 76.914062 38.9375 76.605469 39.164062 76.355469 39.320312 L 76.355469 39.761719 C 76.65625 39.699219 76.917969 39.601562 77.148438 39.496094 C 77.328125 39.410156 77.488281 39.320312 77.628906 39.210938 C 77.882812 39.011719 78.082031 38.769531 78.21875 38.464844 C 78.234375 38.40625 78.296875 38.375 78.351562 38.394531 C 78.410156 38.410156 78.441406 38.472656 78.425781 38.527344 C 78.382812 38.769531 78.304688 38.984375 78.195312 39.1875 C 78.078125 39.398438 77.925781 39.582031 77.730469 39.746094 C 77.589844 39.863281 77.425781 39.96875 77.242188 40.054688 C 77.007812 40.164062 76.738281 40.242188 76.4375 40.300781 L 76.355469 40.316406 L 76.355469 40.539062 C 80.308594 40.171875 82.238281 37.902344 82.558594 35.460938 C 82.851562 33.226562 81.8125 30.867188 79.78125 29.765625 C 78.472656 29.058594 76.757812 28.878906 74.730469 29.578125 C 74.960938 29.960938 75.210938 30.292969 75.476562 30.570312 C 75.6875 30.792969 75.90625 30.976562 76.148438 31.125 C 76.679688 31.449219 77.292969 31.585938 78.03125 31.46875 C 78.089844 31.457031 78.148438 31.496094 78.160156 31.558594 C 78.171875 31.617188 78.136719 31.675781 78.074219 31.6875 Z M 78.074219 31.6875 " fill-opacity="1" fill-rule="evenodd"/></g><g clip-path="url(#ce0d2429c6)"><path fill="#ffffff" d="M 87.839844 46.886719 C 82.839844 46.125 76.109375 45.707031 68.890625 45.707031 C 61.671875 45.707031 54.941406 46.125 49.941406 46.886719 C 44.140625 47.765625 41.199219 49.007812 41.199219 50.574219 L 41.199219 59.230469 C 41.199219 59.929688 41.65625 60.511719 42.519531 60.914062 C 43.25 61.253906 44.230469 61.441406 45.28125 61.441406 C 47.242188 61.441406 49.351562 60.753906 49.367188 59.246094 C 49.367188 59.242188 49.367188 59.242188 49.367188 59.242188 C 49.367188 59.238281 49.367188 59.234375 49.367188 59.230469 C 49.367188 59.152344 49.359375 59.082031 49.34375 59.011719 C 49.199219 57.691406 49.136719 56.230469 49.277344 56.007812 C 49.300781 55.996094 49.316406 55.980469 49.332031 55.960938 C 54.1875 55.160156 61 54.6875 68.890625 54.6875 C 76.09375 54.6875 82.808594 55.105469 87.792969 55.863281 C 88.015625 55.898438 88.238281 55.933594 88.453125 55.96875 C 88.46875 55.984375 88.484375 56 88.503906 56.007812 C 88.644531 56.230469 88.582031 57.691406 88.4375 59.011719 C 88.421875 59.082031 88.414062 59.152344 88.414062 59.230469 C 88.414062 59.929688 88.871094 60.511719 89.734375 60.914062 C 90.46875 61.253906 91.449219 61.441406 92.5 61.441406 C 94.464844 61.441406 96.582031 60.75 96.582031 59.230469 L 96.582031 50.574219 C 96.582031 49.007812 93.640625 47.765625 87.839844 46.886719 " fill-opacity="1" fill-rule="nonzero"/><path fill="#000000" d="M 96.257812 51.007812 C 95.847656 50.4375 94.789062 49.632812 92.054688 49.019531 C 92.027344 49.011719 91.996094 49.03125 91.988281 49.058594 C 91.980469 49.089844 92 49.121094 92.03125 49.125 C 95.003906 49.796875 95.953125 50.691406 96.257812 51.230469 L 96.257812 51.632812 C 95.808594 51.03125 94.605469 50.160156 91.398438 49.4375 C 91.371094 49.429688 91.339844 49.449219 91.332031 49.480469 C 91.324219 49.511719 91.34375 49.539062 91.375 49.546875 C 94.847656 50.328125 95.925781 51.285156 96.257812 51.851562 L 96.257812 52.117188 C 95.847656 51.550781 94.789062 50.746094 92.054688 50.128906 C 92.027344 50.125 91.996094 50.140625 91.988281 50.171875 C 91.980469 50.203125 92 50.230469 92.03125 50.238281 C 95.003906 50.90625 95.953125 51.804688 96.257812 52.339844 L 96.257812 52.746094 C 95.808594 52.140625 94.605469 51.269531 91.398438 50.550781 C 91.371094 50.542969 91.339844 50.5625 91.332031 50.59375 C 91.324219 50.621094 91.34375 50.652344 91.375 50.660156 C 94.847656 51.441406 95.925781 52.394531 96.257812 52.964844 L 96.257812 53.230469 C 95.847656 52.660156 94.789062 51.855469 92.054688 51.242188 C 92.027344 51.234375 91.996094 51.253906 91.988281 51.285156 C 91.980469 51.3125 92 51.34375 92.03125 51.351562 C 95.003906 52.019531 95.953125 52.914062 96.257812 53.453125 L 96.257812 53.855469 C 95.808594 53.253906 94.605469 52.382812 91.398438 51.660156 C 91.371094 51.65625 91.339844 51.675781 91.332031 51.703125 C 91.324219 51.734375 91.34375 51.761719 91.375 51.769531 C 94.847656 52.550781 95.925781 53.507812 96.257812 54.074219 L 96.257812 54.339844 C 95.847656 53.773438 94.789062 52.96875 92.054688 52.355469 C 92.027344 52.347656 91.996094 52.367188 91.988281 52.394531 C 91.980469 52.425781 92 52.457031 92.03125 52.460938 C 95.003906 53.128906 95.953125 54.027344 96.257812 54.566406 L 96.257812 54.96875 C 95.808594 54.363281 94.605469 53.496094 91.398438 52.773438 C 91.371094 52.765625 91.339844 52.785156 91.332031 52.816406 C 91.324219 52.84375 91.34375 52.875 91.375 52.882812 C 94.847656 53.664062 95.925781 54.621094 96.257812 55.1875 L 96.257812 55.453125 C 95.847656 54.882812 94.789062 54.078125 92.054688 53.464844 C 92.027344 53.457031 91.996094 53.476562 91.988281 53.507812 C 91.980469 53.539062 92 53.566406 92.03125 53.574219 C 95.003906 54.242188 95.953125 55.140625 96.257812 55.675781 L 96.257812 56.082031 C 95.808594 55.476562 94.605469 54.605469 91.398438 53.886719 C 91.371094 53.878906 91.339844 53.898438 91.332031 53.925781 C 91.324219 53.957031 91.34375 53.988281 91.375 53.992188 C 94.847656 54.773438 95.925781 55.730469 96.257812 56.300781 L 96.257812 56.566406 C 95.847656 55.996094 94.789062 55.191406 92.054688 54.578125 C 92.027344 54.570312 91.996094 54.589844 91.988281 54.621094 C 91.980469 54.648438 92 54.679688 92.03125 54.6875 C 95.003906 55.355469 95.953125 56.25 96.257812 56.789062 L 96.257812 57.191406 C 95.808594 56.589844 94.605469 55.71875 91.398438 54.996094 C 91.371094 54.992188 91.339844 55.007812 91.332031 55.039062 C 91.324219 55.070312 91.34375 55.097656 91.375 55.105469 C 94.847656 55.886719 95.925781 56.84375 96.257812 57.410156 L 96.257812 57.675781 C 95.847656 57.109375 94.789062 56.304688 92.054688 55.6875 C 92.027344 55.683594 91.996094 55.699219 91.988281 55.730469 C 91.980469 55.761719 92 55.789062 92.03125 55.796875 C 95.003906 56.464844 95.953125 57.363281 96.257812 57.898438 L 96.257812 58.359375 C 95.34375 57.199219 92.523438 56.25 87.839844 55.539062 C 82.839844 54.78125 76.109375 54.363281 68.890625 54.363281 C 61.671875 54.363281 54.941406 54.78125 49.941406 55.539062 C 45.257812 56.25 42.4375 57.199219 41.523438 58.359375 L 41.523438 57.957031 C 41.792969 57.429688 42.699219 56.488281 45.78125 55.796875 C 45.808594 55.789062 45.828125 55.761719 45.820312 55.730469 C 45.816406 55.699219 45.785156 55.683594 45.753906 55.6875 C 42.953125 56.320312 41.910156 57.148438 41.523438 57.71875 L 41.523438 57.46875 C 41.816406 56.90625 42.84375 55.914062 46.4375 55.105469 C 46.464844 55.097656 46.484375 55.070312 46.476562 55.039062 C 46.472656 55.007812 46.441406 54.988281 46.414062 54.996094 C 43.128906 55.734375 41.945312 56.628906 41.523438 57.234375 L 41.523438 56.84375 C 41.792969 56.316406 42.699219 55.378906 45.78125 54.6875 C 45.808594 54.679688 45.828125 54.648438 45.820312 54.621094 C 45.816406 54.589844 45.785156 54.570312 45.753906 54.578125 C 42.953125 55.207031 41.910156 56.039062 41.523438 56.609375 L 41.523438 56.355469 C 41.816406 55.796875 42.84375 54.800781 46.4375 53.992188 C 46.464844 53.988281 46.484375 53.957031 46.476562 53.925781 C 46.472656 53.898438 46.441406 53.878906 46.414062 53.886719 C 43.128906 54.625 41.945312 55.519531 41.523438 56.125 L 41.523438 55.734375 C 41.792969 55.203125 42.699219 54.265625 45.78125 53.574219 C 45.808594 53.566406 45.828125 53.539062 45.820312 53.507812 C 45.816406 53.476562 45.785156 53.457031 45.753906 53.464844 C 42.953125 54.097656 41.910156 54.925781 41.523438 55.496094 L 41.523438 55.242188 C 41.816406 54.683594 42.84375 53.691406 46.4375 52.882812 C 46.464844 52.875 46.484375 52.84375 46.476562 52.816406 C 46.472656 52.785156 46.441406 52.765625 46.414062 52.773438 C 43.128906 53.511719 41.945312 54.40625 41.523438 55.011719 L 41.523438 54.621094 C 41.792969 54.09375 42.699219 53.15625 45.78125 52.460938 C 45.808594 52.457031 45.828125 52.425781 45.820312 52.394531 C 45.816406 52.367188 45.785156 52.347656 45.753906 52.355469 C 42.953125 52.984375 41.910156 53.816406 41.523438 54.386719 L 41.523438 54.132812 C 41.816406 53.570312 42.84375 52.578125 46.4375 51.769531 C 46.464844 51.761719 46.484375 51.734375 46.476562 51.703125 C 46.472656 51.675781 46.441406 51.65625 46.414062 51.660156 C 43.128906 52.402344 41.945312 53.292969 41.523438 53.898438 L 41.523438 53.507812 C 41.792969 52.980469 42.699219 52.042969 45.78125 51.351562 C 45.808594 51.34375 45.828125 51.3125 45.820312 51.285156 C 45.816406 51.253906 45.785156 51.234375 45.753906 51.242188 C 42.953125 51.871094 41.910156 52.703125 41.523438 53.273438 L 41.523438 53.019531 C 41.816406 52.460938 42.84375 51.464844 46.4375 50.660156 C 46.464844 50.652344 46.484375 50.621094 46.476562 50.59375 C 46.472656 50.5625 46.441406 50.542969 46.414062 50.550781 C 43.128906 51.289062 41.945312 52.183594 41.523438 52.789062 L 41.523438 52.398438 C 41.792969 51.871094 42.699219 50.929688 45.78125 50.238281 C 45.808594 50.230469 45.828125 50.203125 45.820312 50.171875 C 45.816406 50.140625 45.785156 50.125 45.753906 50.128906 C 42.953125 50.761719 41.910156 51.589844 41.523438 52.160156 L 41.523438 51.90625 C 41.816406 51.347656 42.84375 50.355469 46.4375 49.546875 C 46.464844 49.539062 46.484375 49.511719 46.476562 49.480469 C 46.472656 49.449219 46.441406 49.429688 46.414062 49.4375 C 43.128906 50.175781 41.945312 51.070312 41.523438 51.675781 L 41.523438 51.285156 C 41.792969 50.757812 42.699219 49.820312 45.78125 49.125 C 45.808594 49.121094 45.828125 49.089844 45.820312 49.058594 C 45.816406 49.03125 45.785156 49.011719 45.753906 49.019531 C 42.953125 49.648438 41.910156 50.480469 41.523438 51.050781 L 41.523438 50.796875 C 41.816406 50.238281 42.84375 49.242188 46.4375 48.433594 C 46.464844 48.429688 46.484375 48.398438 46.476562 48.367188 C 46.472656 48.339844 46.441406 48.320312 46.414062 48.328125 C 43.128906 49.0625 41.945312 49.957031 41.527344 50.5625 C 41.5625 47.9375 53.058594 46.035156 68.890625 46.035156 C 76.09375 46.035156 82.808594 46.453125 87.792969 47.207031 C 93.167969 48.027344 96.164062 49.199219 96.25 50.515625 C 95.804688 49.914062 94.597656 49.046875 91.398438 48.328125 C 91.371094 48.320312 91.339844 48.339844 91.332031 48.367188 C 91.324219 48.398438 91.34375 48.429688 91.375 48.433594 C 94.847656 49.214844 95.925781 50.171875 96.257812 50.738281 Z M 90.632812 58 C 90.988281 57.945312 91.363281 57.914062 91.742188 57.914062 C 92.328125 57.914062 92.886719 57.980469 93.359375 58.109375 L 93.359375 58.785156 C 93.027344 58.609375 92.484375 58.535156 91.964844 58.535156 C 91.472656 58.535156 90.960938 58.601562 90.625 58.757812 C 90.660156 58.363281 90.65625 58.136719 90.632812 58 Z M 94.738281 59.230469 C 94.738281 59.429688 94.609375 59.605469 94.351562 59.753906 C 93.542969 60.222656 91.765625 60.222656 90.957031 59.753906 C 90.703125 59.609375 90.574219 59.433594 90.570312 59.234375 C 90.570312 59.226562 90.570312 59.222656 90.574219 59.214844 C 90.609375 59.0625 91.128906 58.863281 91.964844 58.863281 C 92.828125 58.863281 93.359375 59.078125 93.359375 59.230469 C 93.359375 59.320312 93.429688 59.394531 93.519531 59.394531 C 93.609375 59.394531 93.683594 59.320312 93.683594 59.230469 L 93.6875 58.207031 C 93.742188 58.226562 93.796875 58.25 93.851562 58.273438 C 94.238281 58.433594 94.699219 58.71875 94.734375 59.167969 L 94.738281 59.207031 C 94.738281 59.214844 94.738281 59.222656 94.738281 59.230469 Z M 88.839844 56.03125 C 91.472656 56.480469 93.445312 57.023438 94.695312 57.628906 L 94.714844 58.441406 C 94.453125 58.179688 94.0625 57.980469 93.601562 57.839844 C 93.582031 57.828125 93.558594 57.824219 93.535156 57.820312 C 92.988281 57.664062 92.355469 57.589844 91.742188 57.589844 C 90.617188 57.589844 89.4375 57.839844 88.832031 58.378906 C 88.953125 57.011719 88.917969 56.355469 88.839844 56.03125 Z M 92.5 61.113281 C 90.632812 61.113281 88.75 60.46875 88.742188 59.234375 C 88.75 59.175781 88.753906 59.121094 88.761719 59.066406 C 88.875 58.578125 89.507812 58.238281 90.316406 58.0625 C 90.339844 58.238281 90.304688 58.714844 90.253906 59.136719 C 90.253906 59.140625 90.253906 59.148438 90.25 59.152344 C 90.25 59.171875 90.246094 59.191406 90.246094 59.207031 C 90.242188 59.210938 90.246094 59.214844 90.246094 59.21875 C 90.242188 59.222656 90.242188 59.226562 90.242188 59.230469 C 90.242188 59.453125 90.339844 59.777344 90.792969 60.039062 C 91.714844 60.570312 93.59375 60.570312 94.515625 60.039062 C 94.964844 59.777344 95.0625 59.460938 95.066406 59.238281 C 95.070312 59.226562 95.070312 59.210938 95.070312 59.199219 L 95.03125 57.800781 C 95.839844 58.25 96.257812 58.730469 96.257812 59.230469 C 96.257812 60.464844 94.367188 61.113281 92.5 61.113281 Z M 47.15625 58.757812 C 46.820312 58.601562 46.308594 58.535156 45.816406 58.535156 C 45.296875 58.535156 44.753906 58.609375 44.421875 58.785156 L 44.421875 58.109375 C 44.90625 57.980469 45.476562 57.914062 46.039062 57.914062 C 46.425781 57.914062 46.800781 57.945312 47.144531 58 C 47.125 58.136719 47.121094 58.363281 47.15625 58.757812 Z M 43.042969 59.203125 C 43.058594 58.757812 43.480469 58.421875 44.09375 58.207031 L 44.097656 59.230469 C 44.097656 59.320312 44.167969 59.394531 44.257812 59.394531 C 44.351562 59.394531 44.421875 59.320312 44.421875 59.230469 C 44.421875 59.078125 44.953125 58.863281 45.816406 58.863281 C 46.203125 58.863281 46.578125 58.910156 46.839844 58.988281 C 47.085938 59.0625 47.1875 59.148438 47.207031 59.210938 C 47.207031 59.21875 47.210938 59.226562 47.210938 59.234375 C 47.203125 59.800781 46.132812 60.109375 45.125 60.109375 C 44.117188 60.109375 43.042969 59.800781 43.042969 59.230469 C 43.042969 59.226562 43.042969 59.21875 43.042969 59.210938 Z M 48.949219 58.378906 C 48.34375 57.839844 47.160156 57.589844 46.039062 57.589844 C 45.425781 57.589844 44.792969 57.664062 44.246094 57.820312 C 44.222656 57.824219 44.199219 57.828125 44.179688 57.839844 C 43.695312 57.988281 43.285156 58.203125 43.019531 58.484375 L 42.996094 57.671875 C 44.257812 57.039062 46.289062 56.484375 48.941406 56.027344 C 48.863281 56.347656 48.824219 57.003906 48.949219 58.378906 Z M 45.28125 61.113281 C 43.414062 61.113281 41.523438 60.464844 41.523438 59.230469 C 41.523438 58.742188 41.921875 58.277344 42.667969 57.847656 L 42.710938 59.222656 C 42.710938 59.234375 42.710938 59.25 42.714844 59.261719 C 42.726562 59.53125 42.878906 59.898438 43.519531 60.160156 C 43.945312 60.335938 44.515625 60.433594 45.125 60.433594 C 46.777344 60.433594 47.523438 59.839844 47.535156 59.246094 C 47.535156 59.242188 47.535156 59.242188 47.535156 59.238281 C 47.535156 59.234375 47.539062 59.230469 47.539062 59.230469 C 47.539062 59.226562 47.535156 59.222656 47.535156 59.21875 C 47.535156 59.214844 47.535156 59.210938 47.535156 59.207031 C 47.535156 59.191406 47.53125 59.171875 47.527344 59.152344 C 47.527344 59.148438 47.527344 59.140625 47.527344 59.136719 C 47.476562 58.714844 47.441406 58.238281 47.464844 58.0625 C 47.714844 58.117188 47.945312 58.1875 48.152344 58.273438 C 48.511719 58.421875 48.929688 58.675781 49.019531 59.070312 C 49.027344 59.125 49.03125 59.179688 49.039062 59.234375 C 49.03125 60.46875 47.144531 61.113281 45.28125 61.113281 Z M 87.839844 46.886719 C 82.839844 46.125 76.109375 45.707031 68.890625 45.707031 C 61.671875 45.707031 54.941406 46.125 49.941406 46.886719 C 44.140625 47.765625 41.199219 49.007812 41.199219 50.574219 L 41.199219 59.230469 C 41.199219 59.929688 41.65625 60.511719 42.519531 60.914062 C 43.25 61.253906 44.230469 61.441406 45.28125 61.441406 C 47.242188 61.441406 49.351562 60.753906 49.367188 59.246094 C 49.367188 59.242188 49.367188 59.242188 49.367188 59.242188 C 49.367188 59.238281 49.367188 59.234375 49.367188 59.230469 C 49.367188 59.152344 49.359375 59.082031 49.34375 59.011719 C 49.199219 57.691406 49.136719 56.230469 49.277344 56.007812 C 49.300781 55.996094 49.316406 55.980469 49.332031 55.960938 C 54.1875 55.160156 61 54.6875 68.890625 54.6875 C 76.09375 54.6875 82.808594 55.105469 87.792969 55.863281 C 88.015625 55.898438 88.238281 55.933594 88.453125 55.96875 C 88.46875 55.984375 88.484375 56 88.503906 56.007812 C 88.644531 56.230469 88.582031 57.691406 88.4375 59.011719 C 88.421875 59.082031 88.414062 59.152344 88.414062 59.230469 C 88.414062 59.929688 88.871094 60.511719 89.734375 60.914062 C 90.46875 61.253906 91.449219 61.441406 92.5 61.441406 C 94.464844 61.441406 96.582031 60.75 96.582031 59.230469 L 96.582031 50.574219 C 96.582031 49.007812 93.640625 47.765625 87.839844 46.886719 " fill-opacity="1" fill-rule="nonzero"/></g><g clip-path="url(#9a17ef901c)"><path fill="#fcb036" d="M 55.980469 59.191406 C 55.980469 59.191406 55.980469 59.191406 55.984375 59.191406 C 55.984375 59.191406 55.988281 59.191406 55.988281 59.191406 C 56.023438 59.292969 56.308594 60.050781 56.550781 60.316406 C 56.792969 60.578125 57.457031 60.839844 57.546875 60.875 C 57.546875 60.875 57.546875 60.875 57.546875 60.878906 C 57.546875 60.878906 57.546875 60.882812 57.546875 60.882812 C 57.457031 60.917969 56.777344 61.1875 56.535156 61.449219 C 56.292969 61.710938 56.023438 62.457031 55.988281 62.5625 C 55.988281 62.5625 55.984375 62.566406 55.984375 62.566406 C 55.980469 62.566406 55.980469 62.5625 55.980469 62.5625 C 55.949219 62.457031 55.730469 61.726562 55.488281 61.464844 C 55.242188 61.199219 54.511719 60.914062 54.421875 60.882812 C 54.421875 60.878906 54.417969 60.878906 54.417969 60.878906 C 54.417969 60.875 54.421875 60.875 54.421875 60.875 C 54.507812 60.835938 55.203125 60.511719 55.449219 60.25 C 55.691406 59.988281 55.945312 59.289062 55.980469 59.191406 Z M 55.980469 59.191406 " fill-opacity="1" fill-rule="evenodd"/></g><g fill="#d42c00" fill-opacity="1"><g transform="translate(53.074609, 53.686007)"><g><path d="M 1.289062 -1.085938 L 1.03125 -4.183594 L 2.902344 -1.339844 C 3.4375 -0.535156 4.125 -0.324219 4.679688 -0.375 L 6.253906 -0.5 L 6.164062 -0.609375 C 5.992188 -0.828125 5.851562 -1.164062 5.828125 -1.449219 L 5.496094 -5.496094 C 5.472656 -5.78125 5.53125 -6.144531 5.648438 -6.398438 L 5.738281 -6.585938 C 5.660156 -6.574219 5.542969 -6.539062 5.394531 -6.527344 C 5.160156 -6.507812 4.863281 -6.550781 4.621094 -6.847656 C 4.515625 -6.769531 4.398438 -6.558594 4.421875 -6.300781 C 4.449219 -5.925781 4.628906 -5.664062 4.882812 -5.519531 L 5.179688 -1.746094 C 4.792969 -2.003906 4.242188 -2.890625 3.820312 -3.585938 C 3.238281 -4.566406 2.71875 -5.371094 2.167969 -6.371094 C 1.917969 -6.253906 1.621094 -6.179688 1.324219 -6.15625 C 0.816406 -6.113281 0.328125 -6.222656 0.0703125 -6.480469 C -0.0351562 -6.402344 -0.148438 -6.195312 -0.128906 -5.933594 C -0.0976562 -5.5625 0.078125 -5.296875 0.335938 -5.152344 L 0.65625 -1.035156 C 0.679688 -0.75 0.605469 -0.398438 0.464844 -0.152344 L 0.390625 -0.015625 L 1.714844 -0.121094 L 1.617188 -0.242188 C 1.441406 -0.464844 1.3125 -0.800781 1.289062 -1.085938 Z M 1.289062 -1.085938 "/></g></g></g><g fill="#d42c00" fill-opacity="1"><g transform="translate(59.602925, 53.166574)"><g><path d="M 5.320312 -1.976562 C 5.273438 -3.097656 5.222656 -4.136719 5.179688 -5.253906 C 5.167969 -5.539062 5.238281 -5.898438 5.367188 -6.148438 L 5.457031 -6.335938 C 5.207031 -6.289062 4.800781 -6.230469 4.367188 -6.210938 C 3.761719 -6.1875 3.125 -6.25 2.859375 -6.574219 C 2.75 -6.503906 2.636719 -6.296875 2.648438 -6.039062 C 2.660156 -5.664062 2.820312 -5.394531 3.070312 -5.238281 L 3.207031 -1.902344 C 3.242188 -0.957031 3.191406 -0.527344 2.59375 -0.480469 C 1.652344 -0.398438 1.46875 -1.699219 2.152344 -2.144531 C 2.011719 -2.433594 1.648438 -2.585938 1.277344 -2.570312 C 0.746094 -2.546875 0.199219 -2.195312 0.210938 -1.441406 C 0.226562 -0.660156 1.089844 0.121094 2.78125 0.0351562 C 4.554688 -0.0546875 5.367188 -0.835938 5.320312 -1.976562 Z M 5.320312 -1.976562 "/></g></g></g><g fill="#d42c00" fill-opacity="1"><g transform="translate(65.547955, 52.917493)"><g><path d="M 1.316406 -0.957031 L 1.535156 -1.613281 L 3.640625 -1.617188 L 3.859375 -0.984375 C 3.945312 -0.699219 3.964844 -0.351562 3.894531 -0.117188 L 3.859375 0.015625 L 6.679688 0.0117188 L 6.542969 -0.117188 C 6.296875 -0.351562 6.074219 -0.699219 5.976562 -0.984375 L 4.59375 -5.097656 C 4.5 -5.382812 4.464844 -5.738281 4.515625 -5.980469 L 4.550781 -6.164062 C 3.96875 -6.085938 2.460938 -5.9375 1.835938 -6.507812 C 1.746094 -6.4375 1.6875 -6.238281 1.78125 -5.980469 C 1.859375 -5.78125 1.964844 -5.605469 2.09375 -5.46875 L 0.589844 -0.953125 C 0.492188 -0.6875 0.3125 -0.355469 0.128906 -0.140625 L 0 0.015625 L 1.421875 0.015625 L 1.378906 -0.078125 C 1.25 -0.339844 1.222656 -0.6875 1.316406 -0.957031 Z M 2.597656 -4.808594 L 3.476562 -2.136719 L 1.707031 -2.136719 Z M 2.597656 -4.808594 "/></g></g></g><g fill="#d42c00" fill-opacity="1"><g transform="translate(72.144209, 52.909311)"><g><path d="M 0.855469 -6.425781 C 0.738281 -6.359375 0.609375 -6.164062 0.597656 -5.90625 C 0.585938 -5.53125 0.71875 -5.25 0.957031 -5.074219 L 0.777344 -0.949219 C 0.765625 -0.664062 0.648438 -0.320312 0.480469 -0.09375 L 0.390625 0.0351562 L 3.589844 0.164062 C 5.433594 0.242188 6.574219 -0.265625 6.625 -1.472656 C 6.664062 -2.441406 5.941406 -3.019531 4.683594 -3.246094 C 5.488281 -3.402344 5.957031 -3.800781 5.984375 -4.476562 C 6.039062 -5.777344 4.378906 -5.941406 3.433594 -5.980469 C 3.171875 -5.957031 2.746094 -5.929688 2.3125 -5.949219 C 1.707031 -5.972656 1.085938 -6.085938 0.855469 -6.425781 Z M 3.195312 -5.667969 C 3.828125 -5.640625 4.179688 -5.324219 4.148438 -4.550781 C 4.113281 -3.765625 3.738281 -3.484375 3.097656 -3.511719 L 3 -3.515625 L 3.058594 -4.917969 C 3.078125 -5.535156 3.125 -5.621094 3.195312 -5.667969 Z M 2.886719 -0.515625 L 2.980469 -3.039062 L 3.269531 -3.027344 C 4.066406 -2.992188 4.503906 -2.671875 4.460938 -1.675781 C 4.421875 -0.667969 3.953125 -0.304688 3.15625 -0.339844 L 2.898438 -0.347656 C 2.890625 -0.394531 2.882812 -0.445312 2.886719 -0.515625 Z M 2.886719 -0.515625 "/></g></g></g><g fill="#d42c00" fill-opacity="1"><g transform="translate(78.833166, 53.189862)"><g><path d="M 5.804688 0.464844 C 5.632812 0 5.722656 -1.089844 5.992188 -1.433594 C 5.226562 -1.644531 4.683594 -0.949219 4.589844 -0.148438 L 2.777344 -0.304688 L 5.914062 -4.617188 C 6.335938 -5.199219 6.136719 -5.636719 5.417969 -5.695312 L 1.113281 -6.046875 C 1.28125 -5.570312 1.191406 -4.480469 0.921875 -4.136719 C 1.6875 -3.9375 2.222656 -4.632812 2.324219 -5.425781 L 3.84375 -5.300781 L 0.550781 -0.972656 C 0.109375 -0.398438 0.300781 0.0234375 1.019531 0.0820312 L 2.414062 0.195312 L 2.414062 0.1875 Z M 5.804688 0.464844 "/></g></g></g><g fill="#ffffff" fill-opacity="1"><g transform="translate(57.994344, 61.0051)"><g><path d="M 1.5625 -0.515625 L 1.09375 -0.296875 L 0.859375 0.328125 L 0.296875 0.109375 L 1.25 -2.359375 L 1.8125 -2.140625 L 1.359375 -0.984375 L 2.90625 -1.71875 L 3.53125 -1.484375 L 2.09375 -0.78125 L 2.640625 1.015625 L 1.96875 0.75 Z M 1.5625 -0.515625 "/></g></g></g><g fill="#ffffff" fill-opacity="1"><g transform="translate(61.154817, 62.14573)"><g><path d="M 0.984375 -2.46875 L 1.578125 -2.3125 L 0.890625 0.234375 L 0.296875 0.078125 Z M 0.984375 -2.46875 "/></g></g></g><g fill="#ffffff" fill-opacity="1"><g transform="translate(62.894803, 62.615644)"><g><path d="M 1.203125 -1.96875 L 0.375 -2.109375 L 0.46875 -2.609375 L 2.734375 -2.21875 L 2.640625 -1.71875 L 1.8125 -1.859375 L 1.453125 0.25 L 0.84375 0.140625 Z M 1.203125 -1.96875 "/></g></g></g><g fill="#ffffff" fill-opacity="1"><g transform="translate(65.784023, 63.091152)"><g><path d="M 1.578125 0.125 C 1.304688 0.113281 1.0625 0.046875 0.84375 -0.078125 C 0.632812 -0.210938 0.472656 -0.382812 0.359375 -0.59375 C 0.242188 -0.8125 0.191406 -1.050781 0.203125 -1.3125 C 0.210938 -1.570312 0.285156 -1.800781 0.421875 -2 C 0.554688 -2.195312 0.734375 -2.347656 0.953125 -2.453125 C 1.179688 -2.566406 1.429688 -2.617188 1.703125 -2.609375 C 1.929688 -2.597656 2.132812 -2.546875 2.3125 -2.453125 C 2.488281 -2.367188 2.640625 -2.25 2.765625 -2.09375 L 2.359375 -1.75 C 2.179688 -1.957031 1.960938 -2.066406 1.703125 -2.078125 C 1.535156 -2.085938 1.390625 -2.0625 1.265625 -2 C 1.140625 -1.9375 1.035156 -1.84375 0.953125 -1.71875 C 0.878906 -1.59375 0.835938 -1.445312 0.828125 -1.28125 C 0.816406 -1.125 0.84375 -0.976562 0.90625 -0.84375 C 0.976562 -0.707031 1.070312 -0.597656 1.1875 -0.515625 C 1.3125 -0.441406 1.457031 -0.398438 1.625 -0.390625 C 1.882812 -0.378906 2.109375 -0.472656 2.296875 -0.671875 L 2.671875 -0.296875 C 2.546875 -0.160156 2.390625 -0.0546875 2.203125 0.015625 C 2.015625 0.0976562 1.804688 0.132812 1.578125 0.125 Z M 1.578125 0.125 "/></g></g></g><g fill="#ffffff" fill-opacity="1"><g transform="translate(69.159162, 63.215822)"><g><path d="M 2.46875 -2.875 L 2.71875 -0.25 L 2.109375 -0.203125 L 2.015625 -1.28125 L 0.828125 -1.15625 L 0.921875 -0.078125 L 0.3125 -0.03125 L 0.0625 -2.65625 L 0.671875 -2.703125 L 0.78125 -1.671875 L 1.96875 -1.796875 L 1.859375 -2.828125 Z M 2.46875 -2.875 "/></g></g></g><g fill="#ffffff" fill-opacity="1"><g transform="translate(72.790131, 62.82024)"><g><path d="M 2.1875 -1 L 2.296875 -0.53125 L 0.296875 -0.078125 L -0.296875 -2.65625 L 1.640625 -3.09375 L 1.75 -2.59375 L 0.40625 -2.28125 L 0.53125 -1.734375 L 1.71875 -2.015625 L 1.828125 -1.546875 L 0.640625 -1.265625 L 0.78125 -0.671875 Z M 2.1875 -1 "/></g></g></g><g fill="#ffffff" fill-opacity="1"><g transform="translate(75.843149, 62.08999)"><g><path d="M 1.625 -3.4375 L 2.5625 -0.96875 L 2.09375 -0.796875 L 0.296875 -1.8125 L 0.859375 -0.328125 L 0.296875 -0.109375 L -0.640625 -2.578125 L -0.171875 -2.75 L 1.625 -1.71875 L 1.046875 -3.21875 Z M 1.625 -3.4375 "/></g></g></g><g fill="#ffffff" fill-opacity="1"><g transform="translate(62.747792, 66.257018)"><g><path d="M 0.53125 0.1875 C 0.4375 0.15625 0.347656 0.113281 0.265625 0.0625 C 0.191406 0.0078125 0.128906 -0.046875 0.078125 -0.109375 L 0.265625 -0.28125 C 0.285156 -0.21875 0.328125 -0.164062 0.390625 -0.125 C 0.460938 -0.0820312 0.53125 -0.0507812 0.59375 -0.03125 C 0.675781 -0.0078125 0.738281 0 0.78125 0 C 0.832031 -0.0078125 0.867188 -0.0351562 0.890625 -0.078125 C 0.898438 -0.109375 0.894531 -0.140625 0.875 -0.171875 C 0.851562 -0.203125 0.820312 -0.226562 0.78125 -0.25 C 0.75 -0.269531 0.707031 -0.296875 0.65625 -0.328125 C 0.582031 -0.367188 0.515625 -0.410156 0.453125 -0.453125 C 0.398438 -0.492188 0.363281 -0.546875 0.34375 -0.609375 C 0.320312 -0.671875 0.320312 -0.738281 0.34375 -0.8125 C 0.363281 -0.882812 0.398438 -0.941406 0.453125 -0.984375 C 0.503906 -1.023438 0.578125 -1.050781 0.671875 -1.0625 C 0.765625 -1.082031 0.863281 -1.070312 0.96875 -1.03125 C 1.039062 -1.007812 1.109375 -0.976562 1.171875 -0.9375 C 1.242188 -0.894531 1.304688 -0.847656 1.359375 -0.796875 L 1.1875 -0.625 C 1.101562 -0.71875 1.003906 -0.78125 0.890625 -0.8125 C 0.816406 -0.84375 0.753906 -0.847656 0.703125 -0.828125 C 0.660156 -0.816406 0.632812 -0.789062 0.625 -0.75 C 0.601562 -0.707031 0.613281 -0.671875 0.65625 -0.640625 C 0.695312 -0.609375 0.757812 -0.570312 0.84375 -0.53125 C 0.925781 -0.46875 0.988281 -0.414062 1.03125 -0.375 C 1.082031 -0.332031 1.125 -0.285156 1.15625 -0.234375 C 1.1875 -0.179688 1.1875 -0.113281 1.15625 -0.03125 C 1.132812 0.0390625 1.09375 0.0976562 1.03125 0.140625 C 0.976562 0.191406 0.910156 0.21875 0.828125 0.21875 C 0.742188 0.226562 0.644531 0.21875 0.53125 0.1875 Z M 0.53125 0.1875 "/></g></g></g><g fill="#ffffff" fill-opacity="1"><g transform="translate(64.088894, 66.665413)"><g><path d="M 0.46875 -1.203125 L 0.734375 -1.125 L 0.421875 0.109375 L 0.15625 0.03125 Z M 0.46875 -1.203125 "/></g></g></g><g fill="#ffffff" fill-opacity="1"><g transform="translate(64.911059, 66.878712)"><g><path d="M 1.5 -1.015625 L 1.28125 0.234375 L 1.046875 0.1875 L 0.578125 -0.671875 L 0.4375 0.078125 L 0.15625 0.03125 L 0.375 -1.21875 L 0.609375 -1.1875 L 1.09375 -0.296875 L 1.21875 -1.0625 Z M 1.5 -1.015625 "/></g></g></g><g fill="#ffffff" fill-opacity="1"><g transform="translate(66.609333, 67.169274)"><g><path d="M 0.75 0.078125 C 0.625 0.0664062 0.507812 0.03125 0.40625 -0.03125 C 0.3125 -0.09375 0.238281 -0.175781 0.1875 -0.28125 C 0.132812 -0.382812 0.113281 -0.5 0.125 -0.625 C 0.132812 -0.75 0.171875 -0.859375 0.234375 -0.953125 C 0.304688 -1.046875 0.394531 -1.113281 0.5 -1.15625 C 0.613281 -1.207031 0.734375 -1.226562 0.859375 -1.21875 C 0.972656 -1.207031 1.070312 -1.175781 1.15625 -1.125 C 1.25 -1.082031 1.316406 -1.023438 1.359375 -0.953125 L 1.15625 -0.796875 C 1.082031 -0.898438 0.984375 -0.957031 0.859375 -0.96875 C 0.785156 -0.96875 0.710938 -0.953125 0.640625 -0.921875 C 0.578125 -0.890625 0.523438 -0.847656 0.484375 -0.796875 C 0.441406 -0.742188 0.421875 -0.675781 0.421875 -0.59375 C 0.410156 -0.519531 0.421875 -0.445312 0.453125 -0.375 C 0.484375 -0.3125 0.523438 -0.257812 0.578125 -0.21875 C 0.640625 -0.175781 0.707031 -0.15625 0.78125 -0.15625 C 0.90625 -0.144531 1.015625 -0.1875 1.109375 -0.28125 L 1.28125 -0.09375 C 1.226562 -0.0195312 1.15625 0.0234375 1.0625 0.046875 C 0.96875 0.078125 0.863281 0.0859375 0.75 0.078125 Z M 0.75 0.078125 "/></g></g></g><g fill="#ffffff" fill-opacity="1"><g transform="translate(68.188541, 67.297663)"><g><path d="M 1.125 -0.21875 L 1.125 0.015625 L 0.15625 0 L 0.171875 -1.265625 L 1.109375 -1.25 L 1.09375 -1.015625 L 0.4375 -1.03125 L 0.4375 -0.75 L 1.015625 -0.75 L 1.015625 -0.53125 L 0.4375 -0.53125 L 0.4375 -0.234375 Z M 1.125 -0.21875 "/></g></g></g><g fill="#ffffff" fill-opacity="1"><g transform="translate(69.649428, 67.290679)"><g/></g></g><g fill="#ffffff" fill-opacity="1"><g transform="translate(70.409694, 67.251707)"><g><path d="M 0.984375 -0.34375 L 1.015625 -0.109375 L 0.0625 0 L 0.046875 -0.1875 L 0.484375 -0.703125 C 0.523438 -0.753906 0.550781 -0.800781 0.5625 -0.84375 C 0.570312 -0.882812 0.578125 -0.921875 0.578125 -0.953125 C 0.566406 -1.003906 0.546875 -1.039062 0.515625 -1.0625 C 0.484375 -1.082031 0.429688 -1.085938 0.359375 -1.078125 C 0.304688 -1.078125 0.257812 -1.0625 0.21875 -1.03125 C 0.175781 -1.007812 0.144531 -0.976562 0.125 -0.9375 L -0.109375 -1.046875 C -0.0664062 -1.128906 -0.0078125 -1.191406 0.0625 -1.234375 C 0.144531 -1.285156 0.242188 -1.316406 0.359375 -1.328125 C 0.453125 -1.335938 0.535156 -1.332031 0.609375 -1.3125 C 0.691406 -1.289062 0.753906 -1.253906 0.796875 -1.203125 C 0.835938 -1.148438 0.863281 -1.085938 0.875 -1.015625 C 0.875 -0.953125 0.863281 -0.882812 0.84375 -0.8125 C 0.820312 -0.75 0.773438 -0.675781 0.703125 -0.59375 L 0.4375 -0.28125 Z M 0.984375 -0.34375 "/></g></g></g><g fill="#ffffff" fill-opacity="1"><g transform="translate(71.725041, 67.102526)"><g><path d="M 0.59375 -0.09375 C 0.5 -0.0703125 0.40625 -0.078125 0.3125 -0.109375 C 0.21875 -0.148438 0.140625 -0.210938 0.078125 -0.296875 C 0.015625 -0.390625 -0.0234375 -0.5 -0.046875 -0.625 C -0.078125 -0.757812 -0.078125 -0.878906 -0.046875 -0.984375 C -0.015625 -1.085938 0.0351562 -1.171875 0.109375 -1.234375 C 0.179688 -1.304688 0.265625 -1.351562 0.359375 -1.375 C 0.460938 -1.394531 0.5625 -1.382812 0.65625 -1.34375 C 0.75 -1.3125 0.820312 -1.25 0.875 -1.15625 C 0.9375 -1.0625 0.984375 -0.945312 1.015625 -0.8125 C 1.035156 -0.6875 1.03125 -0.570312 1 -0.46875 C 0.976562 -0.375 0.929688 -0.289062 0.859375 -0.21875 C 0.785156 -0.15625 0.695312 -0.113281 0.59375 -0.09375 Z M 0.546875 -0.328125 C 0.617188 -0.335938 0.671875 -0.378906 0.703125 -0.453125 C 0.742188 -0.535156 0.753906 -0.640625 0.734375 -0.765625 C 0.703125 -0.898438 0.65625 -0.992188 0.59375 -1.046875 C 0.539062 -1.109375 0.476562 -1.132812 0.40625 -1.125 C 0.332031 -1.113281 0.28125 -1.066406 0.25 -0.984375 C 0.21875 -0.910156 0.21875 -0.804688 0.25 -0.671875 C 0.269531 -0.546875 0.304688 -0.453125 0.359375 -0.390625 C 0.410156 -0.335938 0.472656 -0.316406 0.546875 -0.328125 Z M 0.546875 -0.328125 "/></g></g></g><g fill="#ffffff" fill-opacity="1"><g transform="translate(73.181582, 66.82006)"><g><path d="M 0.921875 -0.5 L 0.984375 -0.265625 L 0.0625 -0.015625 L 0.015625 -0.203125 L 0.375 -0.765625 C 0.40625 -0.816406 0.421875 -0.863281 0.421875 -0.90625 C 0.429688 -0.945312 0.4375 -0.984375 0.4375 -1.015625 C 0.414062 -1.066406 0.382812 -1.097656 0.34375 -1.109375 C 0.3125 -1.128906 0.257812 -1.132812 0.1875 -1.125 C 0.132812 -1.101562 0.0859375 -1.078125 0.046875 -1.046875 C 0.015625 -1.015625 -0.00390625 -0.976562 -0.015625 -0.9375 L -0.265625 -1.015625 C -0.234375 -1.097656 -0.179688 -1.164062 -0.109375 -1.21875 C -0.046875 -1.28125 0.0390625 -1.328125 0.15625 -1.359375 C 0.25 -1.378906 0.332031 -1.382812 0.40625 -1.375 C 0.488281 -1.363281 0.550781 -1.335938 0.59375 -1.296875 C 0.644531 -1.253906 0.679688 -1.195312 0.703125 -1.125 C 0.722656 -1.0625 0.722656 -0.992188 0.703125 -0.921875 C 0.691406 -0.859375 0.660156 -0.785156 0.609375 -0.703125 L 0.390625 -0.359375 Z M 0.921875 -0.5 "/></g></g></g><g fill="#ffffff" fill-opacity="1"><g transform="translate(74.450548, 66.471223)"><g><path d="M 0.140625 -1.375 L 0.53125 -0.171875 L 0.25 -0.078125 L -0.078125 -1.0625 L -0.3125 -0.984375 L -0.375 -1.203125 Z M 0.140625 -1.375 "/></g></g></g><g clip-path="url(#74cd021577)"><path fill="#fcb036" d="M 80.664062 59.191406 C 80.664062 59.191406 80.667969 59.191406 80.667969 59.191406 C 80.667969 59.191406 80.671875 59.191406 80.671875 59.191406 C 80.710938 59.292969 80.992188 60.050781 81.234375 60.316406 C 81.476562 60.578125 82.140625 60.839844 82.230469 60.875 C 82.230469 60.875 82.230469 60.875 82.230469 60.878906 C 82.230469 60.878906 82.230469 60.882812 82.230469 60.882812 C 82.140625 60.917969 81.464844 61.1875 81.21875 61.449219 C 80.976562 61.710938 80.710938 62.457031 80.671875 62.5625 C 80.671875 62.5625 80.671875 62.566406 80.667969 62.566406 C 80.667969 62.566406 80.664062 62.5625 80.664062 62.5625 C 80.632812 62.457031 80.414062 61.726562 80.171875 61.464844 C 79.925781 61.199219 79.195312 60.914062 79.105469 60.882812 C 79.105469 60.878906 79.105469 60.878906 79.101562 60.878906 C 79.101562 60.875 79.105469 60.875 79.105469 60.875 C 79.191406 60.835938 79.890625 60.511719 80.132812 60.25 C 80.375 59.988281 80.628906 59.289062 80.664062 59.191406 Z M 80.664062 59.191406 " fill-opacity="1" fill-rule="evenodd"/></g></svg>