<svg xmlns="http://www.w3.org/2000/svg" xmlns:xlink="http://www.w3.org/1999/xlink" width="180" zoomAndPan="magnify" viewBox="0 0 135 78.749999" height="105" preserveAspectRatio="xMidYMid meet" version="1.0"><defs><g/><clipPath id="5579d92e2d"><path d="M 42 29 L 87 29 L 87 76 L 42 76 Z M 42 29 " clip-rule="nonzero"/></clipPath><clipPath id="dcc0affe10"><path d="M 78.964844 29.519531 L 86.816406 36.96875 L 47.425781 78.464844 L 39.578125 71.011719 Z M 78.964844 29.519531 " clip-rule="nonzero"/></clipPath><clipPath id="e7e58e686f"><path d="M 78.964844 29.519531 L 86.816406 36.96875 L 47.425781 78.464844 L 39.578125 71.011719 Z M 78.964844 29.519531 " clip-rule="nonzero"/></clipPath><clipPath id="6f0945a1dc"><path d="M 58 35 L 97 35 L 97 76 L 58 76 Z M 58 35 " clip-rule="nonzero"/></clipPath><clipPath id="99c21e4966"><path d="M 53.828125 42.730469 L 66.160156 31.015625 L 101.304688 68.011719 L 88.976562 79.726562 Z M 53.828125 42.730469 " clip-rule="nonzero"/></clipPath><clipPath id="8ca2cc8545"><path d="M 53.828125 42.730469 L 66.160156 31.015625 L 101.304688 68.011719 L 88.976562 79.726562 Z M 53.828125 42.730469 " clip-rule="nonzero"/></clipPath><clipPath id="0e8b253338"><path d="M 28 2 L 66 2 L 66 43 L 28 43 Z M 28 2 " clip-rule="nonzero"/></clipPath><clipPath id="04e3e57b39"><path d="M 23.351562 9.691406 L 35.683594 -2.023438 L 70.832031 34.96875 L 58.5 46.683594 Z M 23.351562 9.691406 " clip-rule="nonzero"/></clipPath><clipPath id="c897cab7b7"><path d="M 23.351562 9.691406 L 35.683594 -2.023438 L 70.832031 34.96875 L 58.5 46.683594 Z M 23.351562 9.691406 " clip-rule="nonzero"/></clipPath><clipPath id="a427c52fcf"><path d="M 67 2 L 112 2 L 112 49 L 67 49 Z M 67 2 " clip-rule="nonzero"/></clipPath><clipPath id="0e538aaf75"><path d="M 104.191406 2.695312 L 112.042969 10.148438 L 72.65625 51.644531 L 64.804688 44.191406 Z M 104.191406 2.695312 " clip-rule="nonzero"/></clipPath><clipPath id="7a3e7b222a"><path d="M 104.191406 2.695312 L 112.042969 10.148438 L 72.65625 51.644531 L 64.804688 44.191406 Z M 104.191406 2.695312 " clip-rule="nonzero"/></clipPath><clipPath id="51e1be5323"><path d="M 45 22.730469 L 93.332031 22.730469 L 93.332031 71.0625 L 45 71.0625 Z M 45 22.730469 " clip-rule="nonzero"/></clipPath><clipPath id="297adaed1e"><path d="M 69.164062 22.730469 C 55.820312 22.730469 45 33.550781 45 46.894531 C 45 60.242188 55.820312 71.0625 69.164062 71.0625 C 82.511719 71.0625 93.332031 60.242188 93.332031 46.894531 C 93.332031 33.550781 82.511719 22.730469 69.164062 22.730469 Z M 69.164062 22.730469 " clip-rule="nonzero"/></clipPath><clipPath id="13645d7723"><path d="M 38.296875 16.027344 L 100.148438 16.027344 L 100.148438 77.878906 L 38.296875 77.878906 Z M 38.296875 16.027344 " clip-rule="nonzero"/></clipPath><clipPath id="95ec6458e9"><path d="M 52 22.730469 L 85.925781 22.730469 L 85.925781 45.925781 L 52 45.925781 Z M 52 22.730469 " clip-rule="nonzero"/></clipPath><clipPath id="770f704577"><path d="M 36.246094 46.894531 L 102.738281 46.894531 L 102.738281 65.453125 L 36.246094 65.453125 Z M 36.246094 46.894531 " clip-rule="nonzero"/></clipPath><clipPath id="7f2a8a669f"><path d="M 51.957031 62.941406 L 55.046875 62.941406 L 55.046875 67 L 51.957031 67 Z M 51.957031 62.941406 " clip-rule="nonzero"/></clipPath><clipPath id="ccb4e5755b"><path d="M 81.285156 62.941406 L 84.378906 62.941406 L 84.378906 67 L 81.285156 67 Z M 81.285156 62.941406 " clip-rule="nonzero"/></clipPath></defs><g clip-path="url(#5579d92e2d)"><g clip-path="url(#dcc0affe10)"><g clip-path="url(#e7e58e686f)"><path fill="#000000" d="M 65.421875 48.636719 C 66.519531 47.480469 66.804688 45.878906 66.257812 44.621094 C 65.949219 43.917969 66.128906 43.039062 66.714844 42.425781 L 78.527344 29.980469 C 78.757812 29.738281 79.15625 29.742188 79.417969 29.992188 C 79.679688 30.238281 79.703125 30.636719 79.476562 30.878906 L 70.429688 40.410156 C 70.273438 40.570312 70.191406 40.789062 70.199219 41.011719 C 70.203125 41.234375 70.296875 41.445312 70.460938 41.597656 C 70.621094 41.75 70.835938 41.835938 71.058594 41.828125 C 71.28125 41.820312 71.492188 41.730469 71.648438 41.566406 C 73.726562 39.378906 80.695312 32.035156 80.695312 32.035156 C 80.921875 31.792969 81.320312 31.800781 81.582031 32.046875 C 81.84375 32.296875 81.871094 32.695312 81.640625 32.933594 L 72.59375 42.464844 C 72.441406 42.628906 72.359375 42.84375 72.363281 43.066406 C 72.371094 43.289062 72.464844 43.5 72.625 43.652344 C 72.789062 43.808594 73.003906 43.890625 73.226562 43.882812 C 73.449219 43.878906 73.660156 43.785156 73.8125 43.621094 C 75.890625 41.433594 82.859375 34.09375 82.859375 34.09375 C 83.089844 33.851562 83.488281 33.855469 83.75 34.105469 C 84.011719 34.351562 84.039062 34.75 83.808594 34.992188 L 74.761719 44.523438 C 74.609375 44.683594 74.527344 44.902344 74.53125 45.125 C 74.535156 45.34375 74.632812 45.558594 74.792969 45.710938 C 74.953125 45.863281 75.167969 45.945312 75.394531 45.941406 C 75.617188 45.933594 75.824219 45.839844 75.980469 45.679688 C 78.058594 43.488281 85.027344 36.148438 85.027344 36.148438 C 85.257812 35.90625 85.65625 35.910156 85.917969 36.160156 C 86.179688 36.410156 86.203125 36.804688 85.976562 37.046875 L 74.917969 48.699219 L 74.160156 49.496094 C 73.574219 50.113281 72.710938 50.339844 71.988281 50.066406 C 70.707031 49.585938 69.121094 49.957031 68.023438 51.109375 L 51.996094 68.976562 C 51.996094 68.976562 49.015625 72.414062 47.09375 74.632812 C 46.679688 75.109375 46.089844 75.398438 45.457031 75.429688 C 44.824219 75.460938 44.207031 75.230469 43.75 74.792969 C 43.511719 74.570312 43.269531 74.339844 43.03125 74.113281 C 42.570312 73.679688 42.3125 73.074219 42.308594 72.441406 C 42.304688 71.808594 42.5625 71.203125 43.019531 70.761719 C 45.132812 68.730469 48.414062 65.578125 48.414062 65.578125 Z M 65.421875 48.636719 " fill-opacity="1" fill-rule="evenodd"/></g></g></g><g clip-path="url(#6f0945a1dc)"><g clip-path="url(#99c21e4966)"><g clip-path="url(#8ca2cc8545)"><path fill="#000000" d="M 72.714844 55.070312 C 70.023438 56.40625 66.734375 56.3125 63.554688 52.96875 C 59.300781 48.488281 56.84375 39.867188 59.792969 37.066406 C 62.742188 34.261719 71.226562 37.160156 75.480469 41.636719 C 78.65625 44.980469 78.585938 48.265625 77.117188 50.882812 C 76.910156 51.898438 77.226562 53.058594 78.058594 53.929688 L 90.699219 66.511719 C 90.699219 66.511719 93.683594 69.308594 95.617188 71.125 C 96.039062 71.519531 96.277344 72.070312 96.277344 72.648438 C 96.28125 73.222656 96.042969 73.777344 95.625 74.171875 L 95.015625 74.753906 C 94.597656 75.148438 94.035156 75.355469 93.460938 75.324219 C 92.882812 75.292969 92.347656 75.027344 91.972656 74.585938 C 90.261719 72.558594 87.621094 69.4375 87.621094 69.4375 L 75.703125 56.167969 C 74.875 55.296875 73.738281 54.917969 72.714844 55.070312 Z M 72.714844 55.070312 " fill-opacity="1" fill-rule="evenodd"/></g></g></g><g clip-path="url(#0e8b253338)"><g clip-path="url(#04e3e57b39)"><g clip-path="url(#c897cab7b7)"><path fill="#fffff7" d="M 42.238281 22.027344 C 39.546875 23.367188 36.257812 23.273438 33.082031 19.925781 C 28.824219 15.449219 26.367188 6.828125 29.316406 4.023438 C 32.265625 1.21875 40.75 4.117188 45.007812 8.597656 C 48.179688 11.9375 48.109375 15.222656 46.644531 17.839844 C 46.433594 18.859375 46.75 20.015625 47.582031 20.890625 L 60.226562 33.46875 C 60.226562 33.46875 63.207031 36.269531 65.140625 38.085938 C 65.5625 38.480469 65.800781 39.027344 65.804688 39.605469 C 65.804688 40.183594 65.570312 40.734375 65.152344 41.132812 L 64.542969 41.710938 C 64.125 42.109375 63.558594 42.316406 62.984375 42.285156 C 62.410156 42.253906 61.871094 41.984375 61.5 41.542969 C 59.785156 39.519531 57.144531 36.398438 57.144531 36.398438 L 45.226562 23.125 C 44.402344 22.253906 43.265625 21.878906 42.238281 22.027344 Z M 42.238281 22.027344 " fill-opacity="1" fill-rule="evenodd"/></g></g></g><g clip-path="url(#a427c52fcf)"><g clip-path="url(#0e538aaf75)"><g clip-path="url(#7a3e7b222a)"><path fill="#fffff7" d="M 90.648438 21.816406 C 91.746094 20.660156 92.035156 19.054688 91.484375 17.800781 C 91.175781 17.09375 91.355469 16.21875 91.941406 15.601562 L 103.753906 3.15625 C 103.984375 2.914062 104.382812 2.921875 104.644531 3.167969 C 104.90625 3.417969 104.933594 3.816406 104.703125 4.058594 L 95.65625 13.585938 C 95.503906 13.75 95.421875 13.964844 95.425781 14.1875 C 95.433594 14.410156 95.527344 14.621094 95.6875 14.773438 C 95.6875 14.777344 95.6875 14.777344 95.6875 14.777344 C 95.847656 14.929688 96.066406 15.011719 96.289062 15.007812 C 96.511719 15 96.722656 14.90625 96.875 14.746094 C 98.953125 12.554688 105.921875 5.214844 105.921875 5.214844 C 106.152344 4.972656 106.550781 4.976562 106.8125 5.226562 C 107.074219 5.472656 107.097656 5.871094 106.871094 6.113281 L 97.824219 15.644531 C 97.667969 15.808594 97.585938 16.023438 97.59375 16.246094 C 97.597656 16.46875 97.691406 16.679688 97.855469 16.832031 C 98.015625 16.984375 98.230469 17.070312 98.453125 17.0625 C 98.675781 17.058594 98.886719 16.964844 99.042969 16.800781 C 101.121094 14.613281 108.089844 7.269531 108.089844 7.269531 C 108.316406 7.027344 108.714844 7.035156 108.976562 7.28125 C 109.238281 7.53125 109.265625 7.929688 109.035156 8.171875 L 99.988281 17.699219 C 99.835938 17.863281 99.753906 18.078125 99.757812 18.300781 C 99.765625 18.523438 99.859375 18.734375 100.019531 18.886719 C 100.183594 19.042969 100.398438 19.125 100.621094 19.121094 C 100.84375 19.113281 101.054688 19.019531 101.207031 18.859375 C 103.285156 16.667969 110.253906 9.328125 110.253906 9.328125 C 110.484375 9.085938 110.882812 9.089844 111.144531 9.339844 C 111.40625 9.585938 111.433594 9.984375 111.203125 10.226562 L 100.144531 21.875 L 99.386719 22.675781 C 98.800781 23.289062 97.9375 23.515625 97.214844 23.246094 C 95.933594 22.765625 94.347656 23.132812 93.253906 24.289062 L 77.222656 42.15625 C 77.222656 42.15625 74.242188 45.59375 72.324219 47.808594 C 71.910156 48.289062 71.316406 48.578125 70.683594 48.605469 C 70.054688 48.636719 69.4375 48.410156 68.976562 47.972656 C 68.738281 47.746094 68.496094 47.515625 68.257812 47.292969 C 67.800781 46.855469 67.539062 46.253906 67.535156 45.621094 C 67.535156 44.984375 67.792969 44.378906 68.246094 43.941406 C 70.363281 41.910156 73.640625 38.753906 73.640625 38.753906 Z M 90.648438 21.816406 " fill-opacity="1" fill-rule="evenodd"/></g></g></g><g clip-path="url(#51e1be5323)"><g clip-path="url(#297adaed1e)"><path fill="#000000" d="M 45 22.730469 L 93.332031 22.730469 L 93.332031 71.0625 L 45 71.0625 Z M 45 22.730469 " fill-opacity="1" fill-rule="nonzero"/></g></g><g clip-path="url(#13645d7723)"><path fill="#000000" d="M 69.164062 16.023438 C 52.128906 16.023438 38.300781 29.851562 38.300781 46.886719 C 38.300781 63.921875 52.128906 77.753906 69.164062 77.753906 C 86.203125 77.753906 100.03125 63.921875 100.03125 46.886719 C 100.03125 29.851562 86.203125 16.023438 69.164062 16.023438 Z M 69.164062 18.5625 C 84.796875 18.5625 97.492188 31.253906 97.492188 46.886719 C 97.492188 62.519531 84.796875 75.214844 69.164062 75.214844 C 53.53125 75.214844 40.839844 62.519531 40.839844 46.886719 C 40.839844 31.253906 53.53125 18.5625 69.164062 18.5625 Z M 69.164062 18.5625 " fill-opacity="1" fill-rule="evenodd"/></g><path fill="#d42c00" d="M 69.167969 19.113281 C 53.835938 19.113281 41.390625 31.558594 41.390625 46.886719 C 41.390625 62.214844 53.835938 74.660156 69.167969 74.660156 C 84.496094 74.660156 96.941406 62.214844 96.941406 46.886719 C 96.941406 31.558594 84.496094 19.113281 69.167969 19.113281 Z M 69.167969 26.261719 C 80.550781 26.261719 89.792969 35.503906 89.792969 46.886719 C 89.792969 58.269531 80.550781 67.511719 69.167969 67.511719 C 57.785156 67.511719 48.542969 58.269531 48.542969 46.886719 C 48.542969 35.503906 57.785156 26.261719 69.167969 26.261719 Z M 69.167969 26.261719 " fill-opacity="1" fill-rule="evenodd"/><path fill="#000000" d="M 86.222656 58.484375 L 91.191406 63.800781 C 86.109375 70.402344 78.132812 74.660156 69.167969 74.660156 C 60.257812 74.660156 52.328125 70.460938 47.246094 63.933594 L 52.207031 58.621094 C 55.933594 63.992188 62.140625 67.511719 69.167969 67.511719 C 76.25 67.511719 82.507812 63.933594 86.222656 58.484375 Z M 86.222656 58.484375 " fill-opacity="1" fill-rule="evenodd"/><path fill="#fcb036" d="M 69.167969 18.40625 C 53.445312 18.40625 40.683594 31.167969 40.683594 46.886719 C 40.683594 62.609375 53.445312 75.371094 69.167969 75.371094 C 84.886719 75.371094 97.652344 62.609375 97.652344 46.886719 C 97.652344 31.167969 84.886719 18.40625 69.167969 18.40625 Z M 69.167969 19.269531 C 84.410156 19.269531 96.785156 31.644531 96.785156 46.886719 C 96.785156 62.132812 84.410156 74.507812 69.167969 74.507812 C 53.921875 74.507812 41.546875 62.132812 41.546875 46.886719 C 41.546875 31.644531 53.921875 19.269531 69.167969 19.269531 Z M 69.167969 19.269531 " fill-opacity="1" fill-rule="evenodd"/><g clip-path="url(#95ec6458e9)"><path fill="#fffff7" d="M 60.484375 27.824219 C 60.503906 27.75 60.519531 27.679688 60.539062 27.609375 C 60.628906 27.285156 60.746094 26.980469 60.882812 26.695312 C 61.464844 25.464844 62.414062 24.542969 63.5625 23.914062 C 64.664062 23.3125 65.957031 22.980469 67.277344 22.898438 C 69.226562 22.78125 71.25 23.210938 72.867188 24.128906 C 74.046875 24.796875 75.007812 25.726562 75.574219 26.882812 C 75.632812 27.003906 75.691406 27.121094 75.753906 27.238281 C 78.417969 26.28125 80.667969 26.527344 82.378906 27.453125 C 85.011719 28.875 86.371094 31.929688 85.988281 34.828125 C 85.574219 37.972656 83.117188 40.949219 77.984375 41.390625 L 77.984375 45.457031 C 77.984375 45.554688 77.929688 45.648438 77.84375 45.699219 C 77.753906 45.75 77.648438 45.75 77.5625 45.703125 C 71.960938 42.53125 66.140625 42.515625 60.101562 45.707031 C 60.011719 45.75 59.90625 45.75 59.824219 45.699219 C 59.738281 45.644531 59.6875 45.554688 59.6875 45.457031 L 59.6875 42.148438 C 54.394531 41.933594 51.945312 38.289062 52.113281 34.746094 C 52.285156 31.160156 55.132812 27.640625 60.484375 27.824219 Z M 60.484375 27.824219 " fill-opacity="1" fill-rule="evenodd"/><path fill="#000000" d="M 60.457031 27.785156 C 60.472656 27.722656 60.488281 27.660156 60.503906 27.601562 C 60.59375 27.277344 60.714844 26.96875 60.851562 26.679688 C 61.433594 25.441406 62.390625 24.515625 63.546875 23.882812 C 64.652344 23.277344 65.949219 22.941406 67.277344 22.863281 C 69.230469 22.742188 71.265625 23.175781 72.886719 24.09375 C 74.070312 24.769531 75.035156 25.703125 75.609375 26.867188 C 75.664062 26.976562 75.714844 27.085938 75.773438 27.191406 C 78.433594 26.246094 80.683594 26.492188 82.398438 27.417969 C 85.042969 28.851562 86.410156 31.921875 86.027344 34.832031 C 85.613281 37.984375 83.15625 40.972656 78.019531 41.425781 L 78.019531 45.457031 C 78.019531 45.570312 77.960938 45.675781 77.863281 45.734375 C 77.761719 45.789062 77.640625 45.789062 77.542969 45.734375 C 71.953125 42.570312 66.148438 42.554688 60.117188 45.738281 C 60.019531 45.792969 59.898438 45.789062 59.804688 45.730469 C 59.707031 45.671875 59.648438 45.570312 59.648438 45.457031 L 59.648438 42.1875 C 54.355469 41.953125 51.910156 38.300781 52.078125 34.742188 C 52.246094 31.148438 55.097656 27.613281 60.457031 27.785156 Z M 66.15625 37.25 C 64.207031 37.574219 62.253906 38.246094 60.289062 39.261719 L 60.289062 44.929688 C 66.191406 41.96875 71.886719 41.980469 77.378906 44.914062 L 77.378906 39.679688 C 72.933594 41.890625 68.695312 40.425781 66.203125 37.296875 C 66.1875 37.28125 66.171875 37.265625 66.15625 37.25 Z M 80.066406 30.265625 C 79.101562 30.515625 78.265625 30.417969 77.523438 30.042969 C 77.183594 29.871094 76.863281 29.636719 76.566406 29.347656 C 75.996094 28.796875 75.507812 28.039062 75.058594 27.140625 C 74.535156 26.085938 73.648438 25.253906 72.574219 24.648438 C 71.050781 23.789062 69.148438 23.390625 67.316406 23.503906 C 66.082031 23.578125 64.878906 23.886719 63.847656 24.441406 C 62.796875 25.003906 61.925781 25.828125 61.378906 26.933594 C 61.25 27.195312 61.140625 27.472656 61.046875 27.761719 C 60.957031 28.039062 60.878906 28.332031 60.824219 28.636719 C 60.738281 29.105469 60.730469 29.796875 60.78125 30.46875 C 60.835938 31.183594 60.953125 31.882812 61.125 32.277344 C 61.152344 32.332031 61.128906 32.398438 61.074219 32.425781 C 61.019531 32.453125 60.953125 32.429688 60.925781 32.375 C 60.714844 31.972656 60.527344 31.257812 60.414062 30.511719 C 60.304688 29.800781 60.261719 29.066406 60.320312 28.5625 C 60.324219 28.515625 60.332031 28.46875 60.335938 28.421875 C 55.484375 28.3125 52.871094 31.496094 52.71875 34.773438 C 52.5625 38.019531 54.828125 41.316406 59.648438 41.546875 L 59.648438 40.789062 C 59.28125 40.867188 58.933594 40.898438 58.617188 40.867188 C 58.347656 40.839844 58.097656 40.777344 57.867188 40.671875 C 57.578125 40.539062 57.320312 40.355469 57.09375 40.117188 C 56.898438 39.90625 56.726562 39.664062 56.578125 39.375 C 56.539062 39.316406 56.554688 39.238281 56.613281 39.199219 C 56.671875 39.15625 56.75 39.171875 56.792969 39.230469 C 56.941406 39.40625 57.097656 39.554688 57.261719 39.683594 C 57.515625 39.890625 57.785156 40.023438 58.078125 40.113281 C 58.265625 40.171875 58.460938 40.203125 58.667969 40.214844 C 58.953125 40.234375 59.257812 40.214844 59.589844 40.136719 L 59.648438 40.125 L 59.648438 39.402344 L 59.460938 39.359375 L 59.457031 39.359375 C 58.804688 39.1875 58.238281 38.925781 57.769531 38.566406 C 57.433594 38.308594 57.144531 38 56.910156 37.648438 C 56.632812 37.238281 56.425781 36.769531 56.28125 36.242188 C 56.160156 35.792969 56.085938 35.300781 56.050781 34.765625 C 56.042969 34.695312 56.09375 34.628906 56.164062 34.621094 C 56.234375 34.613281 56.300781 34.664062 56.308594 34.734375 C 56.386719 35.128906 56.488281 35.492188 56.605469 35.835938 C 56.804688 36.402344 57.066406 36.882812 57.390625 37.296875 C 57.617188 37.582031 57.871094 37.828125 58.160156 38.042969 C 58.574219 38.347656 59.058594 38.582031 59.625 38.734375 L 59.824219 38.78125 C 61.808594 37.738281 63.785156 37.03125 65.753906 36.667969 C 65.683594 36.550781 65.609375 36.425781 65.539062 36.285156 C 65.378906 35.984375 65.226562 35.628906 65.105469 35.234375 C 65.03125 34.984375 64.964844 34.71875 64.921875 34.4375 C 64.898438 34.261719 64.875 34.082031 64.875 33.890625 C 64.875 33.601562 64.917969 33.308594 64.972656 32.996094 C 64.976562 32.9375 65.027344 32.890625 65.089844 32.890625 C 65.148438 32.890625 65.199219 32.941406 65.199219 33.003906 C 65.234375 33.300781 65.304688 33.570312 65.367188 33.839844 C 65.402344 34.007812 65.4375 34.171875 65.476562 34.328125 C 65.539062 34.582031 65.605469 34.820312 65.6875 35.042969 C 65.8125 35.398438 65.960938 35.710938 66.109375 35.984375 C 66.285156 36.3125 66.460938 36.582031 66.613281 36.789062 C 66.625 36.800781 66.640625 36.816406 66.652344 36.832031 C 68.984375 39.816406 73.011719 41.203125 77.226562 39.039062 C 77.234375 39.035156 77.242188 39.03125 77.25 39.027344 C 77.253906 39.023438 77.261719 39.023438 77.265625 39.019531 C 77.34375 38.980469 77.421875 38.9375 77.5 38.894531 C 77.785156 38.730469 78.175781 38.457031 78.582031 38.035156 C 78.816406 37.792969 79.054688 37.503906 79.285156 37.15625 C 79.519531 36.796875 79.746094 36.378906 79.953125 35.890625 C 80.125 35.476562 80.289062 35.023438 80.417969 34.503906 C 80.429688 34.4375 80.492188 34.394531 80.558594 34.40625 C 80.621094 34.417969 80.664062 34.476562 80.65625 34.542969 C 80.605469 35.097656 80.519531 35.597656 80.394531 36.042969 C 80.238281 36.597656 80.027344 37.066406 79.796875 37.46875 C 79.566406 37.875 79.308594 38.207031 79.054688 38.480469 C 78.6875 38.875 78.320312 39.148438 78.019531 39.335938 L 78.019531 39.859375 C 78.382812 39.785156 78.691406 39.667969 78.964844 39.539062 C 79.175781 39.441406 79.367188 39.335938 79.535156 39.203125 C 79.835938 38.964844 80.074219 38.679688 80.234375 38.316406 C 80.257812 38.25 80.328125 38.210938 80.394531 38.234375 C 80.464844 38.253906 80.5 38.324219 80.480469 38.390625 C 80.429688 38.675781 80.339844 38.933594 80.207031 39.175781 C 80.070312 39.425781 79.886719 39.644531 79.65625 39.839844 C 79.488281 39.980469 79.296875 40.101562 79.078125 40.207031 C 78.800781 40.335938 78.480469 40.429688 78.121094 40.5 L 78.019531 40.515625 L 78.019531 40.78125 C 82.722656 40.34375 85.011719 37.648438 85.390625 34.75 C 85.742188 32.09375 84.503906 29.289062 82.09375 27.984375 C 80.535156 27.140625 78.5 26.929688 76.089844 27.757812 C 76.367188 28.210938 76.660156 28.605469 76.980469 28.9375 C 77.230469 29.199219 77.488281 29.421875 77.773438 29.59375 C 78.40625 29.980469 79.132812 30.140625 80.011719 30.003906 C 80.082031 29.992188 80.152344 30.039062 80.167969 30.109375 C 80.183594 30.179688 80.136719 30.25 80.066406 30.265625 Z M 80.066406 30.265625 " fill-opacity="1" fill-rule="evenodd"/></g><g clip-path="url(#770f704577)"><path fill="#ffffff" d="M 91.667969 48.324219 C 85.726562 47.421875 77.730469 46.921875 69.152344 46.921875 C 60.574219 46.921875 52.578125 47.421875 46.632812 48.324219 C 39.742188 49.371094 36.246094 50.84375 36.246094 52.707031 L 36.246094 62.988281 C 36.246094 63.824219 36.789062 64.515625 37.816406 64.992188 C 38.6875 65.394531 39.851562 65.617188 41.101562 65.617188 C 43.429688 65.617188 45.9375 64.800781 45.953125 63.007812 C 45.953125 63 45.953125 62.996094 45.953125 62.988281 C 45.953125 62.898438 45.941406 62.8125 45.925781 62.730469 C 45.753906 61.160156 45.679688 59.425781 45.847656 59.164062 C 45.875 59.148438 45.894531 59.128906 45.910156 59.105469 C 51.679688 58.15625 59.777344 57.59375 69.152344 57.59375 C 77.710938 57.59375 85.6875 58.089844 91.613281 58.988281 C 91.878906 59.03125 92.140625 59.070312 92.398438 59.113281 C 92.414062 59.132812 92.433594 59.152344 92.457031 59.164062 C 92.621094 59.425781 92.546875 61.160156 92.378906 62.730469 C 92.359375 62.8125 92.351562 62.898438 92.351562 62.988281 C 92.351562 63.824219 92.894531 64.515625 93.917969 64.992188 C 94.789062 65.394531 95.957031 65.617188 97.203125 65.617188 C 99.539062 65.617188 102.054688 64.792969 102.054688 62.988281 L 102.054688 52.707031 C 102.054688 50.84375 98.5625 49.371094 91.667969 48.324219 " fill-opacity="1" fill-rule="nonzero"/><path fill="#000000" d="M 101.667969 53.21875 C 101.183594 52.542969 99.921875 51.585938 96.675781 50.855469 C 96.640625 50.847656 96.605469 50.871094 96.597656 50.90625 C 96.589844 50.941406 96.613281 50.976562 96.648438 50.984375 C 100.179688 51.78125 101.308594 52.84375 101.667969 53.484375 L 101.667969 53.964844 C 101.136719 53.246094 99.707031 52.210938 95.898438 51.355469 C 95.863281 51.347656 95.828125 51.371094 95.820312 51.40625 C 95.808594 51.441406 95.832031 51.476562 95.867188 51.484375 C 99.996094 52.414062 101.277344 53.550781 101.667969 54.222656 L 101.667969 54.539062 C 101.183594 53.863281 99.921875 52.90625 96.675781 52.175781 C 96.640625 52.171875 96.605469 52.191406 96.597656 52.226562 C 96.589844 52.261719 96.613281 52.296875 96.648438 52.308594 C 100.179688 53.101562 101.308594 54.167969 101.667969 54.804688 L 101.667969 55.285156 C 101.136719 54.566406 99.707031 53.535156 95.898438 52.675781 C 95.863281 52.667969 95.828125 52.691406 95.820312 52.726562 C 95.808594 52.761719 95.832031 52.796875 95.867188 52.804688 C 99.996094 53.734375 101.277344 54.871094 101.667969 55.542969 L 101.667969 55.859375 C 101.183594 55.183594 99.921875 54.230469 96.675781 53.5 C 96.640625 53.492188 96.605469 53.511719 96.597656 53.546875 C 96.589844 53.585938 96.613281 53.621094 96.648438 53.628906 C 100.179688 54.421875 101.308594 55.488281 101.667969 56.125 L 101.667969 56.605469 C 101.136719 55.886719 99.707031 54.855469 95.898438 53.996094 C 95.863281 53.988281 95.828125 54.011719 95.820312 54.046875 C 95.808594 54.082031 95.832031 54.117188 95.867188 54.125 C 99.996094 55.054688 101.277344 56.191406 101.667969 56.867188 L 101.667969 57.183594 C 101.183594 56.507812 99.921875 55.550781 96.675781 54.820312 C 96.640625 54.8125 96.605469 54.835938 96.597656 54.871094 C 96.589844 54.90625 96.613281 54.941406 96.648438 54.949219 C 100.179688 55.742188 101.308594 56.808594 101.667969 57.445312 L 101.667969 57.925781 C 101.136719 57.210938 99.707031 56.175781 95.898438 55.320312 C 95.863281 55.308594 95.828125 55.332031 95.820312 55.367188 C 95.808594 55.40625 95.832031 55.441406 95.867188 55.449219 C 99.996094 56.375 101.277344 57.511719 101.667969 58.1875 L 101.667969 58.503906 C 101.183594 57.828125 99.921875 56.871094 96.675781 56.140625 C 96.640625 56.132812 96.605469 56.15625 96.597656 56.191406 C 96.589844 56.226562 96.613281 56.261719 96.648438 56.269531 C 100.179688 57.0625 101.308594 58.128906 101.667969 58.769531 L 101.667969 59.246094 C 101.136719 58.53125 99.707031 57.496094 95.898438 56.640625 C 95.863281 56.632812 95.828125 56.652344 95.820312 56.691406 C 95.808594 56.726562 95.832031 56.761719 95.867188 56.769531 C 99.996094 57.695312 101.277344 58.832031 101.667969 59.507812 L 101.667969 59.824219 C 101.183594 59.148438 99.921875 58.191406 96.675781 57.460938 C 96.640625 57.453125 96.605469 57.476562 96.597656 57.511719 C 96.589844 57.546875 96.613281 57.582031 96.648438 57.589844 C 100.179688 58.386719 101.308594 59.449219 101.667969 60.089844 L 101.667969 60.570312 C 101.136719 59.851562 99.707031 58.816406 95.898438 57.960938 C 95.863281 57.953125 95.828125 57.976562 95.820312 58.011719 C 95.808594 58.046875 95.832031 58.082031 95.867188 58.089844 C 99.996094 59.019531 101.277344 60.15625 101.667969 60.828125 L 101.667969 61.144531 C 101.183594 60.46875 99.921875 59.511719 96.675781 58.78125 C 96.640625 58.773438 96.605469 58.796875 96.597656 58.832031 C 96.589844 58.867188 96.613281 58.902344 96.648438 58.910156 C 100.179688 59.707031 101.308594 60.773438 101.667969 61.410156 L 101.667969 61.957031 C 100.585938 60.574219 97.234375 59.453125 91.667969 58.605469 C 85.726562 57.703125 77.730469 57.207031 69.152344 57.207031 C 60.574219 57.207031 52.578125 57.703125 46.632812 58.605469 C 41.070312 59.453125 37.71875 60.574219 36.636719 61.957031 L 36.636719 61.476562 C 36.953125 60.851562 38.03125 59.734375 41.691406 58.910156 C 41.726562 58.902344 41.75 58.867188 41.742188 58.832031 C 41.734375 58.796875 41.699219 58.773438 41.664062 58.78125 C 38.332031 59.53125 37.09375 60.519531 36.636719 61.195312 L 36.636719 60.894531 C 36.980469 60.230469 38.203125 59.050781 42.472656 58.089844 C 42.507812 58.082031 42.53125 58.046875 42.523438 58.011719 C 42.515625 57.976562 42.480469 57.953125 42.441406 57.960938 C 38.542969 58.839844 37.132812 59.902344 36.636719 60.621094 L 36.636719 60.15625 C 36.953125 59.527344 38.03125 58.414062 41.691406 57.589844 C 41.726562 57.582031 41.75 57.546875 41.742188 57.511719 C 41.734375 57.476562 41.699219 57.453125 41.664062 57.460938 C 38.332031 58.210938 37.09375 59.199219 36.636719 59.875 L 36.636719 59.574219 C 36.980469 58.910156 38.203125 57.726562 42.472656 56.769531 C 42.507812 56.761719 42.53125 56.726562 42.523438 56.691406 C 42.515625 56.652344 42.480469 56.632812 42.441406 56.640625 C 38.542969 57.519531 37.132812 58.582031 36.636719 59.300781 L 36.636719 58.835938 C 36.953125 58.207031 38.03125 57.09375 41.691406 56.269531 C 41.726562 56.261719 41.75 56.226562 41.742188 56.191406 C 41.734375 56.15625 41.699219 56.132812 41.664062 56.140625 C 38.332031 56.890625 37.09375 57.875 36.636719 58.554688 L 36.636719 58.253906 C 36.980469 57.589844 38.203125 56.40625 42.472656 55.449219 C 42.507812 55.441406 42.53125 55.40625 42.523438 55.367188 C 42.515625 55.332031 42.480469 55.3125 42.441406 55.320312 C 38.542969 56.195312 37.132812 57.257812 36.636719 57.976562 L 36.636719 57.515625 C 36.953125 56.886719 38.03125 55.769531 41.691406 54.949219 C 41.726562 54.941406 41.75 54.90625 41.742188 54.871094 C 41.734375 54.835938 41.699219 54.8125 41.664062 54.820312 C 38.332031 55.570312 37.09375 56.554688 36.636719 57.234375 L 36.636719 56.933594 C 36.980469 56.269531 38.203125 55.085938 42.472656 54.125 C 42.507812 54.117188 42.53125 54.082031 42.523438 54.046875 C 42.515625 54.011719 42.480469 53.988281 42.441406 53.996094 C 38.542969 54.875 37.132812 55.9375 36.636719 56.65625 L 36.636719 56.195312 C 36.953125 55.566406 38.03125 54.449219 41.691406 53.628906 C 41.726562 53.621094 41.75 53.585938 41.742188 53.546875 C 41.734375 53.511719 41.699219 53.492188 41.664062 53.5 C 38.332031 54.246094 37.09375 55.234375 36.636719 55.914062 L 36.636719 55.613281 C 36.980469 54.945312 38.203125 53.765625 42.472656 52.804688 C 42.507812 52.796875 42.53125 52.761719 42.523438 52.726562 C 42.515625 52.691406 42.480469 52.667969 42.441406 52.675781 C 38.542969 53.554688 37.132812 54.617188 36.636719 55.335938 L 36.636719 54.871094 C 36.953125 54.246094 38.03125 53.128906 41.691406 52.308594 C 41.726562 52.296875 41.75 52.261719 41.742188 52.226562 C 41.734375 52.191406 41.699219 52.167969 41.664062 52.175781 C 38.332031 52.925781 37.09375 53.914062 36.636719 54.589844 L 36.636719 54.289062 C 36.980469 53.625 38.203125 52.445312 42.472656 51.484375 C 42.507812 51.476562 42.53125 51.441406 42.523438 51.40625 C 42.515625 51.371094 42.480469 51.347656 42.441406 51.355469 C 38.542969 52.234375 37.132812 53.296875 36.636719 54.015625 L 36.636719 53.550781 C 36.953125 52.921875 38.03125 51.808594 41.691406 50.984375 C 41.726562 50.976562 41.75 50.941406 41.742188 50.90625 C 41.734375 50.871094 41.699219 50.847656 41.664062 50.855469 C 38.332031 51.605469 37.09375 52.59375 36.636719 53.269531 L 36.636719 52.96875 C 36.980469 52.304688 38.203125 51.121094 42.472656 50.164062 C 42.507812 50.15625 42.53125 50.121094 42.523438 50.085938 C 42.515625 50.050781 42.480469 50.027344 42.441406 50.035156 C 38.542969 50.910156 37.136719 51.972656 36.636719 52.691406 C 36.683594 49.574219 50.34375 47.3125 69.152344 47.3125 C 77.710938 47.3125 85.6875 47.808594 91.613281 48.707031 C 98 49.675781 101.558594 51.070312 101.664062 52.636719 C 101.128906 51.917969 99.695312 50.890625 95.898438 50.035156 C 95.863281 50.027344 95.828125 50.050781 95.820312 50.085938 C 95.808594 50.121094 95.832031 50.15625 95.867188 50.164062 C 99.996094 51.09375 101.277344 52.226562 101.667969 52.902344 Z M 94.988281 61.527344 C 95.410156 61.460938 95.855469 61.425781 96.300781 61.425781 C 97 61.425781 97.664062 61.507812 98.226562 61.65625 L 98.226562 62.460938 C 97.828125 62.25 97.1875 62.167969 96.566406 62.167969 C 95.984375 62.167969 95.375 62.242188 94.976562 62.429688 C 95.019531 61.960938 95.011719 61.691406 94.988281 61.527344 Z M 99.867188 62.988281 C 99.867188 63.226562 99.710938 63.4375 99.40625 63.613281 C 98.445312 64.167969 96.332031 64.167969 95.371094 63.613281 C 95.070312 63.441406 94.914062 63.234375 94.910156 62.996094 C 94.914062 62.988281 94.914062 62.980469 94.914062 62.972656 C 94.957031 62.789062 95.578125 62.554688 96.566406 62.554688 C 97.59375 62.554688 98.226562 62.808594 98.226562 62.988281 C 98.226562 63.097656 98.3125 63.183594 98.417969 63.183594 C 98.527344 63.183594 98.613281 63.097656 98.613281 62.992188 L 98.613281 61.777344 C 98.683594 61.800781 98.75 61.824219 98.8125 61.851562 C 99.273438 62.042969 99.816406 62.382812 99.863281 62.917969 L 99.863281 62.964844 C 99.863281 62.972656 99.863281 62.980469 99.867188 62.988281 Z M 92.859375 59.191406 C 95.984375 59.726562 98.328125 60.367188 99.8125 61.085938 L 99.839844 62.050781 C 99.527344 61.742188 99.058594 61.503906 98.515625 61.339844 C 98.492188 61.328125 98.464844 61.320312 98.4375 61.316406 C 97.785156 61.128906 97.035156 61.039062 96.300781 61.039062 C 94.96875 61.039062 93.566406 61.339844 92.84375 61.980469 C 92.992188 60.355469 92.949219 59.574219 92.859375 59.191406 Z M 97.203125 65.230469 C 94.988281 65.230469 92.746094 64.460938 92.738281 62.996094 C 92.746094 62.929688 92.753906 62.863281 92.761719 62.796875 C 92.898438 62.214844 93.648438 61.8125 94.609375 61.601562 C 94.636719 61.8125 94.597656 62.378906 94.535156 62.878906 C 94.535156 62.886719 94.535156 62.890625 94.535156 62.898438 C 94.53125 62.921875 94.527344 62.941406 94.523438 62.964844 C 94.523438 62.96875 94.523438 62.972656 94.523438 62.980469 C 94.523438 62.984375 94.523438 62.988281 94.523438 62.988281 C 94.523438 63.257812 94.636719 63.640625 95.175781 63.949219 C 96.273438 64.582031 98.503906 64.582031 99.601562 63.949219 C 100.132812 63.644531 100.25 63.265625 100.253906 63 C 100.257812 62.984375 100.257812 62.96875 100.257812 62.953125 L 100.214844 61.292969 C 101.171875 61.828125 101.667969 62.394531 101.667969 62.988281 C 101.667969 64.460938 99.421875 65.230469 97.203125 65.230469 Z M 43.328125 62.429688 C 42.929688 62.242188 42.320312 62.167969 41.734375 62.167969 C 41.117188 62.167969 40.472656 62.25 40.078125 62.460938 L 40.078125 61.65625 C 40.65625 61.503906 41.328125 61.425781 42 61.425781 C 42.460938 61.425781 42.90625 61.464844 43.316406 61.527344 C 43.289062 61.691406 43.285156 61.960938 43.328125 62.429688 Z M 38.4375 62.960938 C 38.457031 62.429688 38.960938 62.03125 39.6875 61.773438 L 39.691406 62.988281 L 39.691406 62.992188 C 39.691406 63.097656 39.777344 63.183594 39.886719 63.183594 C 39.992188 63.183594 40.078125 63.097656 40.078125 62.988281 C 40.078125 62.808594 40.710938 62.554688 41.734375 62.554688 C 42.195312 62.554688 42.640625 62.609375 42.953125 62.703125 C 43.242188 62.792969 43.367188 62.894531 43.386719 62.96875 C 43.390625 62.976562 43.390625 62.988281 43.390625 62.996094 C 43.382812 63.667969 42.113281 64.03125 40.914062 64.03125 C 39.714844 64.03125 38.441406 63.667969 38.4375 62.992188 C 38.4375 62.984375 38.441406 62.976562 38.441406 62.96875 Z M 45.457031 61.980469 C 44.738281 61.339844 43.332031 61.039062 42 61.039062 C 41.269531 61.039062 40.515625 61.128906 39.867188 61.316406 C 39.839844 61.320312 39.8125 61.328125 39.789062 61.339844 C 39.214844 61.515625 38.726562 61.769531 38.414062 62.105469 L 38.386719 61.136719 C 39.882812 60.386719 42.296875 59.726562 45.449219 59.183594 C 45.355469 59.566406 45.308594 60.347656 45.457031 61.980469 Z M 41.101562 65.230469 C 38.882812 65.230469 36.636719 64.460938 36.636719 62.988281 C 36.636719 62.410156 37.109375 61.859375 37.996094 61.347656 L 38.042969 62.980469 C 38.042969 62.996094 38.046875 63.011719 38.050781 63.027344 C 38.0625 63.351562 38.246094 63.785156 39.003906 64.097656 C 39.511719 64.304688 40.191406 64.421875 40.914062 64.421875 C 42.875 64.421875 43.761719 63.714844 43.777344 63.011719 C 43.777344 63.007812 43.78125 63.003906 43.78125 63 C 43.78125 62.996094 43.78125 62.992188 43.78125 62.988281 C 43.78125 62.988281 43.777344 62.984375 43.777344 62.980469 C 43.777344 62.972656 43.78125 62.96875 43.777344 62.964844 C 43.777344 62.941406 43.773438 62.921875 43.769531 62.898438 C 43.769531 62.890625 43.769531 62.886719 43.769531 62.878906 C 43.707031 62.378906 43.667969 61.8125 43.691406 61.601562 C 43.992188 61.667969 44.265625 61.75 44.511719 61.851562 C 44.9375 62.027344 45.433594 62.332031 45.542969 62.800781 C 45.550781 62.867188 45.554688 62.929688 45.5625 62.996094 C 45.558594 64.460938 43.316406 65.230469 41.101562 65.230469 Z M 91.667969 48.324219 C 85.726562 47.421875 77.730469 46.921875 69.152344 46.921875 C 60.574219 46.921875 52.578125 47.421875 46.632812 48.324219 C 39.742188 49.371094 36.246094 50.84375 36.246094 52.707031 L 36.246094 62.988281 C 36.246094 63.824219 36.789062 64.515625 37.816406 64.992188 C 38.6875 65.394531 39.851562 65.617188 41.101562 65.617188 C 43.429688 65.617188 45.9375 64.800781 45.953125 63.007812 C 45.953125 63 45.953125 62.996094 45.953125 62.988281 C 45.953125 62.898438 45.941406 62.8125 45.925781 62.730469 C 45.753906 61.160156 45.679688 59.425781 45.847656 59.164062 C 45.875 59.148438 45.894531 59.128906 45.910156 59.105469 C 51.679688 58.15625 59.777344 57.59375 69.152344 57.59375 C 77.710938 57.59375 85.6875 58.089844 91.613281 58.988281 C 91.878906 59.03125 92.140625 59.070312 92.398438 59.113281 C 92.414062 59.132812 92.433594 59.152344 92.457031 59.164062 C 92.621094 59.425781 92.546875 61.160156 92.378906 62.730469 C 92.359375 62.8125 92.351562 62.898438 92.351562 62.988281 C 92.351562 63.824219 92.894531 64.515625 93.917969 64.992188 C 94.789062 65.394531 95.957031 65.617188 97.203125 65.617188 C 99.539062 65.617188 102.054688 64.792969 102.054688 62.988281 L 102.054688 52.707031 C 102.054688 50.84375 98.5625 49.371094 91.667969 48.324219 " fill-opacity="1" fill-rule="nonzero"/></g><g clip-path="url(#7f2a8a669f)"><path fill="#fcb036" d="M 53.8125 62.945312 C 53.8125 62.945312 53.8125 62.941406 53.816406 62.941406 C 53.820312 62.941406 53.820312 62.945312 53.820312 62.945312 C 53.863281 63.066406 54.199219 63.96875 54.488281 64.28125 C 54.777344 64.59375 55.566406 64.902344 55.671875 64.945312 C 55.671875 64.945312 55.675781 64.945312 55.675781 64.949219 C 55.675781 64.949219 55.671875 64.953125 55.671875 64.953125 C 55.566406 64.996094 54.761719 65.316406 54.472656 65.628906 C 54.183594 65.941406 53.863281 66.824219 53.820312 66.949219 C 53.820312 66.953125 53.820312 66.953125 53.816406 66.953125 C 53.8125 66.953125 53.8125 66.953125 53.8125 66.949219 C 53.777344 66.824219 53.515625 65.957031 53.226562 65.644531 C 52.933594 65.332031 52.066406 64.992188 51.960938 64.953125 C 51.957031 64.953125 51.957031 64.949219 51.957031 64.949219 C 51.957031 64.945312 51.957031 64.945312 51.960938 64.945312 C 52.0625 64.898438 52.890625 64.515625 53.179688 64.203125 C 53.46875 63.890625 53.769531 63.0625 53.8125 62.945312 Z M 53.8125 62.945312 " fill-opacity="1" fill-rule="evenodd"/></g><g fill="#d42c00" fill-opacity="1"><g transform="translate(50.359596, 56.40294)"><g><path d="M 1.53125 -1.292969 L 1.226562 -4.96875 L 3.449219 -1.589844 C 4.085938 -0.636719 4.902344 -0.382812 5.558594 -0.445312 L 7.429688 -0.597656 L 7.324219 -0.722656 C 7.117188 -0.984375 6.953125 -1.386719 6.925781 -1.722656 L 6.527344 -6.53125 C 6.5 -6.871094 6.570312 -7.300781 6.710938 -7.601562 L 6.816406 -7.828125 C 6.726562 -7.808594 6.585938 -7.769531 6.410156 -7.753906 C 6.132812 -7.730469 5.777344 -7.785156 5.492188 -8.136719 C 5.363281 -8.042969 5.226562 -7.792969 5.253906 -7.484375 C 5.289062 -7.042969 5.5 -6.730469 5.804688 -6.558594 L 6.152344 -2.074219 C 5.695312 -2.378906 5.039062 -3.433594 4.539062 -4.261719 C 3.847656 -5.429688 3.230469 -6.382812 2.578125 -7.570312 C 2.277344 -7.433594 1.925781 -7.34375 1.574219 -7.3125 C 0.96875 -7.265625 0.390625 -7.394531 0.0859375 -7.703125 C -0.0429688 -7.609375 -0.175781 -7.359375 -0.152344 -7.050781 C -0.117188 -6.609375 0.09375 -6.296875 0.398438 -6.125 L 0.78125 -1.230469 C 0.808594 -0.890625 0.71875 -0.472656 0.554688 -0.179688 L 0.464844 -0.015625 L 2.035156 -0.144531 L 1.921875 -0.289062 C 1.714844 -0.550781 1.558594 -0.953125 1.53125 -1.292969 Z M 1.53125 -1.292969 "/></g></g></g><g fill="#d42c00" fill-opacity="1"><g transform="translate(58.116613, 55.785759)"><g><path d="M 6.320312 -2.351562 C 6.269531 -3.679688 6.207031 -4.914062 6.152344 -6.242188 C 6.140625 -6.582031 6.226562 -7.011719 6.378906 -7.304688 L 6.484375 -7.527344 C 6.1875 -7.472656 5.703125 -7.402344 5.191406 -7.378906 C 4.46875 -7.351562 3.710938 -7.425781 3.398438 -7.8125 C 3.265625 -7.726562 3.132812 -7.484375 3.144531 -7.175781 C 3.164062 -6.730469 3.351562 -6.410156 3.648438 -6.226562 L 3.808594 -2.257812 C 3.855469 -1.136719 3.792969 -0.628906 3.082031 -0.570312 C 1.960938 -0.472656 1.746094 -2.019531 2.558594 -2.550781 C 2.390625 -2.894531 1.960938 -3.070312 1.515625 -3.054688 C 0.886719 -3.027344 0.234375 -2.609375 0.25 -1.710938 C 0.265625 -0.785156 1.296875 0.144531 3.304688 0.0429688 C 5.414062 -0.0664062 6.378906 -0.992188 6.320312 -2.351562 Z M 6.320312 -2.351562 "/></g></g></g><g fill="#d42c00" fill-opacity="1"><g transform="translate(65.180564, 55.489796)"><g><path d="M 1.566406 -1.136719 L 1.824219 -1.917969 L 4.328125 -1.921875 L 4.585938 -1.167969 C 4.691406 -0.828125 4.710938 -0.417969 4.628906 -0.136719 L 4.585938 0.015625 L 7.9375 0.015625 L 7.773438 -0.140625 C 7.484375 -0.417969 7.214844 -0.832031 7.101562 -1.171875 L 5.457031 -6.054688 C 5.34375 -6.394531 5.304688 -6.820312 5.363281 -7.105469 L 5.40625 -7.324219 C 4.714844 -7.230469 2.921875 -7.054688 2.179688 -7.734375 C 2.074219 -7.652344 2.003906 -7.414062 2.117188 -7.105469 C 2.210938 -6.867188 2.335938 -6.660156 2.488281 -6.496094 L 0.699219 -1.132812 C 0.585938 -0.816406 0.371094 -0.421875 0.15625 -0.164062 L 0 0.0195312 L 1.691406 0.0195312 L 1.640625 -0.09375 C 1.484375 -0.402344 1.453125 -0.816406 1.566406 -1.136719 Z M 3.089844 -5.714844 L 4.132812 -2.539062 L 2.027344 -2.539062 Z M 3.089844 -5.714844 "/></g></g></g><g fill="#d42c00" fill-opacity="1"><g transform="translate(73.018304, 55.480073)"><g><path d="M 1.015625 -7.632812 C 0.878906 -7.558594 0.726562 -7.328125 0.710938 -7.015625 C 0.695312 -6.574219 0.855469 -6.238281 1.136719 -6.03125 L 0.921875 -1.128906 C 0.910156 -0.789062 0.769531 -0.382812 0.570312 -0.109375 L 0.460938 0.0390625 L 4.261719 0.195312 C 6.457031 0.285156 7.8125 -0.316406 7.871094 -1.75 C 7.917969 -2.902344 7.0625 -3.589844 5.566406 -3.855469 C 6.523438 -4.042969 7.078125 -4.515625 7.113281 -5.320312 C 7.175781 -6.863281 5.203125 -7.058594 4.078125 -7.105469 C 3.769531 -7.078125 3.261719 -7.046875 2.746094 -7.066406 C 2.027344 -7.097656 1.289062 -7.230469 1.015625 -7.632812 Z M 3.796875 -6.734375 C 4.546875 -6.703125 4.964844 -6.328125 4.929688 -5.410156 C 4.890625 -4.472656 4.441406 -4.140625 3.679688 -4.171875 L 3.566406 -4.175781 L 3.636719 -5.84375 C 3.65625 -6.578125 3.710938 -6.675781 3.796875 -6.734375 Z M 3.429688 -0.613281 L 3.542969 -3.609375 L 3.882812 -3.59375 C 4.832031 -3.554688 5.351562 -3.171875 5.300781 -1.988281 C 5.253906 -0.792969 4.699219 -0.363281 3.75 -0.402344 L 3.441406 -0.414062 C 3.433594 -0.46875 3.425781 -0.53125 3.429688 -0.613281 Z M 3.429688 -0.613281 "/></g></g></g><g fill="#d42c00" fill-opacity="1"><g transform="translate(80.966195, 55.813428)"><g><path d="M 6.894531 0.554688 C 6.691406 0 6.796875 -1.296875 7.121094 -1.703125 C 6.210938 -1.953125 5.5625 -1.128906 5.453125 -0.175781 L 3.296875 -0.359375 L 7.027344 -5.488281 C 7.527344 -6.179688 7.292969 -6.695312 6.4375 -6.765625 L 1.320312 -7.183594 C 1.523438 -6.621094 1.417969 -5.324219 1.09375 -4.917969 C 2.007812 -4.675781 2.644531 -5.503906 2.761719 -6.445312 L 4.570312 -6.296875 L 0.652344 -1.15625 C 0.132812 -0.476562 0.359375 0.03125 1.210938 0.0976562 L 2.867188 0.234375 L 2.867188 0.222656 Z M 6.894531 0.554688 "/></g></g></g><g fill="#ffffff" fill-opacity="1"><g transform="translate(56.20528, 65.099581)"><g><path d="M 1.859375 -0.609375 L 1.296875 -0.359375 L 1.015625 0.390625 L 0.34375 0.140625 L 1.46875 -2.78125 L 2.140625 -2.53125 L 1.609375 -1.171875 L 3.421875 -2.03125 L 4.1875 -1.75 L 2.484375 -0.90625 L 3.140625 1.203125 L 2.34375 0.90625 Z M 1.859375 -0.609375 "/></g></g></g><g fill="#ffffff" fill-opacity="1"><g transform="translate(59.96059, 66.454882)"><g><path d="M 1.171875 -2.921875 L 1.875 -2.734375 L 1.0625 0.28125 L 0.359375 0.09375 Z M 1.171875 -2.921875 "/></g></g></g><g fill="#ffffff" fill-opacity="1"><g transform="translate(62.028055, 67.013248)"><g><path d="M 1.4375 -2.328125 L 0.453125 -2.5 L 0.546875 -3.078125 L 3.234375 -2.609375 L 3.140625 -2.03125 L 2.15625 -2.203125 L 1.71875 0.296875 L 1 0.171875 Z M 1.4375 -2.328125 "/></g></g></g><g fill="#ffffff" fill-opacity="1"><g transform="translate(65.461057, 67.578245)"><g><path d="M 1.875 0.140625 C 1.550781 0.117188 1.257812 0.0351562 1 -0.109375 C 0.75 -0.253906 0.554688 -0.453125 0.421875 -0.703125 C 0.285156 -0.953125 0.226562 -1.234375 0.25 -1.546875 C 0.257812 -1.859375 0.34375 -2.132812 0.5 -2.375 C 0.65625 -2.613281 0.867188 -2.796875 1.140625 -2.921875 C 1.410156 -3.054688 1.707031 -3.113281 2.03125 -3.09375 C 2.300781 -3.082031 2.539062 -3.019531 2.75 -2.90625 C 2.96875 -2.800781 3.144531 -2.660156 3.28125 -2.484375 L 2.796875 -2.078125 C 2.597656 -2.328125 2.34375 -2.457031 2.03125 -2.46875 C 1.84375 -2.476562 1.664062 -2.445312 1.5 -2.375 C 1.34375 -2.300781 1.21875 -2.1875 1.125 -2.03125 C 1.039062 -1.882812 0.992188 -1.710938 0.984375 -1.515625 C 0.972656 -1.328125 1.003906 -1.15625 1.078125 -1 C 1.148438 -0.84375 1.265625 -0.71875 1.421875 -0.625 C 1.578125 -0.53125 1.75 -0.476562 1.9375 -0.46875 C 2.25 -0.457031 2.515625 -0.570312 2.734375 -0.8125 L 3.171875 -0.359375 C 3.023438 -0.179688 2.835938 -0.0507812 2.609375 0.03125 C 2.390625 0.113281 2.144531 0.148438 1.875 0.140625 Z M 1.875 0.140625 "/></g></g></g><g fill="#ffffff" fill-opacity="1"><g transform="translate(69.471443, 67.726374)"><g><path d="M 2.9375 -3.40625 L 3.21875 -0.296875 L 2.5 -0.234375 L 2.375 -1.515625 L 0.96875 -1.375 L 1.09375 -0.09375 L 0.375 -0.03125 L 0.09375 -3.140625 L 0.8125 -3.203125 L 0.921875 -1.96875 L 2.328125 -2.109375 L 2.21875 -3.34375 Z M 2.9375 -3.40625 "/></g></g></g><g fill="#ffffff" fill-opacity="1"><g transform="translate(73.785787, 67.256345)"><g><path d="M 2.59375 -1.1875 L 2.71875 -0.625 L 0.359375 -0.078125 L -0.34375 -3.125 L 1.96875 -3.65625 L 2.09375 -3.09375 L 0.484375 -2.734375 L 0.640625 -2.078125 L 2.0625 -2.40625 L 2.1875 -1.859375 L 0.765625 -1.53125 L 0.9375 -0.8125 Z M 2.59375 -1.1875 "/></g></g></g><g fill="#ffffff" fill-opacity="1"><g transform="translate(77.413419, 66.388653)"><g><path d="M 1.921875 -4.0625 L 3.03125 -1.140625 L 2.46875 -0.9375 L 0.34375 -2.15625 L 1.015625 -0.375 L 0.34375 -0.125 L -0.765625 -3.046875 L -0.203125 -3.265625 L 1.9375 -2.046875 L 1.265625 -3.8125 Z M 1.921875 -4.0625 "/></g></g></g><g fill="#ffffff" fill-opacity="1"><g transform="translate(61.853372, 71.339955)"><g><path d="M 0.625 0.234375 C 0.519531 0.203125 0.421875 0.148438 0.328125 0.078125 C 0.234375 0.00390625 0.160156 -0.0625 0.109375 -0.125 L 0.28125 -0.34375 C 0.34375 -0.28125 0.410156 -0.21875 0.484375 -0.15625 C 0.554688 -0.09375 0.632812 -0.0507812 0.71875 -0.03125 C 0.8125 0 0.882812 0.0078125 0.9375 0 C 1 -0.0195312 1.035156 -0.0507812 1.046875 -0.09375 C 1.054688 -0.132812 1.046875 -0.164062 1.015625 -0.1875 C 0.992188 -0.21875 0.96875 -0.242188 0.9375 -0.265625 C 0.90625 -0.296875 0.859375 -0.335938 0.796875 -0.390625 C 0.691406 -0.441406 0.609375 -0.492188 0.546875 -0.546875 C 0.484375 -0.597656 0.4375 -0.65625 0.40625 -0.71875 C 0.382812 -0.789062 0.390625 -0.878906 0.421875 -0.984375 C 0.441406 -1.054688 0.484375 -1.117188 0.546875 -1.171875 C 0.609375 -1.234375 0.691406 -1.269531 0.796875 -1.28125 C 0.898438 -1.289062 1.019531 -1.273438 1.15625 -1.234375 C 1.238281 -1.203125 1.320312 -1.160156 1.40625 -1.109375 C 1.488281 -1.066406 1.550781 -1.015625 1.59375 -0.953125 L 1.4375 -0.734375 C 1.3125 -0.847656 1.1875 -0.925781 1.0625 -0.96875 C 0.96875 -1 0.894531 -1.007812 0.84375 -1 C 0.789062 -0.988281 0.757812 -0.957031 0.75 -0.90625 C 0.726562 -0.851562 0.738281 -0.804688 0.78125 -0.765625 C 0.820312 -0.722656 0.894531 -0.671875 1 -0.609375 C 1.09375 -0.546875 1.171875 -0.492188 1.234375 -0.453125 C 1.304688 -0.410156 1.351562 -0.351562 1.375 -0.28125 C 1.40625 -0.207031 1.40625 -0.125 1.375 -0.03125 C 1.351562 0.0507812 1.304688 0.117188 1.234375 0.171875 C 1.171875 0.222656 1.082031 0.253906 0.96875 0.265625 C 0.863281 0.285156 0.75 0.273438 0.625 0.234375 Z M 0.625 0.234375 "/></g></g></g><g fill="#ffffff" fill-opacity="1"><g transform="translate(63.446882, 71.825229)"><g><path d="M 0.53125 -1.40625 L 0.875 -1.328125 L 0.515625 0.125 L 0.171875 0.046875 Z M 0.53125 -1.40625 "/></g></g></g><g fill="#ffffff" fill-opacity="1"><g transform="translate(64.423789, 72.078664)"><g><path d="M 1.78125 -1.1875 L 1.515625 0.28125 L 1.25 0.21875 L 0.65625 -0.796875 L 0.5 0.09375 L 0.171875 0.03125 L 0.4375 -1.4375 L 0.734375 -1.390625 L 1.296875 -0.359375 L 1.453125 -1.25 Z M 1.78125 -1.1875 "/></g></g></g><g fill="#ffffff" fill-opacity="1"><g transform="translate(66.4417, 72.423915)"><g><path d="M 0.890625 0.109375 C 0.742188 0.0976562 0.609375 0.0546875 0.484375 -0.015625 C 0.367188 -0.0976562 0.28125 -0.203125 0.21875 -0.328125 C 0.15625 -0.460938 0.128906 -0.601562 0.140625 -0.75 C 0.160156 -0.894531 0.210938 -1.019531 0.296875 -1.125 C 0.378906 -1.238281 0.484375 -1.320312 0.609375 -1.375 C 0.742188 -1.4375 0.882812 -1.460938 1.03125 -1.453125 C 1.164062 -1.441406 1.28125 -1.40625 1.375 -1.34375 C 1.476562 -1.289062 1.5625 -1.21875 1.625 -1.125 L 1.390625 -0.9375 C 1.296875 -1.0625 1.171875 -1.132812 1.015625 -1.15625 C 0.929688 -1.164062 0.847656 -1.148438 0.765625 -1.109375 C 0.691406 -1.078125 0.628906 -1.023438 0.578125 -0.953125 C 0.535156 -0.878906 0.507812 -0.796875 0.5 -0.703125 C 0.488281 -0.609375 0.5 -0.523438 0.53125 -0.453125 C 0.570312 -0.378906 0.628906 -0.316406 0.703125 -0.265625 C 0.773438 -0.222656 0.851562 -0.195312 0.9375 -0.1875 C 1.09375 -0.164062 1.226562 -0.21875 1.34375 -0.34375 L 1.53125 -0.09375 C 1.457031 -0.0195312 1.363281 0.03125 1.25 0.0625 C 1.144531 0.101562 1.023438 0.117188 0.890625 0.109375 Z M 0.890625 0.109375 "/></g></g></g><g fill="#ffffff" fill-opacity="1"><g transform="translate(68.318125, 72.576478)"><g><path d="M 1.34375 -0.265625 L 1.34375 0.015625 L 0.171875 0 L 0.1875 -1.5 L 1.328125 -1.484375 L 1.328125 -1.203125 L 0.53125 -1.21875 L 0.515625 -0.890625 L 1.21875 -0.875 L 1.21875 -0.609375 L 0.515625 -0.625 L 0.515625 -0.28125 Z M 1.34375 -0.265625 "/></g></g></g><g fill="#ffffff" fill-opacity="1"><g transform="translate(70.053971, 72.568167)"><g/></g></g><g fill="#ffffff" fill-opacity="1"><g transform="translate(70.957331, 72.521869)"><g><path d="M 1.171875 -0.40625 L 1.203125 -0.125 L 0.078125 -0.015625 L 0.046875 -0.234375 L 0.578125 -0.84375 C 0.617188 -0.90625 0.648438 -0.957031 0.671875 -1 C 0.691406 -1.050781 0.703125 -1.097656 0.703125 -1.140625 C 0.691406 -1.203125 0.664062 -1.242188 0.625 -1.265625 C 0.582031 -1.296875 0.519531 -1.304688 0.4375 -1.296875 C 0.375 -1.285156 0.316406 -1.265625 0.265625 -1.234375 C 0.210938 -1.203125 0.171875 -1.160156 0.140625 -1.109375 L -0.140625 -1.25 C -0.078125 -1.332031 -0.00390625 -1.40625 0.078125 -1.46875 C 0.171875 -1.53125 0.285156 -1.566406 0.421875 -1.578125 C 0.535156 -1.585938 0.632812 -1.578125 0.71875 -1.546875 C 0.8125 -1.523438 0.882812 -1.484375 0.9375 -1.421875 C 1 -1.367188 1.035156 -1.296875 1.046875 -1.203125 C 1.046875 -1.117188 1.03125 -1.039062 1 -0.96875 C 0.976562 -0.894531 0.925781 -0.804688 0.84375 -0.703125 L 0.53125 -0.34375 Z M 1.171875 -0.40625 "/></g></g></g><g fill="#ffffff" fill-opacity="1"><g transform="translate(72.520237, 72.3446)"><g><path d="M 0.703125 -0.09375 C 0.585938 -0.0703125 0.476562 -0.0820312 0.375 -0.125 C 0.269531 -0.175781 0.175781 -0.25 0.09375 -0.34375 C 0.0195312 -0.445312 -0.03125 -0.582031 -0.0625 -0.75 C -0.0820312 -0.90625 -0.078125 -1.046875 -0.046875 -1.171875 C -0.015625 -1.304688 0.0390625 -1.410156 0.125 -1.484375 C 0.207031 -1.554688 0.304688 -1.601562 0.421875 -1.625 C 0.546875 -1.65625 0.660156 -1.648438 0.765625 -1.609375 C 0.878906 -1.566406 0.976562 -1.488281 1.0625 -1.375 C 1.144531 -1.269531 1.195312 -1.140625 1.21875 -0.984375 C 1.25 -0.816406 1.242188 -0.671875 1.203125 -0.546875 C 1.171875 -0.429688 1.109375 -0.332031 1.015625 -0.25 C 0.929688 -0.175781 0.828125 -0.125 0.703125 -0.09375 Z M 0.65625 -0.390625 C 0.75 -0.410156 0.8125 -0.460938 0.84375 -0.546875 C 0.882812 -0.628906 0.890625 -0.753906 0.859375 -0.921875 C 0.828125 -1.085938 0.78125 -1.203125 0.71875 -1.265625 C 0.65625 -1.335938 0.578125 -1.363281 0.484375 -1.34375 C 0.398438 -1.332031 0.335938 -1.28125 0.296875 -1.1875 C 0.265625 -1.101562 0.265625 -0.976562 0.296875 -0.8125 C 0.328125 -0.644531 0.375 -0.53125 0.4375 -0.46875 C 0.5 -0.40625 0.570312 -0.378906 0.65625 -0.390625 Z M 0.65625 -0.390625 "/></g></g></g><g fill="#ffffff" fill-opacity="1"><g transform="translate(74.250916, 72.008969)"><g><path d="M 1.078125 -0.578125 L 1.15625 -0.3125 L 0.078125 -0.015625 L 0.015625 -0.234375 L 0.4375 -0.90625 C 0.46875 -0.976562 0.488281 -1.035156 0.5 -1.078125 C 0.519531 -1.128906 0.523438 -1.175781 0.515625 -1.21875 C 0.492188 -1.28125 0.460938 -1.316406 0.421875 -1.328125 C 0.378906 -1.347656 0.316406 -1.347656 0.234375 -1.328125 C 0.171875 -1.316406 0.113281 -1.289062 0.0625 -1.25 C 0.0195312 -1.21875 -0.015625 -1.171875 -0.046875 -1.109375 L -0.3125 -1.203125 C -0.269531 -1.304688 -0.207031 -1.394531 -0.125 -1.46875 C -0.0507812 -1.539062 0.0507812 -1.597656 0.1875 -1.640625 C 0.289062 -1.671875 0.390625 -1.675781 0.484375 -1.65625 C 0.578125 -1.644531 0.65625 -1.609375 0.71875 -1.546875 C 0.78125 -1.492188 0.820312 -1.425781 0.84375 -1.34375 C 0.863281 -1.257812 0.863281 -1.175781 0.84375 -1.09375 C 0.832031 -1.019531 0.789062 -0.929688 0.71875 -0.828125 L 0.46875 -0.40625 Z M 1.078125 -0.578125 "/></g></g></g><g fill="#ffffff" fill-opacity="1"><g transform="translate(75.758712, 71.594494)"><g><path d="M 0.15625 -1.625 L 0.625 -0.203125 L 0.296875 -0.09375 L -0.078125 -1.25 L -0.359375 -1.15625 L -0.453125 -1.421875 Z M 0.15625 -1.625 "/></g></g></g><g clip-path="url(#ccb4e5755b)"><path fill="#fcb036" d="M 83.140625 62.945312 C 83.144531 62.945312 83.144531 62.941406 83.148438 62.941406 C 83.148438 62.941406 83.152344 62.945312 83.152344 62.945312 C 83.195312 63.066406 83.53125 63.96875 83.820312 64.28125 C 84.109375 64.59375 84.894531 64.902344 85.003906 64.945312 C 85.003906 64.945312 85.003906 64.945312 85.003906 64.949219 C 85.003906 64.949219 85.003906 64.953125 85.003906 64.953125 C 84.894531 64.996094 84.089844 65.316406 83.800781 65.628906 C 83.511719 65.941406 83.195312 66.824219 83.152344 66.949219 C 83.152344 66.953125 83.148438 66.953125 83.148438 66.953125 C 83.144531 66.953125 83.144531 66.953125 83.140625 66.949219 C 83.105469 66.824219 82.84375 65.957031 82.554688 65.644531 C 82.265625 65.332031 81.398438 64.992188 81.289062 64.953125 C 81.289062 64.953125 81.289062 64.949219 81.289062 64.949219 C 81.289062 64.945312 81.289062 64.945312 81.289062 64.945312 C 81.394531 64.898438 82.222656 64.515625 82.511719 64.203125 C 82.800781 63.890625 83.101562 63.0625 83.140625 62.945312 Z M 83.140625 62.945312 " fill-opacity="1" fill-rule="evenodd"/></g></svg>