<svg xmlns="http://www.w3.org/2000/svg" xmlns:xlink="http://www.w3.org/1999/xlink" width="180" zoomAndPan="magnify" viewBox="0 0 135 78.749999" height="105" preserveAspectRatio="xMidYMid meet" version="1.0"><defs><g/><clipPath id="d27a6b2500"><path d="M 12 27 L 51 27 L 51 67 L 12 67 Z M 12 27 " clip-rule="nonzero"/></clipPath><clipPath id="c782af0b83"><path d="M 44.289062 26.914062 L 50.703125 33 L 16.949219 68.558594 L 10.539062 62.472656 Z M 44.289062 26.914062 " clip-rule="nonzero"/></clipPath><clipPath id="8e71d2833e"><path d="M 44.289062 26.914062 L 50.703125 33 L 16.949219 68.558594 L 10.539062 62.472656 Z M 44.289062 26.914062 " clip-rule="nonzero"/></clipPath><clipPath id="cb9db4f80e"><path d="M 26 32 L 60 32 L 60 67 L 26 67 Z M 26 32 " clip-rule="nonzero"/></clipPath><clipPath id="f134789cfc"><path d="M 22.574219 38.335938 L 33.058594 28.371094 L 63.507812 60.417969 L 53.019531 70.382812 Z M 22.574219 38.335938 " clip-rule="nonzero"/></clipPath><clipPath id="d6a0ce7fff"><path d="M 22.574219 38.335938 L 33.058594 28.371094 L 63.507812 60.417969 L 53.019531 70.382812 Z M 22.574219 38.335938 " clip-rule="nonzero"/></clipPath><clipPath id="e2b926e8d2"><path d="M 0.214844 3 L 33 3 L 33 38 L 0.214844 38 Z M 0.214844 3 " clip-rule="nonzero"/></clipPath><clipPath id="a3ce8dfd53"><path d="M -3.753906 9.789062 L 6.734375 -0.171875 L 37.179688 31.875 L 26.691406 41.835938 Z M -3.753906 9.789062 " clip-rule="nonzero"/></clipPath><clipPath id="aa67601964"><path d="M -3.753906 9.789062 L 6.734375 -0.171875 L 37.179688 31.875 L 26.691406 41.835938 Z M -3.753906 9.789062 " clip-rule="nonzero"/></clipPath><clipPath id="556ae166e0"><path d="M 34 3 L 73 3 L 73 44 L 34 44 Z M 34 3 " clip-rule="nonzero"/></clipPath><clipPath id="a013102703"><path d="M 66.082031 3.746094 L 72.496094 9.832031 L 38.742188 45.386719 L 32.332031 39.300781 Z M 66.082031 3.746094 " clip-rule="nonzero"/></clipPath><clipPath id="2424884422"><path d="M 66.082031 3.746094 L 72.496094 9.832031 L 38.742188 45.386719 L 32.332031 39.300781 Z M 66.082031 3.746094 " clip-rule="nonzero"/></clipPath><clipPath id="b815309c11"><path d="M 14.945312 21.054688 L 56.699219 21.054688 L 56.699219 62.808594 L 14.945312 62.808594 Z M 14.945312 21.054688 " clip-rule="nonzero"/></clipPath><clipPath id="75a25cbc8c"><path d="M 35.824219 21.054688 C 24.292969 21.054688 14.945312 30.398438 14.945312 41.929688 C 14.945312 53.460938 24.292969 62.808594 35.824219 62.808594 C 47.355469 62.808594 56.699219 53.460938 56.699219 41.929688 C 56.699219 30.398438 47.355469 21.054688 35.824219 21.054688 Z M 35.824219 21.054688 " clip-rule="nonzero"/></clipPath><clipPath id="395af05787"><path d="M 9.15625 15.261719 L 62.199219 15.261719 L 62.199219 68.308594 L 9.15625 68.308594 Z M 9.15625 15.261719 " clip-rule="nonzero"/></clipPath><clipPath id="4a63c2b4f7"><path d="M 21 21.054688 L 50.652344 21.054688 L 50.652344 41 L 21 41 Z M 21 21.054688 " clip-rule="nonzero"/></clipPath><clipPath id="7844d05891"><path d="M 7.386719 41.929688 L 64.449219 41.929688 L 64.449219 58.003906 L 7.386719 58.003906 Z M 7.386719 41.929688 " clip-rule="nonzero"/></clipPath><clipPath id="3f2aa20761"><path d="M 20.957031 54.464844 L 24.171875 54.464844 L 24.171875 57.679688 L 20.957031 57.679688 Z M 20.957031 54.464844 " clip-rule="nonzero"/></clipPath><clipPath id="8b6ca8a0a7"><path d="M 47.296875 54.464844 L 50.511719 54.464844 L 50.511719 57.679688 L 47.296875 57.679688 Z M 47.296875 54.464844 " clip-rule="nonzero"/></clipPath></defs><g fill="#fffff7" fill-opacity="1"><g transform="translate(65.827252, 41.552237)"><g><path d="M 1.253906 0 L 4.230469 0 C 4.09375 -0.542969 3.953125 -1.691406 3.953125 -2.773438 L 3.953125 -7.859375 L 4.140625 -7.859375 L 11.671875 0 L 13.890625 0 L 13.890625 -8.246094 C 13.890625 -9.300781 14 -10.246094 14.167969 -10.851562 L 11.191406 -10.851562 C 11.332031 -10.355469 11.472656 -9.363281 11.472656 -8.292969 L 11.472656 -3.238281 L 11.269531 -3.238281 L 4.0625 -10.851562 L 1.253906 -10.851562 C 1.441406 -10.246094 1.550781 -9.300781 1.550781 -8.246094 L 1.550781 -2.605469 C 1.550781 -1.550781 1.425781 -0.605469 1.253906 0 Z M 1.253906 0 "/></g></g></g><g fill="#fffff7" fill-opacity="1"><g transform="translate(81.252449, 41.552237)"><g><path d="M 3.394531 0.21875 C 6.789062 0.21875 8.636719 -1.332031 8.636719 -4.511719 L 8.636719 -8.246094 C 8.636719 -9.300781 8.742188 -10.246094 8.929688 -10.851562 L 5.9375 -10.851562 C 6.109375 -10.246094 6.214844 -9.300781 6.214844 -8.246094 L 6.214844 -4.929688 C 6.214844 -2.929688 5.207031 -1.707031 3.179688 -1.707031 C 2.078125 -1.707031 1.164062 -1.984375 0.511719 -2.480469 L 0.1875 -0.417969 C 1.039062 -0.0625 2.246094 0.21875 3.394531 0.21875 Z M 3.394531 0.21875 "/></g></g></g><g fill="#fffff7" fill-opacity="1"><g transform="translate(91.329208, 41.552237)"><g><path d="M -0.1875 0 L 2.851562 0 C 2.914062 -0.402344 3.179688 -0.914062 3.550781 -1.707031 L 4 -2.542969 L 10.152344 -2.542969 L 10.605469 -1.722656 C 11.054688 -0.914062 11.238281 -0.417969 11.300781 0 L 14.339844 0 C 13.921875 -0.605469 13.316406 -1.597656 12.804688 -2.605469 L 9.828125 -8.261719 C 9.410156 -9.117188 9.132812 -10.152344 8.992188 -10.851562 L 5.195312 -10.851562 C 5.085938 -10.246094 4.820312 -9.269531 4.308594 -8.246094 L 1.363281 -2.605469 C 0.835938 -1.613281 0.234375 -0.605469 -0.1875 0 Z M 4.898438 -4.386719 L 6.324219 -7.148438 C 6.605469 -7.75 6.789062 -8.246094 7.007812 -8.867188 L 7.148438 -8.867188 C 7.347656 -8.261719 7.550781 -7.734375 7.8125 -7.164062 L 9.253906 -4.386719 Z M 4.898438 -4.386719 "/></g></g></g><g fill="#fffff7" fill-opacity="1"><g transform="translate(105.483181, 41.552237)"><g><path d="M 1.253906 0 L 9.347656 0 C 11.640625 0 13.347656 -1.007812 13.347656 -2.867188 C 13.347656 -4.683594 11.734375 -5.582031 9.703125 -5.582031 L 9.410156 -5.582031 L 9.410156 -5.734375 L 9.566406 -5.734375 C 11.347656 -5.734375 12.726562 -6.742188 12.726562 -8.214844 C 12.726562 -9.9375 11.117188 -10.851562 9.085938 -10.851562 L 1.253906 -10.851562 C 1.425781 -10.246094 1.535156 -9.300781 1.535156 -8.246094 L 1.535156 -2.605469 C 1.535156 -1.550781 1.441406 -0.605469 1.253906 0 Z M 3.953125 -6.511719 L 3.953125 -9.007812 L 8.386719 -9.007812 C 9.503906 -9.007812 10.371094 -8.589844 10.371094 -7.765625 C 10.371094 -6.945312 9.488281 -6.511719 8.355469 -6.511719 Z M 3.953125 -1.921875 L 3.953125 -4.773438 L 8.589844 -4.773438 C 9.9375 -4.773438 10.914062 -4.246094 10.914062 -3.316406 C 10.914062 -2.402344 9.984375 -1.921875 8.621094 -1.921875 Z M 3.953125 -1.921875 "/></g></g></g><g fill="#fffff7" fill-opacity="1"><g transform="translate(119.528636, 41.552237)"><g><path d="M 9.875 0.292969 C 11.007812 0.292969 11.84375 0.0625 12.371094 -0.046875 L 12.527344 -2.667969 C 11.828125 -2.308594 10.277344 -2.015625 9.132812 -2.015625 L 3.628906 -2.015625 L 3.597656 -2.15625 L 12.078125 -8.976562 L 12.078125 -10.851562 L 1.300781 -10.851562 L 0.835938 -8.386719 C 1.316406 -8.652344 1.953125 -8.742188 3.070312 -8.742188 L 9.101562 -8.742188 L 9.117188 -8.636719 L 0.605469 -1.84375 L 0.605469 0.203125 C 1.378906 0.015625 2.605469 -0.15625 4.125 -0.15625 C 6.386719 -0.15625 7.796875 0.292969 9.875 0.292969 Z M 9.875 0.292969 "/></g></g></g><g fill="#f2d479" fill-opacity="1"><g transform="translate(67.341741, 49.522988)"><g><path d="M 3.1875 -2.96875 L 1.953125 -1.734375 L 1.953125 0 L 1 0 L 1 -6.6875 L 1.953125 -6.6875 L 1.953125 -2.953125 L 5.59375 -6.6875 L 6.6875 -6.6875 L 3.828125 -3.6875 L 6.859375 0 L 5.75 0 Z M 3.1875 -2.96875 "/></g></g></g><g fill="#f2d479" fill-opacity="1"><g transform="translate(77.970733, 49.522988)"><g><path d="M 1 -6.6875 L 1.953125 -6.6875 L 1.953125 0 L 1 0 Z M 1 -6.6875 "/></g></g></g><g fill="#f2d479" fill-opacity="1"><g transform="translate(84.686794, 49.522988)"><g><path d="M 2.328125 -5.859375 L 0.03125 -5.859375 L 0.03125 -6.6875 L 5.578125 -6.6875 L 5.578125 -5.859375 L 3.28125 -5.859375 L 3.28125 0 L 2.328125 0 Z M 2.328125 -5.859375 "/></g></g></g><g fill="#f2d479" fill-opacity="1"><g transform="translate(94.052929, 49.522988)"><g><path d="M 4 0.078125 C 3.332031 0.078125 2.726562 -0.0664062 2.1875 -0.359375 C 1.644531 -0.660156 1.21875 -1.070312 0.90625 -1.59375 C 0.601562 -2.113281 0.453125 -2.695312 0.453125 -3.34375 C 0.453125 -4 0.601562 -4.582031 0.90625 -5.09375 C 1.21875 -5.613281 1.644531 -6.019531 2.1875 -6.3125 C 2.726562 -6.613281 3.332031 -6.765625 4 -6.765625 C 4.53125 -6.765625 5.007812 -6.675781 5.4375 -6.5 C 5.875 -6.332031 6.242188 -6.078125 6.546875 -5.734375 L 5.921875 -5.125 C 5.421875 -5.65625 4.796875 -5.921875 4.046875 -5.921875 C 3.546875 -5.921875 3.09375 -5.804688 2.6875 -5.578125 C 2.289062 -5.359375 1.976562 -5.050781 1.75 -4.65625 C 1.53125 -4.269531 1.421875 -3.832031 1.421875 -3.34375 C 1.421875 -2.863281 1.53125 -2.425781 1.75 -2.03125 C 1.976562 -1.632812 2.289062 -1.328125 2.6875 -1.109375 C 3.09375 -0.890625 3.546875 -0.78125 4.046875 -0.78125 C 4.785156 -0.78125 5.410156 -1.046875 5.921875 -1.578125 L 6.546875 -0.96875 C 6.242188 -0.625 5.875 -0.363281 5.4375 -0.1875 C 5 -0.0078125 4.519531 0.078125 4 0.078125 Z M 4 0.078125 "/></g></g></g><g fill="#f2d479" fill-opacity="1"><g transform="translate(104.720182, 49.522988)"><g><path d="M 6.765625 -6.6875 L 6.765625 0 L 5.796875 0 L 5.796875 -2.984375 L 1.953125 -2.984375 L 1.953125 0 L 1 0 L 1 -6.6875 L 1.953125 -6.6875 L 1.953125 -3.8125 L 5.796875 -3.8125 L 5.796875 -6.6875 Z M 6.765625 -6.6875 "/></g></g></g><g fill="#f2d479" fill-opacity="1"><g transform="translate(116.238905, 49.522988)"><g><path d="M 5.859375 -0.828125 L 5.859375 0 L 1 0 L 1 -6.6875 L 5.734375 -6.6875 L 5.734375 -5.859375 L 1.953125 -5.859375 L 1.953125 -3.8125 L 5.3125 -3.8125 L 5.3125 -3 L 1.953125 -3 L 1.953125 -0.828125 Z M 5.859375 -0.828125 "/></g></g></g><g fill="#f2d479" fill-opacity="1"><g transform="translate(126.399105, 49.522988)"><g><path d="M 6.765625 -6.6875 L 6.765625 0 L 5.96875 0 L 1.953125 -4.984375 L 1.953125 0 L 1 0 L 1 -6.6875 L 1.78125 -6.6875 L 5.796875 -1.703125 L 5.796875 -6.6875 Z M 6.765625 -6.6875 "/></g></g></g><g clip-path="url(#d27a6b2500)"><g clip-path="url(#c782af0b83)"><g clip-path="url(#8e71d2833e)"><path fill="#000000" d="M 32.59375 43.429688 C 33.542969 42.429688 33.792969 41.042969 33.316406 39.957031 C 33.050781 39.347656 33.207031 38.589844 33.710938 38.058594 L 43.925781 27.296875 C 44.125 27.089844 44.46875 27.09375 44.695312 27.308594 C 44.921875 27.523438 44.945312 27.867188 44.746094 28.074219 L 36.925781 36.316406 C 36.789062 36.457031 36.71875 36.640625 36.726562 36.835938 C 36.730469 37.027344 36.8125 37.210938 36.949219 37.34375 C 36.953125 37.34375 36.953125 37.34375 36.953125 37.34375 C 37.089844 37.476562 37.277344 37.546875 37.46875 37.542969 C 37.664062 37.535156 37.84375 37.457031 37.976562 37.316406 C 39.773438 35.421875 45.800781 29.074219 45.800781 29.074219 C 46 28.867188 46.34375 28.871094 46.570312 29.085938 C 46.796875 29.300781 46.816406 29.644531 46.621094 29.851562 L 38.796875 38.09375 C 38.664062 38.234375 38.59375 38.421875 38.597656 38.613281 C 38.601562 38.804688 38.683594 38.988281 38.824219 39.121094 C 38.964844 39.253906 39.152344 39.324219 39.34375 39.320312 C 39.535156 39.316406 39.71875 39.234375 39.851562 39.09375 C 41.648438 37.203125 47.671875 30.851562 47.671875 30.851562 C 47.871094 30.644531 48.214844 30.648438 48.441406 30.863281 C 48.667969 31.078125 48.691406 31.421875 48.492188 31.632812 L 40.671875 39.871094 C 40.539062 40.011719 40.464844 40.199219 40.472656 40.390625 C 40.476562 40.582031 40.558594 40.765625 40.699219 40.898438 C 40.835938 41.03125 41.023438 41.101562 41.214844 41.097656 C 41.410156 41.09375 41.589844 41.011719 41.722656 40.871094 C 43.519531 38.980469 49.546875 32.632812 49.546875 32.632812 C 49.746094 32.421875 50.089844 32.425781 50.316406 32.640625 C 50.542969 32.855469 50.5625 33.199219 50.367188 33.410156 L 40.804688 43.480469 L 40.148438 44.171875 C 39.644531 44.703125 38.894531 44.902344 38.273438 44.664062 C 37.164062 44.25 35.792969 44.570312 34.847656 45.566406 L 20.984375 61.015625 C 20.984375 61.015625 18.410156 63.988281 16.75 65.90625 C 16.390625 66.320312 15.878906 66.566406 15.332031 66.59375 C 14.785156 66.621094 14.253906 66.421875 13.855469 66.046875 C 13.652344 65.851562 13.441406 65.652344 13.234375 65.457031 C 12.839844 65.082031 12.613281 64.558594 12.609375 64.011719 C 12.609375 63.464844 12.832031 62.941406 13.226562 62.558594 C 15.054688 60.804688 17.886719 58.078125 17.886719 58.078125 Z M 32.59375 43.429688 " fill-opacity="1" fill-rule="evenodd"/></g></g></g><g clip-path="url(#cb9db4f80e)"><g clip-path="url(#f134789cfc)"><g clip-path="url(#d6a0ce7fff)"><path fill="#000000" d="M 38.886719 48.996094 C 36.566406 50.148438 33.722656 50.070312 30.976562 47.179688 C 27.300781 43.308594 25.175781 35.859375 27.726562 33.4375 C 30.273438 31.015625 37.605469 33.519531 41.28125 37.390625 C 44.023438 40.277344 43.960938 43.113281 42.695312 45.375 C 42.515625 46.257812 42.789062 47.253906 43.507812 48.011719 L 54.429688 58.878906 C 54.429688 58.878906 57.007812 61.296875 58.675781 62.867188 C 59.042969 63.207031 59.25 63.683594 59.25 64.179688 C 59.25 64.679688 59.046875 65.15625 58.683594 65.5 L 58.160156 66 C 57.796875 66.34375 57.3125 66.523438 56.8125 66.496094 C 56.316406 66.46875 55.851562 66.238281 55.53125 65.855469 C 54.050781 64.105469 51.769531 61.410156 51.769531 61.410156 L 41.472656 49.941406 C 40.757812 49.191406 39.777344 48.863281 38.886719 48.996094 Z M 38.886719 48.996094 " fill-opacity="1" fill-rule="evenodd"/></g></g></g><g clip-path="url(#e2b926e8d2)"><g clip-path="url(#a3ce8dfd53)"><g clip-path="url(#aa67601964)"><path fill="#f5f3ef" d="M 12.5625 20.453125 C 10.238281 21.605469 7.394531 21.527344 4.648438 18.632812 C 0.972656 14.765625 -1.152344 7.316406 1.398438 4.894531 C 3.945312 2.472656 11.277344 4.976562 14.953125 8.84375 C 17.695312 11.734375 17.636719 14.570312 16.367188 16.832031 C 16.1875 17.710938 16.460938 18.710938 17.179688 19.464844 L 28.101562 30.335938 C 28.101562 30.335938 30.679688 32.753906 32.351562 34.324219 C 32.714844 34.664062 32.921875 35.140625 32.921875 35.636719 C 32.921875 36.136719 32.71875 36.613281 32.359375 36.957031 L 31.832031 37.457031 C 31.46875 37.800781 30.984375 37.976562 30.488281 37.953125 C 29.988281 37.921875 29.523438 37.691406 29.203125 37.3125 C 27.722656 35.5625 25.441406 32.863281 25.441406 32.863281 L 15.144531 21.398438 C 14.429688 20.644531 13.449219 20.320312 12.5625 20.453125 Z M 12.5625 20.453125 " fill-opacity="1" fill-rule="evenodd"/></g></g></g><g clip-path="url(#556ae166e0)"><g clip-path="url(#a013102703)"><g clip-path="url(#2424884422)"><path fill="#f5f3ef" d="M 54.386719 20.261719 C 55.335938 19.261719 55.585938 17.875 55.113281 16.789062 C 54.84375 16.175781 55 15.417969 55.507812 14.886719 L 65.71875 4.125 C 65.917969 3.917969 66.261719 3.921875 66.488281 4.136719 C 66.714844 4.351562 66.738281 4.695312 66.539062 4.902344 L 58.71875 13.144531 C 58.585938 13.285156 58.511719 13.472656 58.519531 13.664062 C 58.523438 13.855469 58.605469 14.039062 58.746094 14.171875 C 58.882812 14.304688 59.070312 14.375 59.261719 14.371094 C 59.457031 14.367188 59.636719 14.285156 59.773438 14.144531 C 61.566406 12.253906 67.59375 5.90625 67.59375 5.90625 C 67.792969 5.695312 68.136719 5.699219 68.363281 5.914062 C 68.589844 6.128906 68.613281 6.472656 68.414062 6.683594 L 60.589844 14.921875 C 60.457031 15.0625 60.386719 15.25 60.390625 15.441406 C 60.398438 15.636719 60.476562 15.816406 60.617188 15.949219 C 60.757812 16.082031 60.945312 16.15625 61.136719 16.148438 C 61.328125 16.144531 61.511719 16.0625 61.644531 15.921875 C 63.441406 14.03125 69.46875 7.683594 69.46875 7.683594 C 69.664062 7.472656 70.011719 7.476562 70.234375 7.691406 C 70.464844 7.910156 70.484375 8.25 70.285156 8.460938 L 62.464844 16.703125 C 62.332031 16.839844 62.261719 17.027344 62.265625 17.222656 C 62.269531 17.414062 62.351562 17.59375 62.492188 17.726562 C 62.632812 17.859375 62.816406 17.933594 63.011719 17.929688 C 63.203125 17.921875 63.382812 17.839844 63.519531 17.703125 C 65.3125 15.808594 71.339844 9.460938 71.339844 9.460938 C 71.539062 9.25 71.882812 9.257812 72.109375 9.472656 C 72.335938 9.6875 72.359375 10.03125 72.160156 10.238281 L 62.597656 20.3125 L 61.941406 21 C 61.4375 21.535156 60.691406 21.730469 60.066406 21.496094 C 58.957031 21.078125 57.585938 21.398438 56.640625 22.398438 L 42.78125 37.847656 C 42.78125 37.847656 40.203125 40.820312 38.542969 42.734375 C 38.183594 43.148438 37.671875 43.398438 37.125 43.425781 C 36.578125 43.449219 36.046875 43.253906 35.648438 42.875 C 35.445312 42.679688 35.234375 42.480469 35.027344 42.285156 C 34.632812 41.910156 34.40625 41.386719 34.402344 40.839844 C 34.402344 40.292969 34.625 39.769531 35.019531 39.390625 C 36.847656 37.632812 39.679688 34.90625 39.679688 34.90625 Z M 54.386719 20.261719 " fill-opacity="1" fill-rule="evenodd"/></g></g></g><g clip-path="url(#b815309c11)"><g clip-path="url(#75a25cbc8c)"><path fill="#000000" d="M 14.945312 21.054688 L 56.699219 21.054688 L 56.699219 62.808594 L 14.945312 62.808594 Z M 14.945312 21.054688 " fill-opacity="1" fill-rule="nonzero"/></g></g><g clip-path="url(#395af05787)"><path fill="#000000" d="M 35.828125 15.257812 C 21.109375 15.257812 9.160156 27.207031 9.160156 41.925781 C 9.160156 56.644531 21.109375 68.59375 35.828125 68.59375 C 50.542969 68.59375 62.492188 56.644531 62.492188 41.925781 C 62.492188 27.207031 50.542969 15.257812 35.828125 15.257812 Z M 35.828125 17.453125 C 49.332031 17.453125 60.300781 28.417969 60.300781 41.925781 C 60.300781 55.433594 49.332031 66.398438 35.828125 66.398438 C 22.320312 66.398438 11.351562 55.433594 11.351562 41.925781 C 11.351562 28.417969 22.320312 17.453125 35.828125 17.453125 Z M 35.828125 17.453125 " fill-opacity="1" fill-rule="evenodd"/></g><path fill="#d42c00" d="M 35.828125 17.929688 C 22.582031 17.929688 11.832031 28.683594 11.832031 41.925781 C 11.832031 55.167969 22.582031 65.921875 35.828125 65.921875 C 49.070312 65.921875 59.820312 55.167969 59.820312 41.925781 C 59.820312 28.683594 49.070312 17.929688 35.828125 17.929688 Z M 35.828125 24.105469 C 45.660156 24.105469 53.644531 32.089844 53.644531 41.925781 C 53.644531 51.761719 45.660156 59.746094 35.828125 59.746094 C 25.992188 59.746094 18.007812 51.761719 18.007812 41.925781 C 18.007812 32.089844 25.992188 24.105469 35.828125 24.105469 Z M 35.828125 24.105469 " fill-opacity="1" fill-rule="evenodd"/><path fill="#000000" d="M 50.5625 51.941406 L 54.855469 56.539062 C 50.464844 62.242188 43.574219 65.921875 35.828125 65.921875 C 28.132812 65.921875 21.277344 62.292969 16.886719 56.652344 L 21.175781 52.0625 C 24.394531 56.703125 29.757812 59.746094 35.828125 59.746094 C 41.949219 59.746094 47.351562 56.652344 50.5625 51.941406 Z M 50.5625 51.941406 " fill-opacity="1" fill-rule="evenodd"/><path fill="#fcb036" d="M 35.828125 17.316406 C 22.246094 17.316406 11.21875 28.34375 11.21875 41.925781 C 11.21875 55.507812 22.246094 66.535156 35.828125 66.535156 C 49.410156 66.535156 60.4375 55.507812 60.4375 41.925781 C 60.4375 28.34375 49.410156 17.316406 35.828125 17.316406 Z M 35.828125 18.0625 C 48.996094 18.0625 59.6875 28.753906 59.6875 41.925781 C 59.6875 55.09375 48.996094 65.789062 35.828125 65.789062 C 22.65625 65.789062 11.964844 55.09375 11.964844 41.925781 C 11.964844 28.753906 22.65625 18.0625 35.828125 18.0625 Z M 35.828125 18.0625 " fill-opacity="1" fill-rule="evenodd"/><g clip-path="url(#4a63c2b4f7)"><path fill="#fffff7" d="M 28.328125 25.449219 C 28.339844 25.386719 28.355469 25.328125 28.375 25.265625 C 28.453125 24.988281 28.554688 24.722656 28.671875 24.476562 C 29.171875 23.414062 29.992188 22.617188 30.988281 22.074219 C 31.9375 21.550781 33.054688 21.265625 34.195312 21.195312 C 35.878906 21.09375 37.628906 21.464844 39.023438 22.257812 C 40.042969 22.835938 40.875 23.636719 41.363281 24.640625 C 41.414062 24.742188 41.46875 24.84375 41.519531 24.945312 C 43.820312 24.121094 45.765625 24.332031 47.246094 25.128906 C 49.519531 26.359375 50.695312 29 50.363281 31.503906 C 50.007812 34.21875 47.882812 36.792969 43.445312 37.171875 L 43.445312 40.6875 C 43.445312 40.773438 43.398438 40.851562 43.324219 40.898438 C 43.25 40.941406 43.15625 40.941406 43.082031 40.898438 C 38.242188 38.160156 33.214844 38.144531 27.996094 40.902344 C 27.917969 40.941406 27.828125 40.941406 27.753906 40.894531 C 27.679688 40.851562 27.636719 40.773438 27.636719 40.6875 L 27.636719 37.828125 C 23.0625 37.644531 20.949219 34.496094 21.09375 31.429688 C 21.242188 28.335938 23.703125 25.292969 28.328125 25.449219 Z M 28.328125 25.449219 " fill-opacity="1" fill-rule="evenodd"/><path fill="#000000" d="M 28.300781 25.417969 C 28.3125 25.363281 28.328125 25.3125 28.34375 25.257812 C 28.421875 24.976562 28.523438 24.710938 28.640625 24.460938 C 29.144531 23.394531 29.972656 22.59375 30.972656 22.046875 C 31.925781 21.523438 33.046875 21.234375 34.195312 21.164062 C 35.882812 21.058594 37.640625 21.433594 39.042969 22.230469 C 40.066406 22.8125 40.902344 23.617188 41.394531 24.625 C 41.441406 24.71875 41.488281 24.8125 41.535156 24.90625 C 43.835938 24.085938 45.78125 24.300781 47.261719 25.101562 C 49.546875 26.339844 50.730469 28.992188 50.398438 31.507812 C 50.039062 34.230469 47.914062 36.8125 43.480469 37.203125 L 43.480469 40.6875 C 43.480469 40.785156 43.425781 40.875 43.339844 40.925781 C 43.257812 40.976562 43.152344 40.976562 43.066406 40.925781 C 38.238281 38.191406 33.21875 38.179688 28.007812 40.929688 C 27.925781 40.976562 27.820312 40.972656 27.738281 40.921875 C 27.65625 40.875 27.605469 40.785156 27.605469 40.6875 L 27.605469 37.859375 C 23.027344 37.660156 20.914062 34.503906 21.0625 31.429688 C 21.207031 28.324219 23.671875 25.269531 28.300781 25.417969 Z M 33.226562 33.597656 C 31.542969 33.878906 29.851562 34.457031 28.15625 35.335938 L 28.15625 40.234375 C 33.257812 37.671875 38.179688 37.683594 42.925781 40.21875 L 42.925781 35.695312 C 39.082031 37.605469 35.421875 36.339844 33.269531 33.636719 C 33.253906 33.625 33.238281 33.609375 33.226562 33.597656 Z M 45.246094 27.5625 C 44.414062 27.777344 43.691406 27.691406 43.050781 27.367188 C 42.753906 27.21875 42.480469 27.015625 42.222656 26.769531 C 41.730469 26.289062 41.308594 25.636719 40.917969 24.859375 C 40.464844 23.949219 39.699219 23.230469 38.769531 22.707031 C 37.457031 21.964844 35.8125 21.621094 34.226562 21.71875 C 33.160156 21.78125 32.125 22.046875 31.230469 22.527344 C 30.324219 23.015625 29.570312 23.726562 29.097656 24.683594 C 28.988281 24.90625 28.894531 25.148438 28.8125 25.398438 C 28.734375 25.640625 28.667969 25.890625 28.621094 26.152344 C 28.542969 26.558594 28.539062 27.15625 28.582031 27.734375 C 28.628906 28.355469 28.730469 28.957031 28.878906 29.300781 C 28.902344 29.347656 28.882812 29.402344 28.835938 29.425781 C 28.789062 29.449219 28.730469 29.429688 28.707031 29.382812 C 28.523438 29.039062 28.363281 28.417969 28.261719 27.773438 C 28.167969 27.160156 28.132812 26.527344 28.183594 26.089844 C 28.1875 26.046875 28.191406 26.007812 28.199219 25.96875 C 24.003906 25.875 21.75 28.625 21.613281 31.457031 C 21.480469 34.261719 23.4375 37.113281 27.605469 37.308594 L 27.605469 36.652344 C 27.285156 36.722656 26.988281 36.75 26.710938 36.722656 C 26.480469 36.699219 26.261719 36.644531 26.0625 36.550781 C 25.816406 36.4375 25.59375 36.28125 25.398438 36.074219 C 25.226562 35.894531 25.078125 35.679688 24.949219 35.433594 C 24.917969 35.382812 24.929688 35.3125 24.980469 35.277344 C 25.03125 35.246094 25.101562 35.257812 25.136719 35.308594 C 25.265625 35.460938 25.398438 35.585938 25.539062 35.699219 C 25.757812 35.875 25.992188 35.992188 26.246094 36.070312 C 26.40625 36.121094 26.578125 36.148438 26.757812 36.160156 C 27.003906 36.175781 27.265625 36.15625 27.554688 36.089844 L 27.605469 36.078125 L 27.605469 35.453125 L 27.441406 35.417969 C 26.875 35.269531 26.382812 35.042969 25.980469 34.734375 C 25.691406 34.507812 25.441406 34.246094 25.234375 33.941406 C 25 33.585938 24.820312 33.179688 24.695312 32.726562 C 24.585938 32.335938 24.523438 31.910156 24.496094 31.449219 C 24.488281 31.386719 24.53125 31.332031 24.59375 31.324219 C 24.652344 31.316406 24.710938 31.359375 24.71875 31.421875 C 24.785156 31.761719 24.871094 32.078125 24.976562 32.375 C 25.144531 32.863281 25.375 33.277344 25.652344 33.636719 C 25.847656 33.882812 26.066406 34.097656 26.320312 34.28125 C 26.675781 34.542969 27.09375 34.75 27.582031 34.878906 L 27.753906 34.917969 C 29.46875 34.015625 31.179688 33.410156 32.878906 33.09375 C 32.816406 32.992188 32.753906 32.882812 32.691406 32.765625 C 32.554688 32.5 32.425781 32.195312 32.320312 31.855469 C 32.253906 31.640625 32.195312 31.410156 32.160156 31.164062 C 32.136719 31.011719 32.117188 30.855469 32.117188 30.695312 C 32.121094 30.445312 32.15625 30.191406 32.203125 29.921875 C 32.207031 29.867188 32.25 29.828125 32.304688 29.828125 C 32.355469 29.832031 32.398438 29.875 32.398438 29.925781 C 32.433594 30.183594 32.492188 30.417969 32.542969 30.648438 C 32.578125 30.792969 32.605469 30.933594 32.636719 31.070312 C 32.691406 31.289062 32.753906 31.496094 32.820312 31.6875 C 32.929688 31.996094 33.058594 32.265625 33.183594 32.503906 C 33.339844 32.785156 33.492188 33.019531 33.621094 33.199219 C 33.632812 33.210938 33.644531 33.222656 33.65625 33.234375 C 35.671875 35.8125 39.152344 37.011719 42.792969 35.144531 C 42.796875 35.140625 42.804688 35.136719 42.8125 35.132812 C 42.816406 35.128906 42.820312 35.128906 42.824219 35.125 C 42.894531 35.089844 42.960938 35.054688 43.03125 35.015625 C 43.277344 34.875 43.613281 34.640625 43.964844 34.273438 C 44.164062 34.066406 44.371094 33.816406 44.570312 33.515625 C 44.773438 33.203125 44.96875 32.84375 45.148438 32.417969 C 45.296875 32.0625 45.4375 31.671875 45.550781 31.222656 C 45.558594 31.167969 45.613281 31.128906 45.671875 31.140625 C 45.726562 31.148438 45.765625 31.203125 45.753906 31.257812 C 45.710938 31.738281 45.640625 32.167969 45.53125 32.554688 C 45.394531 33.03125 45.210938 33.4375 45.015625 33.785156 C 44.8125 34.136719 44.59375 34.425781 44.371094 34.660156 C 44.054688 35 43.738281 35.238281 43.480469 35.398438 L 43.480469 35.851562 C 43.789062 35.785156 44.058594 35.6875 44.292969 35.574219 C 44.476562 35.488281 44.640625 35.398438 44.785156 35.285156 C 45.046875 35.078125 45.253906 34.832031 45.390625 34.515625 C 45.410156 34.460938 45.472656 34.425781 45.53125 34.445312 C 45.589844 34.464844 45.621094 34.523438 45.605469 34.582031 C 45.558594 34.828125 45.480469 35.050781 45.367188 35.261719 C 45.25 35.476562 45.089844 35.664062 44.894531 35.832031 C 44.75 35.953125 44.582031 36.058594 44.390625 36.148438 C 44.152344 36.261719 43.875 36.34375 43.566406 36.40625 L 43.480469 36.417969 L 43.480469 36.648438 C 47.539062 36.269531 49.519531 33.941406 49.847656 31.433594 C 50.152344 29.140625 49.082031 26.71875 46.996094 25.589844 C 45.652344 24.859375 43.890625 24.679688 41.8125 25.394531 C 42.050781 25.785156 42.304688 26.128906 42.578125 26.414062 C 42.792969 26.640625 43.019531 26.832031 43.265625 26.980469 C 43.8125 27.316406 44.441406 27.453125 45.199219 27.335938 C 45.261719 27.324219 45.320312 27.363281 45.332031 27.425781 C 45.347656 27.488281 45.308594 27.546875 45.246094 27.5625 Z M 45.246094 27.5625 " fill-opacity="1" fill-rule="evenodd"/></g><g clip-path="url(#7844d05891)"><path fill="#ffffff" d="M 55.269531 43.164062 C 50.136719 42.382812 43.226562 41.953125 35.816406 41.953125 C 28.402344 41.953125 21.496094 42.382812 16.359375 43.164062 C 10.40625 44.070312 7.386719 45.34375 7.386719 46.953125 L 7.386719 55.835938 C 7.386719 56.554688 7.855469 57.152344 8.742188 57.5625 C 9.492188 57.914062 10.5 58.105469 11.578125 58.105469 C 13.589844 58.105469 15.757812 57.398438 15.769531 55.851562 C 15.769531 55.84375 15.769531 55.839844 15.769531 55.835938 C 15.769531 55.757812 15.761719 55.683594 15.746094 55.613281 C 15.601562 54.253906 15.535156 52.757812 15.679688 52.53125 C 15.703125 52.519531 15.722656 52.5 15.734375 52.480469 C 20.71875 51.660156 27.714844 51.175781 35.816406 51.175781 C 43.210938 51.175781 50.101562 51.601562 55.21875 52.378906 C 55.449219 52.414062 55.675781 52.449219 55.898438 52.488281 C 55.914062 52.503906 55.929688 52.519531 55.949219 52.53125 C 56.09375 52.757812 56.027344 54.253906 55.882812 55.613281 C 55.867188 55.683594 55.859375 55.757812 55.859375 55.835938 C 55.859375 56.554688 56.328125 57.152344 57.214844 57.5625 C 57.964844 57.914062 58.972656 58.105469 60.050781 58.105469 C 62.070312 58.105469 64.242188 57.394531 64.242188 55.835938 L 64.242188 46.953125 C 64.242188 45.34375 61.222656 44.070312 55.269531 43.164062 " fill-opacity="1" fill-rule="nonzero"/><path fill="#000000" d="M 63.910156 47.394531 C 63.488281 46.808594 62.402344 45.984375 59.597656 45.351562 C 59.566406 45.347656 59.535156 45.363281 59.527344 45.394531 C 59.519531 45.425781 59.539062 45.457031 59.570312 45.464844 C 62.621094 46.148438 63.597656 47.070312 63.910156 47.621094 L 63.910156 48.035156 C 63.449219 47.417969 62.214844 46.523438 58.921875 45.785156 C 58.890625 45.777344 58.859375 45.796875 58.855469 45.828125 C 58.847656 45.859375 58.867188 45.886719 58.898438 45.894531 C 62.464844 46.699219 63.570312 47.679688 63.910156 48.261719 L 63.910156 48.535156 C 63.488281 47.949219 62.402344 47.125 59.597656 46.492188 C 59.566406 46.488281 59.535156 46.507812 59.527344 46.539062 C 59.519531 46.566406 59.539062 46.597656 59.570312 46.605469 C 62.621094 47.292969 63.597656 48.210938 63.910156 48.765625 L 63.910156 49.179688 C 63.449219 48.558594 62.214844 47.664062 58.921875 46.925781 C 58.890625 46.917969 58.859375 46.9375 58.855469 46.96875 C 58.847656 47 58.867188 47.03125 58.898438 47.035156 C 62.464844 47.839844 63.570312 48.820312 63.910156 49.402344 L 63.910156 49.675781 C 63.488281 49.09375 62.402344 48.265625 59.597656 47.636719 C 59.566406 47.628906 59.535156 47.648438 59.527344 47.679688 C 59.519531 47.710938 59.539062 47.738281 59.570312 47.746094 C 62.621094 48.433594 63.597656 49.355469 63.910156 49.90625 L 63.910156 50.320312 C 63.449219 49.699219 62.214844 48.808594 58.921875 48.066406 C 58.890625 48.058594 58.859375 48.078125 58.855469 48.109375 C 58.847656 48.140625 58.867188 48.171875 58.898438 48.179688 C 62.464844 48.980469 63.570312 49.960938 63.910156 50.542969 L 63.910156 50.816406 C 63.488281 50.234375 62.402344 49.40625 59.597656 48.777344 C 59.566406 48.769531 59.535156 48.789062 59.527344 48.820312 C 59.519531 48.851562 59.539062 48.882812 59.570312 48.886719 C 62.621094 49.574219 63.597656 50.496094 63.910156 51.046875 L 63.910156 51.460938 C 63.449219 50.839844 62.214844 49.949219 58.921875 49.207031 C 58.890625 49.199219 58.859375 49.21875 58.855469 49.25 C 58.847656 49.28125 58.867188 49.3125 58.898438 49.320312 C 62.464844 50.121094 63.570312 51.101562 63.910156 51.6875 L 63.910156 51.957031 C 63.488281 51.375 62.402344 50.550781 59.597656 49.917969 C 59.566406 49.910156 59.535156 49.929688 59.527344 49.960938 C 59.519531 49.992188 59.539062 50.023438 59.570312 50.03125 C 62.621094 50.714844 63.597656 51.636719 63.910156 52.1875 L 63.910156 52.601562 C 63.449219 51.984375 62.214844 51.089844 58.921875 50.347656 C 58.890625 50.34375 58.859375 50.363281 58.855469 50.390625 C 58.847656 50.421875 58.867188 50.453125 58.898438 50.460938 C 62.464844 51.261719 63.570312 52.246094 63.910156 52.828125 L 63.910156 53.101562 C 63.488281 52.515625 62.402344 51.691406 59.597656 51.058594 C 59.566406 51.050781 59.535156 51.070312 59.527344 51.101562 C 59.519531 51.132812 59.539062 51.164062 59.570312 51.171875 C 62.621094 51.855469 63.597656 52.777344 63.910156 53.328125 L 63.910156 53.742188 C 63.449219 53.125 62.214844 52.230469 58.921875 51.492188 C 58.890625 51.484375 58.859375 51.503906 58.855469 51.535156 C 58.847656 51.566406 58.867188 51.59375 58.898438 51.601562 C 62.464844 52.402344 63.570312 53.386719 63.910156 53.96875 L 63.910156 54.242188 C 63.488281 53.65625 62.402344 52.832031 59.597656 52.199219 C 59.566406 52.195312 59.535156 52.214844 59.527344 52.242188 C 59.519531 52.273438 59.539062 52.304688 59.570312 52.3125 C 62.621094 53 63.597656 53.917969 63.910156 54.46875 L 63.910156 54.945312 C 62.972656 53.75 60.078125 52.777344 55.269531 52.046875 C 50.136719 51.269531 43.226562 50.839844 35.816406 50.839844 C 28.402344 50.839844 21.496094 51.269531 16.359375 52.046875 C 11.550781 52.777344 8.65625 53.75 7.722656 54.945312 L 7.722656 54.527344 C 7.996094 53.988281 8.929688 53.023438 12.089844 52.3125 C 12.121094 52.304688 12.140625 52.273438 12.132812 52.242188 C 12.125 52.214844 12.097656 52.195312 12.066406 52.199219 C 9.1875 52.847656 8.117188 53.699219 7.722656 54.285156 L 7.722656 54.027344 C 8.019531 53.453125 9.078125 52.429688 12.765625 51.601562 C 12.796875 51.59375 12.8125 51.566406 12.808594 51.535156 C 12.800781 51.503906 12.769531 51.484375 12.738281 51.492188 C 9.367188 52.25 8.152344 53.167969 7.722656 53.789062 L 7.722656 53.386719 C 7.996094 52.84375 8.929688 51.882812 12.089844 51.171875 C 12.121094 51.164062 12.140625 51.132812 12.132812 51.101562 C 12.125 51.070312 12.097656 51.054688 12.066406 51.058594 C 9.1875 51.707031 8.117188 52.558594 7.722656 53.144531 L 7.722656 52.882812 C 8.019531 52.308594 9.078125 51.289062 12.765625 50.460938 C 12.796875 50.453125 12.8125 50.421875 12.808594 50.390625 C 12.800781 50.363281 12.769531 50.34375 12.738281 50.347656 C 9.367188 51.109375 8.152344 52.027344 7.722656 52.648438 L 7.722656 52.246094 C 7.996094 51.703125 8.929688 50.738281 12.089844 50.03125 C 12.121094 50.023438 12.140625 49.992188 12.132812 49.960938 C 12.125 49.929688 12.097656 49.910156 12.066406 49.917969 C 9.1875 50.566406 8.117188 51.417969 7.722656 52.003906 L 7.722656 51.742188 C 8.019531 51.167969 9.078125 50.148438 12.765625 49.320312 C 12.796875 49.3125 12.8125 49.28125 12.808594 49.25 C 12.800781 49.21875 12.769531 49.203125 12.738281 49.207031 C 9.367188 49.964844 8.152344 50.882812 7.722656 51.503906 L 7.722656 51.105469 C 7.996094 50.5625 8.929688 49.597656 12.089844 48.886719 C 12.121094 48.882812 12.140625 48.851562 12.132812 48.820312 C 12.125 48.789062 12.097656 48.769531 12.066406 48.777344 C 9.1875 49.425781 8.117188 50.277344 7.722656 50.863281 L 7.722656 50.601562 C 8.019531 50.027344 9.078125 49.007812 12.765625 48.179688 C 12.796875 48.171875 12.8125 48.140625 12.808594 48.109375 C 12.800781 48.078125 12.769531 48.058594 12.738281 48.066406 C 9.367188 48.824219 8.152344 49.742188 7.722656 50.363281 L 7.722656 49.964844 C 7.996094 49.421875 8.929688 48.457031 12.089844 47.746094 C 12.121094 47.738281 12.140625 47.710938 12.132812 47.679688 C 12.125 47.648438 12.097656 47.628906 12.066406 47.636719 C 9.1875 48.28125 8.117188 49.136719 7.722656 49.722656 L 7.722656 49.460938 C 8.019531 48.886719 9.078125 47.867188 12.765625 47.035156 C 12.796875 47.03125 12.8125 47 12.808594 46.96875 C 12.800781 46.9375 12.769531 46.917969 12.738281 46.925781 C 9.367188 47.683594 8.152344 48.601562 7.722656 49.222656 L 7.722656 48.820312 C 7.996094 48.28125 8.929688 47.316406 12.089844 46.605469 C 12.121094 46.597656 12.140625 46.566406 12.132812 46.539062 C 12.125 46.507812 12.097656 46.488281 12.066406 46.492188 C 9.1875 47.140625 8.117188 47.992188 7.722656 48.578125 L 7.722656 48.320312 C 8.019531 47.746094 9.078125 46.722656 12.765625 45.894531 C 12.796875 45.886719 12.8125 45.859375 12.808594 45.828125 C 12.800781 45.796875 12.769531 45.777344 12.738281 45.785156 C 9.367188 46.542969 8.152344 47.460938 7.722656 48.082031 L 7.722656 47.679688 C 7.996094 47.136719 8.929688 46.175781 12.089844 45.464844 C 12.121094 45.457031 12.140625 45.425781 12.132812 45.394531 C 12.125 45.363281 12.097656 45.34375 12.066406 45.351562 C 9.1875 46 8.117188 46.851562 7.722656 47.4375 L 7.722656 47.179688 C 8.019531 46.605469 9.078125 45.582031 12.765625 44.753906 C 12.796875 44.746094 12.8125 44.714844 12.808594 44.6875 C 12.800781 44.65625 12.769531 44.636719 12.738281 44.640625 C 9.371094 45.398438 8.15625 46.316406 7.722656 46.9375 C 7.761719 44.246094 19.5625 42.289062 35.816406 42.289062 C 43.210938 42.289062 50.101562 42.71875 55.21875 43.496094 C 60.738281 44.332031 63.8125 45.539062 63.902344 46.890625 C 63.441406 46.269531 62.203125 45.378906 58.921875 44.640625 C 58.890625 44.636719 58.859375 44.65625 58.855469 44.6875 C 58.847656 44.714844 58.867188 44.746094 58.898438 44.753906 C 62.464844 45.554688 63.570312 46.539062 63.910156 47.121094 Z M 58.136719 54.574219 C 58.5 54.515625 58.886719 54.484375 59.273438 54.484375 C 59.875 54.484375 60.449219 54.554688 60.9375 54.683594 L 60.933594 55.378906 C 60.59375 55.195312 60.035156 55.125 59.5 55.125 C 58.996094 55.125 58.472656 55.191406 58.125 55.351562 C 58.164062 54.949219 58.160156 54.710938 58.136719 54.574219 Z M 62.351562 55.835938 C 62.351562 56.042969 62.21875 56.222656 61.953125 56.375 C 61.125 56.855469 59.300781 56.855469 58.46875 56.375 C 58.207031 56.222656 58.074219 56.046875 58.070312 55.84375 C 58.074219 55.835938 58.074219 55.828125 58.074219 55.820312 C 58.109375 55.664062 58.644531 55.460938 59.5 55.460938 C 60.390625 55.460938 60.933594 55.679688 60.933594 55.835938 C 60.933594 55.929688 61.007812 56.003906 61.101562 56.003906 C 61.195312 56.003906 61.269531 55.929688 61.269531 55.835938 L 61.269531 54.789062 C 61.328125 54.808594 61.386719 54.828125 61.441406 54.851562 C 61.839844 55.019531 62.308594 55.3125 62.347656 55.773438 L 62.347656 55.8125 C 62.347656 55.820312 62.351562 55.828125 62.351562 55.835938 Z M 56.296875 52.554688 C 58.996094 53.015625 61.023438 53.570312 62.304688 54.191406 L 62.328125 55.027344 C 62.058594 54.757812 61.65625 54.554688 61.183594 54.410156 C 61.164062 54.398438 61.140625 54.390625 61.117188 54.390625 C 60.554688 54.226562 59.90625 54.152344 59.273438 54.152344 C 58.121094 54.152344 56.910156 54.410156 56.285156 54.960938 C 56.414062 53.558594 56.375 52.882812 56.296875 52.554688 Z M 60.050781 57.769531 C 58.136719 57.769531 56.199219 57.109375 56.195312 55.84375 C 56.203125 55.78125 56.207031 55.726562 56.214844 55.667969 C 56.332031 55.164062 56.980469 54.816406 57.8125 54.636719 C 57.832031 54.816406 57.800781 55.308594 57.746094 55.742188 C 57.746094 55.746094 57.746094 55.75 57.746094 55.753906 C 57.742188 55.773438 57.738281 55.792969 57.738281 55.8125 C 57.734375 55.820312 57.738281 55.820312 57.738281 55.824219 C 57.734375 55.828125 57.734375 55.832031 57.734375 55.835938 C 57.734375 56.066406 57.832031 56.394531 58.300781 56.664062 C 59.246094 57.210938 61.175781 57.210938 62.121094 56.664062 C 62.582031 56.398438 62.683594 56.074219 62.6875 55.84375 C 62.691406 55.832031 62.691406 55.820312 62.691406 55.804688 L 62.652344 54.371094 C 63.480469 54.832031 63.910156 55.324219 63.910156 55.835938 C 63.910156 57.105469 61.96875 57.769531 60.050781 57.769531 Z M 13.503906 55.351562 C 13.160156 55.191406 12.632812 55.125 12.128906 55.125 C 11.59375 55.125 11.039062 55.195312 10.695312 55.378906 L 10.695312 54.683594 C 11.195312 54.550781 11.777344 54.484375 12.355469 54.484375 C 12.753906 54.484375 13.136719 54.515625 13.492188 54.574219 C 13.472656 54.714844 13.464844 54.949219 13.503906 55.351562 Z M 9.28125 55.808594 C 9.296875 55.351562 9.730469 55.007812 10.359375 54.785156 L 10.363281 55.835938 C 10.363281 55.929688 10.4375 56.003906 10.527344 56.003906 C 10.621094 56.003906 10.695312 55.929688 10.695312 55.835938 C 10.695312 55.679688 11.242188 55.460938 12.128906 55.460938 C 12.523438 55.460938 12.910156 55.507812 13.179688 55.585938 C 13.429688 55.664062 13.535156 55.753906 13.554688 55.816406 C 13.554688 55.824219 13.558594 55.832031 13.558594 55.839844 C 13.550781 56.421875 12.453125 56.738281 11.417969 56.738281 C 10.382812 56.738281 9.28125 56.421875 9.277344 55.839844 C 9.28125 55.832031 9.28125 55.824219 9.28125 55.816406 Z M 15.34375 54.960938 C 14.71875 54.410156 13.507812 54.152344 12.355469 54.152344 C 11.726562 54.152344 11.074219 54.226562 10.515625 54.390625 C 10.488281 54.390625 10.46875 54.398438 10.445312 54.410156 C 9.949219 54.5625 9.527344 54.78125 9.257812 55.070312 L 9.234375 54.234375 C 10.527344 53.585938 12.613281 53.015625 15.335938 52.546875 C 15.253906 52.878906 15.214844 53.550781 15.34375 54.960938 Z M 11.578125 57.769531 C 9.660156 57.769531 7.722656 57.105469 7.722656 55.835938 C 7.722656 55.335938 8.128906 54.859375 8.894531 54.417969 L 8.9375 55.828125 C 8.9375 55.84375 8.941406 55.855469 8.945312 55.867188 C 8.953125 56.148438 9.113281 56.523438 9.769531 56.792969 C 10.207031 56.972656 10.792969 57.070312 11.417969 57.070312 C 13.113281 57.070312 13.878906 56.464844 13.894531 55.855469 C 13.894531 55.851562 13.894531 55.847656 13.894531 55.84375 C 13.894531 55.839844 13.894531 55.839844 13.894531 55.835938 C 13.894531 55.832031 13.894531 55.828125 13.894531 55.828125 C 13.894531 55.820312 13.894531 55.820312 13.894531 55.8125 C 13.890625 55.792969 13.886719 55.773438 13.886719 55.753906 C 13.882812 55.75 13.886719 55.746094 13.882812 55.742188 C 13.832031 55.308594 13.796875 54.816406 13.820312 54.636719 C 14.078125 54.691406 14.316406 54.765625 14.523438 54.851562 C 14.894531 55.003906 15.324219 55.265625 15.417969 55.671875 C 15.421875 55.730469 15.429688 55.785156 15.4375 55.84375 C 15.429688 57.109375 13.492188 57.769531 11.578125 57.769531 Z M 55.269531 43.164062 C 50.136719 42.382812 43.226562 41.953125 35.816406 41.953125 C 28.402344 41.953125 21.496094 42.382812 16.359375 43.164062 C 10.40625 44.070312 7.386719 45.34375 7.386719 46.953125 L 7.386719 55.835938 C 7.386719 56.554688 7.855469 57.152344 8.742188 57.5625 C 9.492188 57.914062 10.5 58.105469 11.578125 58.105469 C 13.589844 58.105469 15.757812 57.398438 15.769531 55.851562 C 15.769531 55.84375 15.769531 55.839844 15.769531 55.835938 C 15.769531 55.757812 15.761719 55.683594 15.746094 55.613281 C 15.601562 54.253906 15.535156 52.757812 15.679688 52.53125 C 15.703125 52.519531 15.722656 52.5 15.734375 52.480469 C 20.71875 51.660156 27.714844 51.175781 35.816406 51.175781 C 43.210938 51.175781 50.101562 51.601562 55.21875 52.378906 C 55.449219 52.414062 55.675781 52.449219 55.898438 52.488281 C 55.914062 52.503906 55.929688 52.519531 55.949219 52.53125 C 56.09375 52.757812 56.027344 54.253906 55.882812 55.613281 C 55.867188 55.683594 55.859375 55.757812 55.859375 55.835938 C 55.859375 56.554688 56.328125 57.152344 57.214844 57.5625 C 57.964844 57.914062 58.972656 58.105469 60.050781 58.105469 C 62.070312 58.105469 64.242188 57.394531 64.242188 55.835938 L 64.242188 46.953125 C 64.242188 45.34375 61.222656 44.070312 55.269531 43.164062 " fill-opacity="1" fill-rule="nonzero"/></g><g clip-path="url(#3f2aa20761)"><path fill="#fcb036" d="M 22.566406 54.46875 C 22.566406 54.464844 22.570312 54.464844 22.570312 54.464844 C 22.570312 54.464844 22.574219 54.464844 22.574219 54.46875 C 22.613281 54.570312 22.902344 55.351562 23.15625 55.625 C 23.40625 55.894531 24.085938 56.164062 24.179688 56.199219 C 24.179688 56.199219 24.183594 56.203125 24.183594 56.203125 C 24.183594 56.207031 24.179688 56.207031 24.179688 56.207031 C 24.085938 56.242188 23.390625 56.523438 23.136719 56.792969 C 22.886719 57.0625 22.613281 57.832031 22.574219 57.9375 C 22.574219 57.941406 22.574219 57.941406 22.570312 57.941406 C 22.570312 57.941406 22.566406 57.941406 22.566406 57.9375 C 22.535156 57.832031 22.308594 57.078125 22.058594 56.808594 C 21.804688 56.535156 21.054688 56.242188 20.960938 56.207031 C 20.957031 56.207031 20.957031 56.207031 20.957031 56.203125 C 20.957031 56.203125 20.957031 56.199219 20.960938 56.199219 C 21.050781 56.160156 21.765625 55.828125 22.019531 55.554688 C 22.269531 55.285156 22.53125 54.566406 22.566406 54.46875 Z M 22.566406 54.46875 " fill-opacity="1" fill-rule="evenodd"/></g><g fill="#d42c00" fill-opacity="1"><g transform="translate(19.577433, 50.14307)"><g><path d="M 1.320312 -1.117188 L 1.058594 -4.292969 L 2.980469 -1.375 C 3.53125 -0.550781 4.234375 -0.332031 4.800781 -0.386719 L 6.417969 -0.515625 L 6.328125 -0.625 C 6.148438 -0.851562 6.007812 -1.195312 5.984375 -1.488281 L 5.640625 -5.644531 C 5.617188 -5.9375 5.675781 -6.308594 5.796875 -6.566406 L 5.890625 -6.761719 C 5.8125 -6.746094 5.6875 -6.710938 5.539062 -6.699219 C 5.296875 -6.679688 4.992188 -6.726562 4.742188 -7.027344 C 4.632812 -6.945312 4.515625 -6.730469 4.539062 -6.464844 C 4.570312 -6.085938 4.75 -5.8125 5.011719 -5.664062 L 5.316406 -1.792969 C 4.917969 -2.054688 4.355469 -2.96875 3.921875 -3.683594 C 3.324219 -4.6875 2.792969 -5.511719 2.226562 -6.539062 C 1.96875 -6.421875 1.664062 -6.34375 1.359375 -6.316406 C 0.835938 -6.277344 0.335938 -6.386719 0.0742188 -6.652344 C -0.0351562 -6.574219 -0.152344 -6.359375 -0.132812 -6.089844 C -0.101562 -5.710938 0.0820312 -5.4375 0.34375 -5.289062 L 0.675781 -1.0625 C 0.699219 -0.769531 0.621094 -0.40625 0.480469 -0.15625 L 0.402344 -0.015625 L 1.757812 -0.125 L 1.660156 -0.25 C 1.480469 -0.476562 1.34375 -0.824219 1.320312 -1.117188 Z M 1.320312 -1.117188 "/></g></g></g><g fill="#d42c00" fill-opacity="1"><g transform="translate(26.278553, 49.609897)"><g><path d="M 5.460938 -2.03125 C 5.414062 -3.179688 5.363281 -4.246094 5.316406 -5.394531 C 5.304688 -5.6875 5.378906 -6.054688 5.511719 -6.3125 L 5.601562 -6.5 C 5.34375 -6.457031 4.929688 -6.394531 4.484375 -6.375 C 3.859375 -6.351562 3.207031 -6.414062 2.933594 -6.75 C 2.820312 -6.675781 2.707031 -6.464844 2.714844 -6.199219 C 2.730469 -5.816406 2.894531 -5.535156 3.152344 -5.378906 L 3.289062 -1.953125 C 3.328125 -0.980469 3.277344 -0.542969 2.664062 -0.492188 C 1.695312 -0.40625 1.507812 -1.746094 2.210938 -2.203125 C 2.066406 -2.5 1.691406 -2.652344 1.308594 -2.636719 C 0.765625 -2.617188 0.203125 -2.253906 0.214844 -1.480469 C 0.230469 -0.679688 1.117188 0.125 2.855469 0.0351562 C 4.675781 -0.0546875 5.507812 -0.855469 5.460938 -2.03125 Z M 5.460938 -2.03125 "/></g></g></g><g fill="#d42c00" fill-opacity="1"><g transform="translate(32.38094, 49.354222)"><g><path d="M 1.351562 -0.980469 L 1.574219 -1.65625 L 3.738281 -1.660156 L 3.960938 -1.007812 C 4.050781 -0.714844 4.070312 -0.359375 4 -0.117188 L 3.964844 0.015625 L 6.855469 0.0117188 L 6.714844 -0.121094 C 6.464844 -0.363281 6.234375 -0.71875 6.136719 -1.011719 L 4.714844 -5.230469 C 4.617188 -5.523438 4.582031 -5.890625 4.636719 -6.140625 L 4.671875 -6.328125 C 4.074219 -6.246094 2.523438 -6.09375 1.882812 -6.679688 C 1.792969 -6.609375 1.730469 -6.40625 1.828125 -6.136719 C 1.910156 -5.933594 2.015625 -5.753906 2.152344 -5.613281 L 0.605469 -0.980469 C 0.507812 -0.703125 0.320312 -0.367188 0.132812 -0.144531 L 0 0.0195312 L 1.460938 0.015625 L 1.414062 -0.0820312 C 1.28125 -0.347656 1.253906 -0.703125 1.351562 -0.980469 Z M 2.667969 -4.9375 L 3.570312 -2.195312 L 1.753906 -2.191406 Z M 2.667969 -4.9375 "/></g></g></g><g fill="#d42c00" fill-opacity="1"><g transform="translate(39.1518, 49.345825)"><g><path d="M 0.878906 -6.59375 C 0.757812 -6.527344 0.625 -6.328125 0.617188 -6.0625 C 0.601562 -5.679688 0.738281 -5.386719 0.980469 -5.210938 L 0.796875 -0.972656 C 0.785156 -0.679688 0.664062 -0.328125 0.496094 -0.09375 L 0.398438 0.0351562 L 3.683594 0.167969 C 5.578125 0.246094 6.75 -0.273438 6.800781 -1.511719 C 6.839844 -2.507812 6.097656 -3.101562 4.808594 -3.332031 C 5.632812 -3.492188 6.113281 -3.902344 6.144531 -4.59375 C 6.199219 -5.929688 4.492188 -6.097656 3.523438 -6.136719 C 3.253906 -6.113281 2.816406 -6.085938 2.375 -6.105469 C 1.75 -6.132812 1.113281 -6.246094 0.878906 -6.59375 Z M 3.28125 -5.820312 C 3.929688 -5.792969 4.289062 -5.464844 4.257812 -4.671875 C 4.222656 -3.863281 3.835938 -3.578125 3.179688 -3.601562 L 3.082031 -3.609375 L 3.140625 -5.050781 C 3.15625 -5.679688 3.207031 -5.769531 3.28125 -5.820312 Z M 2.964844 -0.527344 L 3.0625 -3.117188 L 3.355469 -3.105469 C 4.171875 -3.070312 4.625 -2.742188 4.582031 -1.71875 C 4.539062 -0.6875 4.058594 -0.3125 3.242188 -0.347656 L 2.972656 -0.359375 C 2.96875 -0.402344 2.960938 -0.457031 2.964844 -0.527344 Z M 2.964844 -0.527344 "/></g></g></g><g fill="#d42c00" fill-opacity="1"><g transform="translate(46.017809, 49.633801)"><g><path d="M 5.957031 0.476562 C 5.78125 0 5.871094 -1.121094 6.152344 -1.472656 C 5.363281 -1.6875 4.804688 -0.972656 4.710938 -0.152344 L 2.847656 -0.3125 L 6.070312 -4.738281 C 6.503906 -5.339844 6.296875 -5.785156 5.5625 -5.84375 L 1.140625 -6.207031 C 1.316406 -5.71875 1.226562 -4.601562 0.945312 -4.246094 C 1.734375 -4.039062 2.28125 -4.753906 2.386719 -5.566406 L 3.949219 -5.441406 L 0.5625 -1 C 0.113281 -0.410156 0.3125 0.0273438 1.046875 0.0859375 L 2.476562 0.203125 L 2.476562 0.195312 Z M 5.957031 0.476562 "/></g></g></g><g fill="#ffffff" fill-opacity="1"><g transform="translate(24.627386, 57.655902)"><g><path d="M 1.578125 -0.515625 L 1.125 -0.296875 L 0.875 0.34375 L 0.3125 0.125 L 1.28125 -2.390625 L 1.84375 -2.171875 L 1.390625 -1 L 2.96875 -1.75 L 3.609375 -1.5 L 2.140625 -0.796875 L 2.703125 1.03125 L 2.03125 0.78125 Z M 1.578125 -0.515625 "/></g></g></g><g fill="#ffffff" fill-opacity="1"><g transform="translate(27.871523, 58.826721)"><g><path d="M 1.015625 -2.53125 L 1.625 -2.359375 L 0.921875 0.25 L 0.3125 0.078125 Z M 1.015625 -2.53125 "/></g></g></g><g fill="#ffffff" fill-opacity="1"><g transform="translate(29.65756, 59.309078)"><g><path d="M 1.234375 -2 L 0.390625 -2.15625 L 0.46875 -2.65625 L 2.796875 -2.25 L 2.71875 -1.75 L 1.859375 -1.90625 L 1.484375 0.25 L 0.859375 0.15625 Z M 1.234375 -2 "/></g></g></g><g fill="#ffffff" fill-opacity="1"><g transform="translate(32.623256, 59.797174)"><g><path d="M 1.609375 0.125 C 1.335938 0.113281 1.09375 0.046875 0.875 -0.078125 C 0.65625 -0.210938 0.488281 -0.390625 0.375 -0.609375 C 0.257812 -0.835938 0.207031 -1.082031 0.21875 -1.34375 C 0.226562 -1.613281 0.300781 -1.847656 0.4375 -2.046875 C 0.570312 -2.253906 0.753906 -2.410156 0.984375 -2.515625 C 1.210938 -2.628906 1.460938 -2.679688 1.734375 -2.671875 C 1.972656 -2.660156 2.179688 -2.609375 2.359375 -2.515625 C 2.546875 -2.421875 2.707031 -2.296875 2.84375 -2.140625 L 2.421875 -1.796875 C 2.242188 -2.015625 2.019531 -2.128906 1.75 -2.140625 C 1.582031 -2.148438 1.429688 -2.117188 1.296875 -2.046875 C 1.160156 -1.984375 1.050781 -1.890625 0.96875 -1.765625 C 0.894531 -1.640625 0.851562 -1.488281 0.84375 -1.3125 C 0.832031 -1.144531 0.859375 -0.992188 0.921875 -0.859375 C 0.992188 -0.722656 1.09375 -0.613281 1.21875 -0.53125 C 1.34375 -0.457031 1.488281 -0.414062 1.65625 -0.40625 C 1.925781 -0.394531 2.160156 -0.492188 2.359375 -0.703125 L 2.75 -0.3125 C 2.613281 -0.15625 2.445312 -0.0390625 2.25 0.03125 C 2.0625 0.101562 1.847656 0.132812 1.609375 0.125 Z M 1.609375 0.125 "/></g></g></g><g fill="#ffffff" fill-opacity="1"><g transform="translate(36.087741, 59.92513)"><g><path d="M 2.53125 -2.953125 L 2.78125 -0.265625 L 2.15625 -0.203125 L 2.046875 -1.3125 L 0.84375 -1.203125 L 0.953125 -0.09375 L 0.328125 -0.03125 L 0.078125 -2.71875 L 0.703125 -2.78125 L 0.796875 -1.734375 L 2 -1.84375 L 1.90625 -2.890625 Z M 2.53125 -2.953125 "/></g></g></g><g fill="#ffffff" fill-opacity="1"><g transform="translate(39.814809, 59.519088)"><g><path d="M 2.234375 -1.03125 L 2.34375 -0.546875 L 0.3125 -0.078125 L -0.296875 -2.71875 L 1.6875 -3.171875 L 1.796875 -2.671875 L 0.40625 -2.359375 L 0.546875 -1.78125 L 1.78125 -2.0625 L 1.890625 -1.59375 L 0.65625 -1.3125 L 0.796875 -0.703125 Z M 2.234375 -1.03125 "/></g></g></g><g fill="#ffffff" fill-opacity="1"><g transform="translate(42.948646, 58.769509)"><g><path d="M 1.65625 -3.515625 L 2.609375 -0.984375 L 2.140625 -0.8125 L 0.296875 -1.859375 L 0.875 -0.328125 L 0.3125 -0.109375 L -0.640625 -2.640625 L -0.15625 -2.828125 L 1.671875 -1.78125 L 1.09375 -3.3125 Z M 1.65625 -3.515625 "/></g></g></g><g fill="#ffffff" fill-opacity="1"><g transform="translate(29.50666, 63.046827)"><g><path d="M 0.546875 0.1875 C 0.453125 0.15625 0.363281 0.113281 0.28125 0.0625 C 0.195312 0.0078125 0.128906 -0.046875 0.078125 -0.109375 L 0.265625 -0.296875 C 0.296875 -0.234375 0.34375 -0.175781 0.40625 -0.125 C 0.476562 -0.0820312 0.546875 -0.0507812 0.609375 -0.03125 C 0.691406 0 0.757812 0.0078125 0.8125 0 C 0.863281 -0.0195312 0.894531 -0.0507812 0.90625 -0.09375 C 0.914062 -0.125 0.910156 -0.148438 0.890625 -0.171875 C 0.867188 -0.203125 0.84375 -0.226562 0.8125 -0.25 C 0.78125 -0.28125 0.734375 -0.300781 0.671875 -0.3125 C 0.597656 -0.375 0.53125 -0.425781 0.46875 -0.46875 C 0.414062 -0.507812 0.375 -0.5625 0.34375 -0.625 C 0.320312 -0.6875 0.328125 -0.753906 0.359375 -0.828125 C 0.378906 -0.898438 0.414062 -0.957031 0.46875 -1 C 0.519531 -1.050781 0.585938 -1.082031 0.671875 -1.09375 C 0.765625 -1.113281 0.867188 -1.101562 0.984375 -1.0625 C 1.066406 -1.03125 1.140625 -0.992188 1.203125 -0.953125 C 1.273438 -0.910156 1.332031 -0.863281 1.375 -0.8125 L 1.234375 -0.625 C 1.140625 -0.738281 1.035156 -0.8125 0.921875 -0.84375 C 0.847656 -0.863281 0.785156 -0.863281 0.734375 -0.84375 C 0.679688 -0.832031 0.648438 -0.804688 0.640625 -0.765625 C 0.628906 -0.722656 0.640625 -0.6875 0.671875 -0.65625 C 0.703125 -0.625 0.765625 -0.582031 0.859375 -0.53125 C 0.941406 -0.488281 1.007812 -0.441406 1.0625 -0.390625 C 1.113281 -0.347656 1.15625 -0.296875 1.1875 -0.234375 C 1.21875 -0.171875 1.21875 -0.0976562 1.1875 -0.015625 C 1.164062 0.0546875 1.125 0.113281 1.0625 0.15625 C 1.007812 0.195312 0.9375 0.222656 0.84375 0.234375 C 0.757812 0.242188 0.660156 0.226562 0.546875 0.1875 Z M 0.546875 0.1875 "/></g></g></g><g fill="#ffffff" fill-opacity="1"><g transform="translate(30.883256, 63.466049)"><g><path d="M 0.46875 -1.21875 L 0.75 -1.140625 L 0.4375 0.109375 L 0.15625 0.03125 Z M 0.46875 -1.21875 "/></g></g></g><g fill="#ffffff" fill-opacity="1"><g transform="translate(31.727191, 63.68498)"><g><path d="M 1.5625 -1.046875 L 1.328125 0.234375 L 1.078125 0.1875 L 0.59375 -0.6875 L 0.453125 0.078125 L 0.15625 0.03125 L 0.390625 -1.25 L 0.640625 -1.203125 L 1.125 -0.296875 L 1.265625 -1.09375 Z M 1.5625 -1.046875 "/></g></g></g><g fill="#ffffff" fill-opacity="1"><g transform="translate(33.470414, 63.983241)"><g><path d="M 0.765625 0.078125 C 0.640625 0.0664062 0.523438 0.03125 0.421875 -0.03125 C 0.316406 -0.101562 0.238281 -0.191406 0.1875 -0.296875 C 0.144531 -0.398438 0.128906 -0.515625 0.140625 -0.640625 C 0.148438 -0.773438 0.1875 -0.890625 0.25 -0.984375 C 0.320312 -1.078125 0.414062 -1.144531 0.53125 -1.1875 C 0.644531 -1.238281 0.765625 -1.257812 0.890625 -1.25 C 1.003906 -1.238281 1.101562 -1.207031 1.1875 -1.15625 C 1.28125 -1.101562 1.347656 -1.039062 1.390625 -0.96875 L 1.1875 -0.8125 C 1.113281 -0.914062 1.007812 -0.976562 0.875 -1 C 0.800781 -1 0.726562 -0.984375 0.65625 -0.953125 C 0.59375 -0.921875 0.539062 -0.875 0.5 -0.8125 C 0.457031 -0.757812 0.4375 -0.691406 0.4375 -0.609375 C 0.425781 -0.535156 0.4375 -0.460938 0.46875 -0.390625 C 0.5 -0.328125 0.539062 -0.273438 0.59375 -0.234375 C 0.65625 -0.191406 0.722656 -0.171875 0.796875 -0.171875 C 0.929688 -0.148438 1.046875 -0.191406 1.140625 -0.296875 L 1.3125 -0.09375 C 1.257812 -0.0195312 1.179688 0.0234375 1.078125 0.046875 C 0.984375 0.078125 0.878906 0.0859375 0.765625 0.078125 Z M 0.765625 0.078125 "/></g></g></g><g fill="#ffffff" fill-opacity="1"><g transform="translate(35.091422, 64.115034)"><g><path d="M 1.15625 -0.21875 L 1.15625 0.015625 L 0.15625 0 L 0.171875 -1.296875 L 1.140625 -1.28125 L 1.140625 -1.03125 L 0.46875 -1.046875 L 0.453125 -0.765625 L 1.046875 -0.75 L 1.046875 -0.515625 L 0.453125 -0.53125 L 0.453125 -0.234375 Z M 1.15625 -0.21875 "/></g></g></g><g fill="#ffffff" fill-opacity="1"><g transform="translate(36.590981, 64.107854)"><g/></g></g><g fill="#ffffff" fill-opacity="1"><g transform="translate(37.371372, 64.067861)"><g><path d="M 1 -0.359375 L 1.03125 -0.109375 L 0.0625 0 L 0.046875 -0.1875 L 0.484375 -0.71875 C 0.535156 -0.769531 0.566406 -0.816406 0.578125 -0.859375 C 0.585938 -0.898438 0.59375 -0.941406 0.59375 -0.984375 C 0.582031 -1.035156 0.5625 -1.070312 0.53125 -1.09375 C 0.5 -1.113281 0.445312 -1.117188 0.375 -1.109375 C 0.320312 -1.109375 0.269531 -1.09375 0.21875 -1.0625 C 0.175781 -1.039062 0.144531 -1.007812 0.125 -0.96875 L -0.109375 -1.078125 C -0.0664062 -1.160156 -0.00390625 -1.222656 0.078125 -1.265625 C 0.160156 -1.316406 0.257812 -1.351562 0.375 -1.375 C 0.46875 -1.382812 0.550781 -1.375 0.625 -1.34375 C 0.707031 -1.320312 0.769531 -1.285156 0.8125 -1.234375 C 0.863281 -1.179688 0.894531 -1.117188 0.90625 -1.046875 C 0.90625 -0.972656 0.894531 -0.898438 0.875 -0.828125 C 0.851562 -0.765625 0.800781 -0.691406 0.71875 -0.609375 L 0.453125 -0.296875 Z M 1 -0.359375 "/></g></g></g><g fill="#ffffff" fill-opacity="1"><g transform="translate(38.721534, 63.914717)"><g><path d="M 0.609375 -0.09375 C 0.503906 -0.0703125 0.40625 -0.0820312 0.3125 -0.125 C 0.226562 -0.164062 0.15625 -0.226562 0.09375 -0.3125 C 0.03125 -0.40625 -0.0078125 -0.515625 -0.03125 -0.640625 C -0.0625 -0.785156 -0.0625 -0.910156 -0.03125 -1.015625 C 0 -1.128906 0.046875 -1.21875 0.109375 -1.28125 C 0.179688 -1.34375 0.269531 -1.382812 0.375 -1.40625 C 0.476562 -1.425781 0.578125 -1.414062 0.671875 -1.375 C 0.765625 -1.34375 0.84375 -1.28125 0.90625 -1.1875 C 0.96875 -1.101562 1.015625 -0.988281 1.046875 -0.84375 C 1.066406 -0.71875 1.0625 -0.597656 1.03125 -0.484375 C 1 -0.378906 0.945312 -0.289062 0.875 -0.21875 C 0.800781 -0.15625 0.710938 -0.113281 0.609375 -0.09375 Z M 0.5625 -0.34375 C 0.644531 -0.363281 0.703125 -0.410156 0.734375 -0.484375 C 0.765625 -0.554688 0.769531 -0.65625 0.75 -0.78125 C 0.71875 -0.925781 0.675781 -1.03125 0.625 -1.09375 C 0.570312 -1.15625 0.503906 -1.175781 0.421875 -1.15625 C 0.347656 -1.144531 0.296875 -1.097656 0.265625 -1.015625 C 0.234375 -0.941406 0.234375 -0.832031 0.265625 -0.6875 C 0.285156 -0.5625 0.320312 -0.46875 0.375 -0.40625 C 0.425781 -0.351562 0.488281 -0.332031 0.5625 -0.34375 Z M 0.5625 -0.34375 "/></g></g></g><g fill="#ffffff" fill-opacity="1"><g transform="translate(40.21663, 63.624774)"><g><path d="M 0.9375 -0.5 L 1 -0.265625 L 0.0625 -0.015625 L 0.015625 -0.203125 L 0.375 -0.78125 C 0.414062 -0.832031 0.4375 -0.878906 0.4375 -0.921875 C 0.445312 -0.960938 0.445312 -1.003906 0.4375 -1.046875 C 0.425781 -1.097656 0.398438 -1.132812 0.359375 -1.15625 C 0.328125 -1.175781 0.273438 -1.175781 0.203125 -1.15625 C 0.148438 -1.144531 0.101562 -1.117188 0.0625 -1.078125 C 0.0195312 -1.046875 -0.00390625 -1.007812 -0.015625 -0.96875 L -0.28125 -1.046875 C -0.238281 -1.117188 -0.179688 -1.1875 -0.109375 -1.25 C -0.0351562 -1.320312 0.0546875 -1.367188 0.171875 -1.390625 C 0.265625 -1.421875 0.347656 -1.425781 0.421875 -1.40625 C 0.492188 -1.394531 0.554688 -1.367188 0.609375 -1.328125 C 0.671875 -1.285156 0.710938 -1.226562 0.734375 -1.15625 C 0.742188 -1.082031 0.742188 -1.015625 0.734375 -0.953125 C 0.722656 -0.890625 0.679688 -0.8125 0.609375 -0.71875 L 0.40625 -0.359375 Z M 0.9375 -0.5 "/></g></g></g><g fill="#ffffff" fill-opacity="1"><g transform="translate(41.519187, 63.26672)"><g><path d="M 0.125 -1.40625 L 0.53125 -0.171875 L 0.25 -0.078125 L -0.078125 -1.078125 L -0.3125 -1 L -0.390625 -1.234375 Z M 0.125 -1.40625 "/></g></g></g><g clip-path="url(#8b6ca8a0a7)"><path fill="#fcb036" d="M 48.90625 54.46875 C 48.90625 54.464844 48.90625 54.464844 48.910156 54.464844 C 48.910156 54.464844 48.914062 54.464844 48.914062 54.46875 C 48.953125 54.570312 49.242188 55.351562 49.492188 55.625 C 49.746094 55.894531 50.425781 56.164062 50.519531 56.199219 C 50.519531 56.199219 50.519531 56.203125 50.519531 56.203125 C 50.519531 56.207031 50.519531 56.207031 50.519531 56.207031 C 50.425781 56.242188 49.726562 56.523438 49.476562 56.792969 C 49.226562 57.0625 48.953125 57.832031 48.914062 57.9375 C 48.914062 57.941406 48.910156 57.941406 48.910156 57.941406 C 48.90625 57.941406 48.90625 57.941406 48.90625 57.9375 C 48.875 57.832031 48.648438 57.078125 48.398438 56.808594 C 48.144531 56.535156 47.394531 56.242188 47.300781 56.207031 C 47.296875 56.207031 47.296875 56.207031 47.296875 56.203125 C 47.296875 56.203125 47.296875 56.199219 47.300781 56.199219 C 47.390625 56.160156 48.105469 55.828125 48.359375 55.554688 C 48.609375 55.285156 48.871094 54.566406 48.90625 54.46875 Z M 48.90625 54.46875 " fill-opacity="1" fill-rule="evenodd"/></g></svg>